<svg width="108" height="82" viewBox="0 0 108 82" fill="none" xmlns="http://www.w3.org/2000/svg">
<g opacity="0.6">
<g opacity="0.6">
<circle cx="54" cy="41" r="41" fill="#5654D4"/>
<path d="M95 41C95 32.891 92.5954 24.964 88.0903 18.2216C83.5851 11.4792 77.1818 6.22413 69.69 3.12094C62.1982 0.0177462 53.9545 -0.794191 46.0013 0.787804C38.0481 2.3698 30.7426 6.27467 25.0086 12.0086C19.2747 17.7426 15.3698 25.0481 13.7878 33.0013C12.2058 40.9545 13.0177 49.1982 16.1209 56.69C19.2241 64.1818 24.4792 70.5851 31.2216 75.0903C37.964 79.5954 45.891 82 54 82V41H95Z" fill="#3FC8E4"/>
<path d="M95 41C95 35.6158 93.9395 30.2843 91.8791 25.31C89.8186 20.3356 86.7986 15.8158 82.9914 12.0086C79.1842 8.20142 74.6644 5.18138 69.69 3.12094C64.7157 1.0605 59.3842 -2.35351e-07 54 0C48.6158 2.35351e-07 43.2843 1.0605 38.31 3.12094C33.3356 5.18138 28.8158 8.20142 25.0086 12.0086C21.2014 15.8158 18.1814 20.3356 16.1209 25.31C14.0605 30.2843 13 35.6158 13 41L54 41H95Z" fill="#549F2E"/>
<path d="M95 41C95 35.6158 93.9395 30.2843 91.8791 25.31C89.8186 20.3356 86.7986 15.8158 82.9914 12.0086C79.1842 8.20142 74.6644 5.18138 69.69 3.12094C64.7157 1.0605 59.3842 -2.35351e-07 54 0V41H95Z" fill="#FF9F0A"/>
</g>
<rect y="64" width="108" height="18" rx="9" fill="#EA5555"/>
</g>
</svg>
