<svg width="35" height="35" viewBox="0 0 35 35" fill="none" xmlns="http://www.w3.org/2000/svg">
<path d="M25.4875 20.9374L25.4913 20.9429C25.7384 21.3056 25.7691 21.6948 25.6183 22.0527L26.7703 22.538L25.6183 22.0527C25.4542 22.4422 25.099 22.7792 24.573 22.9337L24.573 22.9337L24.5666 22.9356C22.3025 23.6141 19.9148 23.95 17.5216 23.95C15.1284 23.95 12.7426 23.6141 10.4816 22.9262L10.4793 22.9255C9.83835 22.7318 9.49274 22.3752 9.37183 22.0733L9.37187 22.0733L9.36757 22.0628C9.23972 21.7518 9.25254 21.3746 9.54443 20.9358L10.7843 19.1023L10.7901 19.0937L10.7958 19.0849C11.0134 18.7512 11.1782 18.3374 11.2876 17.9778C11.3959 17.6214 11.4907 17.1837 11.4907 16.7851V14.0021C11.4907 12.0249 12.7814 10.2156 14.8074 9.31423L15.1566 9.15887L15.3592 8.83478C15.7507 8.20856 16.5368 7.75018 17.4847 7.75018V7.75023L17.4964 7.75012C17.9429 7.74595 18.3758 7.84959 18.7483 8.04201C19.1204 8.23419 19.4096 8.50274 19.6 8.80522L19.8084 9.13612L20.1682 9.28928C21.2075 9.73172 22.0653 10.4198 22.6568 11.2565C23.2468 12.0911 23.5512 13.043 23.5525 14.0029C23.5525 14.0031 23.5525 14.0034 23.5525 14.0036L23.5525 16.7851C23.5525 17.1837 23.6473 17.6212 23.7552 17.9776C23.8646 18.3393 24.0277 18.7498 24.239 19.0828L24.2481 19.0972L24.2577 19.1114L25.4875 20.9374L25.4875 20.9374ZM15.2985 27.6894C15.2993 27.6894 15.3002 27.6895 15.301 27.6896L15.3506 27.0237L15.3549 26.9661L15.3939 26.443L15.3527 26.9688L15.3481 27.0264L15.2961 27.6892C15.2969 27.6892 15.2977 27.6893 15.2985 27.6894Z" stroke="#475569" stroke-width="2.5"/>
<circle cx="22" cy="9.5" r="4" fill="#F97316"/>
</svg>
