<svg width="1054" height="194" viewBox="0 0 1054 194" fill="none" xmlns="http://www.w3.org/2000/svg">
<path opacity="0.8" fill-rule="evenodd" clip-rule="evenodd" d="M0 60.9166C0 60.9166 62.0359 88.8017 107.186 82.093C140.834 77.0934 179.722 8.93215 218.196 14.414C266.122 21.2427 244.278 78.5097 290.828 102.075C338.591 126.255 477.85 57.5921 559.767 63.7864C660.376 71.3942 668.32 132.523 746.337 117.099C831.536 100.256 826.743 52.523 962.719 14.414C1003.73 2.92065 1054 0.519531 1054 0.519531L1054 181.223C1054 187.889 1048.59 193.291 1041.92 193.281L12.0416 191.827C5.38851 191.818 0 186.422 0 179.769V60.9166Z" fill="#FFB3B3"/>
</svg>
