<svg width="35" height="35" viewBox="0 0 35 35" fill="none" xmlns="http://www.w3.org/2000/svg">
<path d="M26.4536 14.4252C24.4516 14.4252 23.6331 13.0095 24.6286 11.2729C25.2037 10.2664 24.8608 8.98339 23.8543 8.40824L21.9408 7.31324C21.067 6.79339 19.9389 7.10309 19.419 7.97687L19.2973 8.18703C18.3019 9.92354 16.6649 9.92354 15.6584 8.18703L15.5367 7.97687C15.4175 7.76781 15.2579 7.58454 15.0672 7.43774C14.8764 7.29094 14.6584 7.18354 14.4258 7.12178C14.1932 7.06002 13.9506 7.04515 13.7122 7.07801C13.4738 7.11088 13.2443 7.19084 13.037 7.31324L11.1236 8.40824C10.117 8.98339 9.77416 10.2775 10.3493 11.284C11.3558 13.0095 10.5373 14.4252 8.53537 14.4252C7.38507 14.4252 6.43385 15.3654 6.43385 16.5267V18.4734C6.43385 19.6237 7.37401 20.5749 8.53537 20.5749C10.5373 20.5749 11.3558 21.9907 10.3493 23.7272C9.77416 24.7337 10.117 26.0167 11.1236 26.5919L13.037 27.6869C13.9108 28.2067 15.039 27.897 15.5589 27.0232L15.6805 26.8131C16.676 25.0766 18.3129 25.0766 19.3195 26.8131L19.4411 27.0232C19.961 27.897 21.0892 28.2067 21.963 27.6869L23.8764 26.5919C24.883 26.0167 25.2258 24.7226 24.6507 23.7272C23.6442 21.9907 24.4626 20.5749 26.4646 20.5749C27.6149 20.5749 28.5661 19.6348 28.5661 18.4734V16.5267C28.5603 15.9693 28.3356 15.4364 27.9403 15.0432C27.5451 14.6501 27.0111 14.4281 26.4536 14.4252ZM17.4945 21.0948C15.5146 21.0948 13.8998 19.4799 13.8998 17.5001C13.8998 15.5202 15.5146 13.9054 17.4945 13.9054C19.4743 13.9054 21.0892 15.5202 21.0892 17.5001C21.0892 19.4799 19.4743 21.0948 17.4945 21.0948Z" fill="#475569"/>
</svg>
