<svg width="410" height="363" viewBox="0 0 410 363" fill="none" xmlns="http://www.w3.org/2000/svg">
<rect width="410" height="363" rx="16" fill="#D6D0FD"/>
<g clip-path="url(#clip0_4811_2982)">
<path opacity="0.1" d="M340.87 94.6234C338.065 88.1127 334.274 82.0726 329.631 76.7153L173.698 75.179L302.083 57.1468C293.789 53.8439 284.96 52.092 276.033 51.9782C263.752 42.1615 248.63 36.5715 232.916 36.0398C217.203 35.5081 201.737 40.063 188.82 49.027C178.498 43.7204 167.055 40.9627 155.448 40.9845C120.801 40.9845 91.9295 64.9797 85.4536 96.8023L340.87 94.6234Z" fill="#6C63FF"/>
<path opacity="0.1" d="M346.353 121.312C346.36 112.682 344.71 104.132 341.493 96.125L71.2411 124.492C68.4543 129.532 66.3225 134.908 64.8975 140.489L148.586 152.966L62.9862 162.068C65.5622 198.091 96.4443 226.537 134.169 226.537C153.158 226.537 170.416 219.328 183.199 207.573C196.027 219.551 213.447 226.915 232.64 226.915C261.12 226.915 285.7 210.701 297.146 187.254C320.112 179.967 337.952 161.665 344.058 138.77L238.237 122.343H346.353C346.347 121.998 346.353 121.656 346.353 121.312Z" fill="#6C63FF"/>
<path d="M142.068 256.337C176.646 256.337 204.676 251.742 204.676 246.074C204.676 240.406 176.646 235.812 142.068 235.812C107.491 235.812 79.46 240.406 79.46 246.074C79.46 251.742 107.491 256.337 142.068 256.337Z" fill="#6C63FF"/>
<path d="M206.819 179.965C204.003 180.671 201.113 179.298 201.113 179.298C201.113 179.298 198.647 176.443 196.568 176.057C194.488 175.671 193.683 179.049 192.447 179.918C191.592 180.528 185.425 180.092 181.691 179.766L181.048 179.708C180.985 179.662 180.921 179.612 180.852 179.568C180.852 179.568 177.267 178.465 176.519 177.488C175.772 176.512 170.777 174.705 169.227 174.81C167.677 174.915 163.096 175.163 163.096 175.163C163.096 175.163 161.3 173.119 160.489 173.332C159.678 173.544 156.86 173.315 156.86 173.315C156.86 173.315 156.085 171.324 155.31 168.469C154.948 167.137 153.746 166.202 152.568 165.587C153.627 162.002 151.741 151.775 145.883 149.775C144.606 149.339 143.952 147.891 142.865 147.097C141.892 146.388 140.298 144.717 141.078 141.697C142.181 137.469 144.917 130.811 144.917 130.811L146.956 126.74C146.765 127.028 146.549 127.299 146.31 127.548C146.586 127.195 146.862 126.847 147.099 126.555C149.133 127.582 151.351 128.194 153.625 128.353C155.925 129.283 158.222 130.102 159.116 130.072C161.16 130 166.372 132.609 166.372 132.609C166.372 132.609 178.913 136.194 181.52 136.484C184.126 136.774 185.395 133.384 185.395 133.384C185.395 133.384 186.749 126.701 184.344 124.93C181.939 123.16 180.54 131.274 180.54 131.274L164.133 125.361L163.121 124.828C163.906 123.997 164.53 123.026 164.96 121.966C165.214 121.334 165.446 120.611 166.05 120.297C166.212 120.216 166.388 120.165 166.568 120.145C166.718 120.136 166.868 120.136 167.018 120.145C169.864 120.319 172.31 122.559 175.162 122.57C175.267 122.57 175.372 122.57 175.477 122.57C176.02 122.568 176.551 122.405 177.002 122.101C177.256 121.894 177.465 121.636 177.616 121.345C177.767 121.054 177.857 120.735 177.879 120.407C177.837 120.496 177.791 120.582 177.741 120.667C177.815 120.261 177.815 119.845 177.741 119.439C177.565 118.471 177.06 117.602 176.607 116.728C176.48 116.524 176.407 116.29 176.398 116.05C176.411 115.924 176.449 115.802 176.51 115.692C176.571 115.581 176.654 115.484 176.754 115.407C176.758 115.433 176.763 115.459 176.77 115.484C176.985 115.282 177.224 115.107 177.482 114.963C178.179 114.506 178.775 113.91 179.232 113.213C179.689 112.516 179.999 111.733 180.141 110.911C180.072 111.115 179.989 111.317 179.901 111.515C180.325 110.115 180.222 108.608 179.611 107.279C179.453 106.901 179.2 106.569 178.877 106.316C177.849 105.594 176.467 106.363 175.212 106.446C174.109 106.518 173.039 106.024 172.043 105.525C170.344 104.673 168.653 103.751 167.238 102.491C165.63 101.048 164.436 99.2088 162.985 97.6119C161.535 96.0149 159.673 94.5918 157.513 94.4318C153.589 94.1284 149.887 98.0173 146.156 96.7486C144.335 96.1335 143.138 94.4511 141.872 93.0059C140.606 91.5607 138.866 90.1733 136.969 90.485C135.65 90.7057 134.508 91.7289 133.173 91.6903C132.476 91.6682 131.828 91.3566 131.166 91.1387C129.563 90.6008 127.368 90.8629 126.797 92.457C126.685 92.7817 126.645 93.1271 126.681 93.4687C126.717 93.8104 126.827 94.1401 127.004 94.4346C126.919 94.553 126.844 94.6774 126.777 94.8069C126.64 95.0596 126.593 95.3512 126.642 95.6343C125.508 96.6525 124.668 97.9562 124.208 99.4096C123.749 100.863 123.689 102.413 124.032 103.898C124.376 105.383 125.111 106.749 126.162 107.853C127.213 108.957 128.541 109.758 130.007 110.175C130.06 110.376 130.112 110.578 130.162 110.782C130.697 113.035 130.975 115.572 130.184 117.282C130.134 117.387 130.082 117.489 130.024 117.589L129.955 117.619L129.855 117.517L129.254 116.888C129.221 116.232 128.852 114.472 126.281 111.206C122.897 106.907 122.263 99.7907 122.263 99.7907C122.263 99.7907 121.419 96.128 122.263 95.0717C123.107 94.0153 124.519 82.3846 124.519 82.3846L126.852 75.8369C126.852 75.8369 138.196 64.2806 133.471 62.874C130.264 61.917 126.438 66.8484 124.315 70.1084C123.271 71.7092 122.597 73.5217 122.34 75.4149L115.927 92.959C115.927 92.959 115.293 95.0744 115.927 98.7371C116.562 102.4 117.971 108.884 117.971 108.884L121.556 117.972C121.556 117.972 122.878 121.897 122.762 123.601C122.605 123.703 122.053 124.795 121.576 125.788L121.226 126.34L121.201 126.563C120.966 127.062 120.804 127.421 120.804 127.421C120.804 127.421 118.807 133.315 120.475 136.931C122.144 140.547 122.21 142.224 122.21 142.224L123.454 147.58L123.973 152.268L128.446 163.331L132.567 169.214C132.567 169.214 132.181 173.547 131.334 174.145C130.487 174.744 130.876 177.844 130.876 177.844L130.346 185.98C130.346 185.98 128.692 188.413 128.587 192.357C128.482 196.301 127.881 197.432 127.881 197.432C127.881 197.432 127.605 200.741 128.374 202.258C129.144 203.775 127.142 205.358 127.142 205.358L128.86 211.258L128.19 218.727C128.19 218.727 128.501 218.812 129.017 218.942L128.912 219.477L126.11 233.626C126.11 233.626 124.596 237.504 124.527 238.417L119.629 247.262C119.629 247.262 115.541 251.313 117.48 251.699C119.419 252.086 125.056 248.599 125.056 248.599C125.056 248.599 129.707 243.596 131.538 243.141C133.369 242.686 135.399 241.376 134.815 239.476C134.23 237.575 132.884 234.685 134.18 231.618C135.008 229.687 136.767 224.447 137.975 220.79C138.041 220.589 138.105 220.395 138.168 220.208C138.488 220.179 138.804 220.119 139.112 220.029C142.071 219.113 143.621 219.753 143.621 219.753L148.905 198.37L150.067 187.641L157.467 193.813C158.931 195.034 160.748 195.753 162.652 195.862C165.567 196.033 170.115 196.455 173.408 197.473L174.787 191.731C174.787 191.731 178.731 191.874 179.578 190.534C179.923 189.982 180.262 189.513 180.54 189.155L181.18 189.056L198.636 186.355C201.877 186.355 206.317 184.168 206.317 184.168L209.031 183.641C209.031 183.641 213.08 182.831 213.444 182.16C213.808 181.49 209.641 179.264 206.819 179.965Z" fill="url(#paint0_linear_4811_2982)"/>
<path d="M127.611 93.8381C128.162 92.2826 130.319 92.0206 131.888 92.5474C132.534 92.7625 133.171 93.0686 133.852 93.099C135.159 93.1376 136.276 92.1337 137.567 91.9213C139.423 91.6124 141.125 92.9694 142.363 94.3842C143.602 95.7991 144.777 97.4457 146.558 98.0497C150.207 99.2798 153.831 95.4847 157.671 95.7798C159.778 95.9425 161.598 97.3299 163.019 98.8937C164.439 100.458 165.608 102.256 167.181 103.668C168.56 104.909 170.214 105.811 171.883 106.647C172.857 107.135 173.896 107.617 174.983 107.546C176.213 107.466 177.565 106.718 178.569 107.419C178.885 107.667 179.131 107.991 179.286 108.362C180.521 110.933 179.526 114.355 177.107 115.867C176.685 116.129 176.172 116.418 176.147 116.923C176.155 117.159 176.225 117.388 176.351 117.588C176.792 118.443 177.289 119.295 177.454 120.241C177.62 121.187 177.396 122.277 176.627 122.85C176.124 123.184 175.528 123.348 174.925 123.316C172.134 123.303 169.74 121.11 166.954 120.942C166.598 120.901 166.237 120.956 165.909 121.102C165.319 121.408 165.082 122.117 164.842 122.734C163.551 125.959 160.346 128.201 156.926 128.816C153.506 129.431 149.934 128.565 146.873 126.921C146.649 126.814 146.443 126.673 146.263 126.502C146.008 126.192 145.827 125.826 145.737 125.435C144.799 122.47 143.53 119.367 140.932 117.654C139.247 116.551 136.96 115.93 136.196 114.069C135.716 112.891 136.017 111.553 135.896 110.284C135.776 109.197 135.352 108.165 134.673 107.307C133.993 106.449 133.085 105.801 132.054 105.436C131.601 105.284 131.105 105.177 130.774 104.832C130.505 104.493 130.334 104.088 130.278 103.66C129.867 101.792 129.594 99.8204 129.02 97.9973C128.581 96.5686 127.023 95.4737 127.611 93.8381Z" fill="#663D5B"/>
<g opacity="0.1">
<path d="M176.949 121.991C176.445 122.321 175.849 122.48 175.248 122.446C172.459 122.446 170.065 120.24 167.28 120.075C166.923 120.033 166.563 120.087 166.234 120.232C165.641 120.538 165.407 121.247 165.167 121.865C163.876 125.091 160.669 127.334 157.249 127.949C153.829 128.564 150.257 127.698 147.198 126.054C146.975 125.947 146.769 125.805 146.589 125.635C146.334 125.324 146.153 124.959 146.062 124.567C145.124 121.6 143.855 118.5 141.257 116.784C139.569 115.667 137.283 115.063 136.522 113.199C136.039 112.018 136.34 110.681 136.221 109.415C136.102 108.326 135.678 107.294 134.998 106.436C134.318 105.578 133.409 104.93 132.376 104.566C131.924 104.414 131.428 104.304 131.097 103.962C130.828 103.623 130.657 103.216 130.603 102.787C130.189 100.922 129.919 98.9477 129.345 97.1274C128.959 95.9083 127.743 94.9209 127.803 93.6191C127.768 93.6879 127.736 93.7588 127.71 93.8315C127.119 95.467 128.681 96.562 129.125 97.9686C129.698 99.7889 129.969 101.764 130.382 103.628C130.436 104.058 130.607 104.464 130.876 104.803C131.207 105.145 131.703 105.255 132.156 105.407C133.189 105.771 134.098 106.42 134.778 107.278C135.458 108.137 135.882 109.17 136 110.259C136.119 111.525 135.818 112.862 136.301 114.043C137.062 115.915 139.349 116.525 141.037 117.628C143.629 119.346 144.898 122.444 145.841 125.411C145.933 125.803 146.113 126.168 146.368 126.479C146.548 126.649 146.754 126.791 146.978 126.898C150.036 128.553 153.597 129.405 157.028 128.793C160.459 128.18 163.647 125.935 164.946 122.708C165.195 122.091 165.423 121.382 166.014 121.076C166.342 120.931 166.703 120.877 167.059 120.918C169.845 121.087 172.239 123.279 175.027 123.29C175.629 123.322 176.226 123.16 176.729 122.827C176.978 122.625 177.183 122.374 177.331 122.089C177.479 121.804 177.567 121.492 177.589 121.172C177.45 121.496 177.23 121.778 176.949 121.991Z" fill="black"/>
<path d="M177.429 115.001C177.007 115.277 176.492 115.553 176.467 116.058C176.464 116.159 176.48 116.26 176.514 116.355C176.723 116.157 176.957 115.986 177.209 115.845C177.891 115.398 178.474 114.816 178.921 114.134C179.369 113.452 179.671 112.686 179.81 111.882C179.402 113.166 178.56 114.269 177.429 115.001Z" fill="black"/>
</g>
<path d="M134.828 230.012C133.551 233.013 134.864 235.837 135.449 237.701C136.034 239.566 134.037 240.837 132.244 241.287C130.451 241.737 125.901 246.629 125.901 246.629C125.901 246.629 120.384 250.041 118.487 249.663C116.589 249.285 120.588 245.319 120.588 245.319L125.382 236.664C125.451 235.771 126.932 231.976 126.932 231.976L129.674 218.13L130.038 216.291L139.757 215.703C139.757 215.703 139.247 217.281 138.543 219.413C137.36 222.998 135.628 228.139 134.828 230.012Z" fill="#CC818C"/>
<path d="M212.399 181.615C212.054 182.271 208.091 183.063 208.091 183.063L205.435 183.579C205.435 183.579 201.091 185.719 197.919 185.719L180.836 188.364L178.544 188.72V179.028C178.544 179.028 179.697 179.149 181.329 179.304C184.978 179.624 191.016 180.048 191.851 179.453C193.059 178.592 193.851 175.283 195.884 175.663C197.916 176.044 200.332 178.835 200.332 178.835C200.332 178.835 203.159 180.178 205.918 179.489C208.676 178.799 212.744 180.959 212.399 181.615Z" fill="#CC818C"/>
<path opacity="0.1" d="M181.44 187.615C181.44 187.615 181.194 187.891 180.836 188.363L178.544 188.718V179.029C178.544 179.029 179.697 179.151 181.329 179.305C184.071 181.47 181.44 187.615 181.44 187.615Z" fill="black"/>
<path d="M148.447 185.376L157.623 193.033C159.057 194.227 160.836 194.93 162.698 195.038C165.55 195.206 170.002 195.617 173.234 196.615L174.58 190.995C174.58 190.995 178.441 191.132 179.269 189.822C179.755 189.049 180.296 188.312 180.888 187.616C180.888 187.616 183.682 181.101 180.51 179.102C180.51 179.102 176.993 178.032 176.268 177.066C175.543 176.101 170.65 174.344 169.133 174.446C167.616 174.548 163.134 174.791 163.134 174.791C163.134 174.791 161.374 172.791 160.583 172.998C159.791 173.205 157.03 172.998 157.03 172.998C157.03 172.998 156.272 171.048 155.514 168.254C154.755 165.46 150.24 164.462 150.24 164.462L148.447 185.376Z" fill="#565987"/>
<path opacity="0.1" d="M148.447 185.376L157.623 193.033C159.057 194.227 160.836 194.93 162.698 195.038C165.55 195.206 170.002 195.617 173.234 196.615L174.58 190.995C174.58 190.995 178.441 191.132 179.269 189.822C179.755 189.049 180.296 188.312 180.888 187.616C180.888 187.616 183.682 181.101 180.51 179.102C180.51 179.102 176.993 178.032 176.268 177.066C175.543 176.101 170.65 174.344 169.133 174.446C167.616 174.548 163.134 174.791 163.134 174.791C163.134 174.791 161.374 172.791 160.583 172.998C159.791 173.205 157.03 172.998 157.03 172.998C157.03 172.998 156.272 171.048 155.514 168.254C154.755 165.46 150.24 164.462 150.24 164.462L148.447 185.376Z" fill="black"/>
<path d="M144.344 116.733L143.329 116.923H143.265L143.116 116.95L141.379 117.273L140.844 117.907L140.822 117.93L139.103 119.965L137.655 121.385L137.641 121.402L136.417 122.593L134.346 124.654L133.998 125.511L133.242 127.412L133.047 127.894L130.978 130.101L129.657 132.928L126.568 134.721L123.244 132.997L121.727 130.79L122.072 127.63L122.141 126.998L123.153 125.374L124.072 123.895L125.865 121.344L129.312 119L129.93 118.837L130.622 118.655C130.675 118.579 130.724 118.501 130.768 118.42C130.827 118.324 130.879 118.223 130.926 118.12C131.701 116.448 131.428 113.963 130.904 111.76C130.502 110.111 129.97 108.497 129.312 106.933L138.414 105.623C138.414 105.623 138.325 107.388 138.325 110.141C138.325 110.83 138.325 111.578 138.345 112.378C138.389 114.86 140.695 115.935 142.435 116.393C142.883 116.513 143.338 116.605 143.797 116.669C144.134 116.722 144.344 116.733 144.344 116.733Z" fill="#CC818C"/>
<path d="M130.002 118.033C130.002 118.033 130.415 116.379 127.106 112.172C123.796 107.966 123.175 101.002 123.175 101.002C123.175 101.002 122.348 97.4168 123.175 96.3825C124.003 95.3483 125.382 83.9712 125.382 83.9712L127.657 77.5587C127.657 77.5587 138.759 66.2507 134.139 64.8716C131 63.9339 127.244 68.7632 125.178 71.9516C124.157 73.5183 123.498 75.2922 123.247 77.145L116.97 94.314C116.97 94.314 116.349 96.3825 116.97 99.968C117.59 103.554 118.969 109.897 118.969 109.897L122.486 118.8C122.486 118.8 124.337 124.344 123.377 125.02L125.52 121.851L130.002 118.033Z" fill="#CC818C"/>
<path d="M184.956 133.901C184.956 133.901 183.715 137.211 181.164 136.935C178.613 136.659 166.339 133.142 166.339 133.142C166.339 133.142 161.237 130.591 159.237 130.66C157.238 130.729 148.067 126.454 148.067 126.454C148.067 126.454 147.422 127.304 146.702 128.197C145.919 129.176 145.047 130.211 144.827 130.247C144.413 130.315 138 131.212 138 131.212L133.656 129.212L133.243 127.411L133.047 126.584L134.009 125.511L135.275 124.102L137.65 121.393L137.664 121.377L140.833 117.932L140.855 117.91L142.885 117.082L143.276 116.922H143.34C143.583 116.881 144.515 116.795 145.764 117.501C146.634 117.994 147.601 118.293 148.597 118.379C150.58 118.52 152.458 119.324 153.928 120.662L164.133 126.032L180.199 131.824C180.199 131.824 181.578 123.895 183.922 125.618C186.266 127.342 184.956 133.901 184.956 133.901Z" fill="#CC818C"/>
<path opacity="0.1" d="M146.702 128.196C145.918 129.175 145.047 130.21 144.826 130.246C144.413 130.314 138 131.211 138 131.211L133.656 129.211L133.242 127.41L133.047 127.893L130.978 130.099L129.657 132.926L126.568 134.719L123.244 132.995L121.727 130.789L122.072 127.628C122.246 127.253 122.72 126.233 123.153 125.372C123.358 124.898 123.615 124.448 123.92 124.032C124.196 123.85 124.486 121.894 124.486 121.894C125.738 118.284 129.933 117.729 129.933 117.729L130.603 118.358L130.895 118.662C130.777 118.642 130.917 118.386 130.766 118.427C130.523 118.496 130.415 118.863 130.104 119.064C128.407 120.168 125.757 122.741 124.709 123.963C124.455 124.258 124.193 124.547 123.926 124.829C122.411 126.431 122.69 128.555 122.69 128.555C122.312 130.21 125.655 131.451 125.655 131.451C126.587 129.901 132.895 125.626 132.895 125.626L137.142 120.868C138.444 118.601 141.004 117.103 142.432 116.403C143.064 116.094 143.478 115.939 143.478 115.939L145.066 116.618C144.647 116.506 144.203 116.525 143.795 116.673C143.56 116.746 143.332 116.838 143.113 116.949C143.031 116.99 142.948 117.034 142.871 117.081C142.436 117.334 142.028 117.628 141.652 117.961L138.083 121.858C135.355 124.834 137.41 129.647 141.445 129.716H141.481C143.946 130.284 145.714 129.142 146.702 128.196Z" fill="black"/>
<path opacity="0.1" d="M139.757 215.71C139.757 215.71 139.247 217.288 138.544 219.42C135.846 219.621 131.392 218.578 129.674 218.137L130.038 216.297L139.757 215.71Z" fill="black"/>
<path d="M130.898 118.663L130.015 117.758C130.015 117.758 126.83 118.194 124.852 121.597C124.852 121.597 123.928 124.149 123.644 124.331C123.36 124.513 121.727 128.079 121.727 128.079C121.727 128.079 119.775 133.846 121.405 137.387C123.035 140.929 123.106 142.559 123.106 142.559L124.326 147.799L124.83 152.394L129.21 163.219L133.242 168.965C133.242 168.965 132.864 173.204 132.037 173.791C131.21 174.379 131.588 177.41 131.588 177.41L131.072 185.375C131.072 185.375 129.45 187.752 129.348 191.614C129.246 195.475 128.658 196.578 128.658 196.578C128.658 196.578 128.383 199.819 129.141 201.303C129.9 202.787 127.933 204.337 127.933 204.337L129.624 210.093L128.967 217.402C128.967 217.402 136.759 219.575 139.655 218.679C142.551 217.782 144.068 218.403 144.068 218.403L149.239 197.466L151.032 181.023C151.032 181.023 151.137 169.37 152.687 165.818C154.016 162.784 152.273 151.975 146.285 149.934C145.036 149.509 144.401 148.091 143.334 147.314C142.38 146.621 140.822 144.986 141.585 142.029C142.656 137.892 145.345 131.378 145.345 131.378L147.336 127.411C147.336 127.411 145.171 130.914 141.208 130.018H141.172C137.137 129.946 135.082 125.133 137.81 122.16L141.379 118.26C141.379 118.26 143.345 116.448 144.793 116.906L143.207 116.228C143.207 116.228 138.742 117.882 136.864 121.156L132.616 125.914C132.616 125.914 126.314 130.17 125.382 131.731C125.382 131.731 122.039 130.489 122.417 128.835C122.417 128.835 122.141 126.708 123.653 125.106C123.928 124.83 124.182 124.538 124.436 124.242C125.796 122.654 129.555 118.44 130.898 118.663Z" fill="#565987"/>
<path opacity="0.1" d="M131.417 147.072C131.417 147.072 130.416 154.348 131.174 155.829L131.417 147.072Z" fill="black"/>
<path opacity="0.1" d="M132.07 149.897L133.14 154.07C133.14 154.07 133.518 151.519 132.07 149.897Z" fill="black"/>
<path opacity="0.1" d="M125.727 148.925C125.727 148.925 127.864 159.543 130.208 162.751L125.727 148.925Z" fill="black"/>
<path opacity="0.1" d="M140.794 161.725C140.794 161.725 137.14 165.172 135.725 164.921C135.725 164.921 141.346 165.164 143.102 162.199C143.102 162.207 141.966 161.38 140.794 161.725Z" fill="black"/>
<path opacity="0.1" d="M145.861 161.45C145.861 161.45 141.172 164.862 140.243 165.174C140.243 165.174 145.309 163.726 145.861 161.45Z" fill="black"/>
<path opacity="0.1" d="M130.002 136.109C130.002 136.109 127.657 139.11 126.485 138.765C126.485 138.765 129.348 138.867 130.002 136.109Z" fill="black"/>
<path opacity="0.1" d="M132.658 139.969C132.658 139.969 137.76 133.041 140.173 133.317C140.173 133.317 134.382 138.35 132.658 139.969Z" fill="black"/>
<path opacity="0.1" d="M139.724 137.448C139.724 137.448 136.483 139.073 136.828 139.547C137.173 140.022 139.724 137.448 139.724 137.448Z" fill="black"/>
<path opacity="0.1" d="M142.068 190.648C142.068 190.648 131.243 196.959 130.244 197.268C130.244 197.268 132.106 198.683 133.863 197.993C135.62 197.304 142.068 190.648 142.068 190.648Z" fill="black"/>
<path opacity="0.1" d="M133.002 203.786C133.002 203.786 128.659 203.336 128.83 204.751C129.001 206.166 133.002 203.786 133.002 203.786Z" fill="black"/>
<path opacity="0.1" d="M138.414 105.623C138.414 105.623 138.325 107.388 138.325 110.141C137.304 110.978 136.099 111.561 134.809 111.842C133.519 112.122 132.18 112.093 130.903 111.757C130.502 110.108 129.97 108.494 129.312 106.93L138.414 105.623Z" fill="black"/>
<path d="M133.036 111.496C137.644 111.496 141.379 107.761 141.379 103.153C141.379 98.5449 137.644 94.8096 133.036 94.8096C128.428 94.8096 124.693 98.5449 124.693 103.153C124.693 107.761 128.428 111.496 133.036 111.496Z" fill="#CC818C"/>
<path opacity="0.1" d="M135.223 108.243C135.457 111.655 136.174 115.558 139.136 117.273C141.276 118.511 143.974 118.186 146.343 117.48C148.712 116.774 151.032 115.72 153.497 115.602C155.392 115.511 157.265 115.977 159.154 116.095C161.044 116.214 163.112 115.919 164.461 114.589C166.391 112.697 166.038 109.258 164.21 107.27C162.381 105.281 159.521 104.558 156.813 104.633C153.503 104.724 149.807 105.736 147.19 103.728C145.433 102.377 144.768 100.032 143.29 98.3803C140.821 95.6223 129.905 91.6396 127.594 96.1353C126.51 98.2397 131.436 99.7428 132.578 101.265C134.381 103.668 135.007 105.093 135.223 108.243Z" fill="black"/>
<path d="M135.479 107.947C135.716 111.362 136.431 115.264 139.393 116.977C141.533 118.215 144.231 117.89 146.6 117.187C148.969 116.483 151.288 115.427 153.757 115.308C155.649 115.217 157.522 115.681 159.414 115.802C161.306 115.923 163.369 115.626 164.717 114.296C166.648 112.401 166.295 108.965 164.466 106.976C162.638 104.988 159.778 104.265 157.072 104.34C153.762 104.428 150.064 105.443 147.446 103.432C145.69 102.081 145.025 99.7392 143.547 98.0843C141.078 95.3262 130.162 91.3464 127.85 95.842C126.766 97.9436 131.692 99.4468 132.837 100.972C134.638 103.372 135.264 104.795 135.479 107.947Z" fill="#663D5B"/>
<path opacity="0.1" d="M125.446 131.449C125.574 130.361 125.932 129.312 126.498 128.373C127.063 127.434 127.823 126.627 128.725 126.005" fill="black"/>
<path opacity="0.1" d="M156.727 174.652C156.702 174.922 156.636 175.187 156.531 175.438C156.17 176.521 155.735 177.578 155.23 178.602C155.966 178.538 156.573 177.959 156.884 177.291C157.157 176.605 157.307 175.876 157.328 175.137C157.355 174.907 157.362 174.674 157.348 174.442C157.328 174.227 157.191 173.405 156.835 173.551C156.548 173.673 156.733 174.434 156.727 174.652Z" fill="black"/>
<path opacity="0.1" d="M165.214 113.434C163.862 114.764 161.799 115.062 159.907 114.94C158.015 114.819 156.134 114.356 154.251 114.449C151.768 114.568 149.468 115.621 147.096 116.328C144.724 117.034 142.03 117.359 139.887 116.121C136.927 114.405 136.21 110.503 135.976 107.091C135.761 103.941 135.132 102.515 133.331 100.113C132.241 98.6594 127.718 97.2252 128.237 95.2725C128.087 95.4485 127.957 95.641 127.85 95.8461C126.766 97.9478 131.692 99.4509 132.837 100.976C134.638 103.376 135.264 104.804 135.479 107.951C135.716 111.366 136.431 115.268 139.393 116.981C141.533 118.22 144.231 117.894 146.6 117.191C148.969 116.488 151.288 115.431 153.757 115.313C155.649 115.222 157.522 115.685 159.414 115.806C161.306 115.928 163.369 115.63 164.717 114.3C165.101 113.92 165.405 113.469 165.614 112.971C165.493 113.135 165.359 113.29 165.214 113.434Z" fill="black"/>
<path d="M124.847 138.513L123.835 140.719L127.053 140.077L124.847 138.513Z" fill="#CC818C"/>
<path opacity="0.1" d="M124.847 138.513L124.014 140.719H123.835L124.847 138.513Z" fill="black"/>
<path opacity="0.1" d="M204.494 238.661C210.74 238.661 215.802 237.966 215.802 237.108C215.802 236.251 210.74 235.556 204.494 235.556C198.249 235.556 193.186 236.251 193.186 237.108C193.186 237.966 198.249 238.661 204.494 238.661Z" fill="#6C63FF"/>
<path opacity="0.1" d="M247.81 243.052C254.055 243.052 259.118 242.357 259.118 241.499C259.118 240.641 254.055 239.946 247.81 239.946C241.565 239.946 236.502 240.641 236.502 241.499C236.502 242.357 241.565 243.052 247.81 243.052Z" fill="#6C63FF"/>
<path opacity="0.1" d="M298.831 237.108C305.076 237.108 310.139 236.412 310.139 235.555C310.139 234.697 305.076 234.002 298.831 234.002C292.586 234.002 287.523 234.697 287.523 235.555C287.523 236.412 292.586 237.108 298.831 237.108Z" fill="#6C63FF"/>
<path opacity="0.1" d="M230.473 255.108C234.911 255.108 238.51 254.614 238.51 254.005C238.51 253.395 234.911 252.901 230.473 252.901C226.034 252.901 222.436 253.395 222.436 254.005C222.436 254.614 226.034 255.108 230.473 255.108Z" fill="#6C63FF"/>
<path opacity="0.1" d="M275.429 254.005C279.868 254.005 283.466 253.511 283.466 252.902C283.466 252.293 279.868 251.799 275.429 251.799C270.99 251.799 267.392 252.293 267.392 252.902C267.392 253.511 270.99 254.005 275.429 254.005Z" fill="#6C63FF"/>
<path d="M248.055 241.151C248.055 241.151 232.196 189.162 250.538 168.338C264.256 152.761 279.831 154.625 286.806 156.55C288.611 157.031 290.29 157.898 291.726 159.092C293.162 160.286 294.322 161.778 295.124 163.465C297.563 168.727 297.124 177.255 279.911 187.231C251.089 203.918 249.296 226.809 249.296 226.809L248.055 241.151Z" fill="#6C63FF"/>
<path d="M284.324 163.926C284.324 163.926 237.575 178.544 248.055 241.152" stroke="#565987" stroke-width="0.275807" stroke-miterlimit="10"/>
<path d="M257.019 169.166C257.019 169.166 263.453 173.504 261.409 180.022" stroke="#565987" stroke-width="0.275807" stroke-miterlimit="10"/>
<path d="M279.635 173.028C279.635 173.028 275.699 169.023 270.908 171.232" stroke="#565987" stroke-width="0.275807" stroke-miterlimit="10"/>
<path d="M261.156 193.162C261.156 193.162 254.244 189.653 252.457 194.047" stroke="#565987" stroke-width="0.275807" stroke-miterlimit="10"/>
<path d="M244.056 200.47C244.056 200.47 249.244 200.056 249.338 202.539" stroke="#565987" stroke-width="0.275807" stroke-miterlimit="10"/>
<path d="M247.427 241.565C247.427 241.565 265.999 203.78 271.102 204.607C273.526 204.999 274.643 207.385 275.148 209.779C275.771 212.878 275.412 216.094 274.122 218.979C271.488 225.022 264.408 236.504 247.427 241.565Z" fill="#6C63FF"/>
<path d="M270.95 211.777C270.95 211.777 251.456 240.048 247.688 241.289" stroke="#565987" stroke-width="0.275807" stroke-miterlimit="10"/>
<path d="M272.743 216.191H268.192" stroke="#565987" stroke-width="0.275807" stroke-miterlimit="10"/>
<path d="M267.293 226.535L260.16 226.841" stroke="#565987" stroke-width="0.275807" stroke-miterlimit="10"/>
<path d="M262.952 218.259L263.727 221.974" stroke="#565987" stroke-width="0.275807" stroke-miterlimit="10"/>
<path d="M255.367 229.568L255.505 232.944" stroke="#565987" stroke-width="0.275807" stroke-miterlimit="10"/>
<path d="M247.978 241.565C247.978 241.565 229.405 203.78 224.303 204.607C221.878 204.999 220.761 207.385 220.257 209.779C219.625 212.875 219.974 216.091 221.255 218.979C223.889 225.022 230.969 236.504 247.978 241.565Z" fill="#6C63FF"/>
<path d="M224.427 211.777C224.427 211.777 243.921 240.048 247.689 241.289" stroke="#565987" stroke-width="0.275807" stroke-miterlimit="10"/>
<path d="M222.632 216.191H227.182" stroke="#565987" stroke-width="0.275807" stroke-miterlimit="10"/>
<path d="M228.084 226.535L235.216 226.841" stroke="#565987" stroke-width="0.275807" stroke-miterlimit="10"/>
<path d="M232.423 218.259L231.65 221.974" stroke="#565987" stroke-width="0.275807" stroke-miterlimit="10"/>
<path d="M240.008 229.568L239.87 232.944" stroke="#565987" stroke-width="0.275807" stroke-miterlimit="10"/>
<path d="M279.856 250.388C280.363 249.977 280.732 249.421 280.915 248.794C281.05 248.16 280.78 247.401 280.176 247.169C279.497 246.91 278.772 247.379 278.223 247.853C277.674 248.328 277.042 248.871 276.323 248.769C276.692 248.434 276.969 248.008 277.125 247.534C277.281 247.06 277.311 246.553 277.213 246.063C277.184 245.86 277.098 245.669 276.965 245.512C276.59 245.109 275.906 245.283 275.454 245.6C274.02 246.61 273.62 248.557 273.614 250.311C273.468 249.676 273.589 249.017 273.587 248.38C273.584 247.743 273.404 247.001 272.858 246.665C272.521 246.478 272.141 246.383 271.755 246.389C271.11 246.367 270.393 246.43 269.951 246.902C269.4 247.487 269.546 248.471 270.023 249.108C270.5 249.745 271.223 250.156 271.888 250.603C272.424 250.92 272.88 251.355 273.222 251.875C273.263 251.946 273.296 252.022 273.322 252.101H277.362C278.267 251.645 279.105 251.069 279.856 250.388Z" fill="#6C63FF"/>
<path d="M209.089 235.173C209.596 234.76 209.964 234.203 210.146 233.576C210.283 232.941 210.013 232.197 209.406 231.951C208.728 231.692 208.005 232.161 207.454 232.638C206.902 233.115 206.273 233.653 205.556 233.554C205.926 233.216 206.201 232.789 206.356 232.313C206.512 231.838 206.541 231.33 206.441 230.84C206.411 230.637 206.325 230.446 206.193 230.288C205.815 229.886 205.134 230.057 204.682 230.374C203.248 231.383 202.848 233.33 202.839 235.085C202.696 234.453 202.817 233.794 202.815 233.154C202.812 232.514 202.633 231.775 202.084 231.436C201.745 231.253 201.365 231.164 200.98 231.176C200.338 231.151 199.618 231.215 199.179 231.687C198.628 232.274 198.774 233.256 199.248 233.893C199.723 234.53 200.448 234.941 201.116 235.388C201.65 235.706 202.105 236.141 202.448 236.659C202.489 236.732 202.522 236.809 202.547 236.888H206.59C207.496 236.431 208.337 235.854 209.089 235.173Z" fill="#6C63FF"/>
<path d="M232.668 250.388C233.175 249.977 233.545 249.421 233.727 248.794C233.862 248.16 233.592 247.401 232.988 247.169C232.31 246.91 231.584 247.379 231.035 247.853C230.487 248.328 229.855 248.871 229.135 248.769C229.505 248.434 229.782 248.008 229.939 247.534C230.095 247.06 230.126 246.553 230.029 246.063C229.999 245.86 229.913 245.669 229.78 245.512C229.405 245.109 228.721 245.283 228.269 245.6C226.835 246.61 226.435 248.557 226.429 250.311C226.283 249.676 226.405 249.017 226.402 248.38C226.399 247.743 226.22 247.001 225.674 246.665C225.336 246.478 224.956 246.383 224.57 246.389C223.925 246.367 223.208 246.43 222.767 246.902C222.215 247.487 222.361 248.471 222.838 249.108C223.316 249.745 224.038 250.156 224.703 250.603C225.239 250.92 225.695 251.355 226.038 251.875C226.078 251.946 226.112 252.022 226.137 252.101H230.178C231.081 251.645 231.919 251.068 232.668 250.388Z" fill="#6C63FF"/>
<path d="M299.554 219.628C299.554 219.628 301.071 221.608 298.856 224.592C296.641 227.577 294.815 230.109 295.546 231.973C295.546 231.973 298.889 226.418 301.614 226.341C304.339 226.264 302.557 222.968 299.554 219.628Z" fill="#6C63FF"/>
<path opacity="0.1" d="M299.554 219.628C299.686 219.819 299.791 220.028 299.863 220.248C302.519 223.365 303.931 226.275 301.38 226.349C299.005 226.416 296.156 230.666 295.472 231.739C295.494 231.821 295.521 231.902 295.552 231.981C295.552 231.981 298.895 226.427 301.62 226.349C304.345 226.272 302.557 222.968 299.554 219.628Z" fill="black"/>
<path d="M302.381 222.152C302.381 222.85 302.304 223.415 302.207 223.415C302.111 223.415 302.036 222.842 302.036 222.152C302.036 221.463 302.133 221.785 302.229 221.785C302.326 221.785 302.381 221.463 302.381 222.152Z" fill="#FFD037"/>
<path d="M303.349 222.984C302.737 223.317 302.201 223.519 302.157 223.436C302.113 223.353 302.568 223.011 303.181 222.678C303.793 222.344 303.553 222.587 303.597 222.678C303.641 222.769 303.967 222.65 303.349 222.984Z" fill="#FFD037"/>
<path d="M291.556 219.628C291.556 219.628 290.039 221.608 292.253 224.592C294.468 227.577 296.294 230.109 295.563 231.973C295.563 231.973 292.223 226.418 289.495 226.341C286.768 226.264 288.571 222.968 291.556 219.628Z" fill="#6C63FF"/>
<path opacity="0.1" d="M291.555 219.628C291.422 219.819 291.317 220.028 291.244 220.248C288.59 223.365 287.178 226.275 289.727 226.349C292.104 226.416 294.967 230.666 295.637 231.739C295.615 231.821 295.588 231.902 295.555 231.981C295.555 231.981 292.215 226.427 289.487 226.349C286.759 226.272 288.571 222.968 291.555 219.628Z" fill="black"/>
<path d="M288.745 222.151C288.745 222.849 288.825 223.415 288.922 223.415C289.018 223.415 289.095 222.849 289.095 222.151C289.095 221.454 288.999 221.784 288.902 221.784C288.806 221.784 288.745 221.462 288.745 222.151Z" fill="#FFD037"/>
<path d="M287.78 222.984C288.392 223.317 288.924 223.519 288.971 223.436C289.018 223.353 288.56 223.011 287.948 222.678C287.336 222.344 287.576 222.587 287.529 222.678C287.482 222.769 287.167 222.65 287.78 222.984Z" fill="#FFD037"/>
<path d="M289.228 231.72C289.228 231.72 293.464 231.591 294.744 230.681C296.024 229.771 301.261 228.687 301.579 230.146C301.896 231.605 307.944 237.397 303.162 237.435C298.379 237.474 292.049 236.691 290.775 235.913C289.501 235.135 289.228 231.72 289.228 231.72Z" fill="#A8A8A8"/>
<path opacity="0.2" d="M303.244 236.931C298.462 236.969 292.129 236.186 290.855 235.408C289.887 234.818 289.498 232.697 289.371 231.718H289.228C289.228 231.718 289.504 235.135 290.772 235.91C292.041 236.685 298.376 237.471 303.159 237.432C304.538 237.432 305.015 236.931 304.99 236.202C304.794 236.646 304.27 236.922 303.244 236.931Z" fill="black"/>
</g>
<path d="M20.4658 315L23.1816 302.15H25.8711L24.8076 307.187H28.9473L30.0107 302.15H32.6914L29.9756 315H27.2861L28.4639 309.454H24.3242L23.1465 315H20.4658ZM37.1562 315.176C36.418 315.176 35.7646 315.023 35.1963 314.719C34.6338 314.414 34.1914 313.98 33.8691 313.418C33.5527 312.85 33.3945 312.176 33.3945 311.396C33.3945 310.699 33.4619 310.034 33.5967 309.401C33.7373 308.763 33.9453 308.177 34.2207 307.644C34.502 307.104 34.8506 306.639 35.2666 306.246C35.6885 305.848 36.1777 305.54 36.7344 305.323C37.291 305.101 37.918 304.989 38.6152 304.989C39.377 304.989 40.0361 305.145 40.5928 305.455C41.1494 305.76 41.5801 306.202 41.8848 306.782C42.1895 307.362 42.3418 308.062 42.3418 308.883C42.3418 309.551 42.2744 310.195 42.1396 310.816C42.0107 311.432 41.8115 312.006 41.542 312.539C41.2725 313.066 40.9326 313.529 40.5225 313.928C40.1123 314.32 39.626 314.628 39.0635 314.851C38.5068 315.067 37.8711 315.176 37.1562 315.176ZM37.376 313.022C37.6689 313.022 37.9355 312.949 38.1758 312.803C38.416 312.65 38.6299 312.442 38.8174 312.179C39.0049 311.909 39.1602 311.602 39.2832 311.256C39.4121 310.904 39.5088 310.526 39.5732 310.122C39.6436 309.718 39.6787 309.305 39.6787 308.883C39.6787 308.549 39.6377 308.253 39.5557 307.995C39.4795 307.731 39.3477 307.526 39.1602 307.38C38.9785 307.228 38.7324 307.151 38.4219 307.151C38.0996 307.151 37.8096 307.242 37.5518 307.424C37.2998 307.6 37.0801 307.837 36.8926 308.136C36.7051 308.435 36.5498 308.769 36.4268 309.138C36.3037 309.507 36.21 309.888 36.1455 310.28C36.0869 310.667 36.0576 311.039 36.0576 311.396C36.0576 311.93 36.166 312.334 36.3828 312.609C36.5996 312.885 36.9307 313.022 37.376 313.022ZM43.458 315L45.541 305.174H47.5625L47.3779 306.993H47.457C47.709 306.601 47.9873 306.255 48.292 305.956C48.5967 305.657 48.9336 305.423 49.3027 305.253C49.6777 305.077 50.0938 304.989 50.5508 304.989C51.2246 304.989 51.7461 305.168 52.1152 305.525C52.4902 305.877 52.7363 306.366 52.8535 306.993H52.9238C53.1699 306.601 53.4482 306.255 53.7588 305.956C54.0693 305.657 54.415 305.423 54.7959 305.253C55.1826 305.077 55.6016 304.989 56.0527 304.989C56.873 304.989 57.4854 305.244 57.8896 305.754C58.2998 306.264 58.5049 306.952 58.5049 307.819C58.5049 308.036 58.4873 308.279 58.4521 308.549C58.417 308.818 58.3672 309.103 58.3027 309.401L57.1338 315H54.4883L55.7012 309.261C55.748 309.062 55.7832 308.874 55.8066 308.698C55.8301 308.522 55.8418 308.361 55.8418 308.215C55.8418 307.846 55.7686 307.573 55.6221 307.397C55.4814 307.222 55.2676 307.134 54.9805 307.134C54.6758 307.134 54.3945 307.23 54.1367 307.424C53.8789 307.617 53.6445 307.887 53.4336 308.232C53.2227 308.578 53.0352 308.979 52.8711 309.437C52.7129 309.894 52.5811 310.386 52.4756 310.913L51.6318 315H48.9863L50.1904 309.261C50.2373 309.062 50.2725 308.874 50.2959 308.698C50.3193 308.522 50.3311 308.361 50.3311 308.215C50.3311 307.846 50.2578 307.573 50.1113 307.397C49.9707 307.222 49.7568 307.134 49.4697 307.134C49.1709 307.134 48.8926 307.233 48.6348 307.433C48.377 307.632 48.1426 307.907 47.9316 308.259C47.7207 308.604 47.5332 309.006 47.3691 309.463C47.2109 309.92 47.0762 310.409 46.9648 310.931L46.1035 315H43.458ZM64.1035 315.176C63.3359 315.176 62.6592 315.038 62.0732 314.763C61.4932 314.481 61.0391 314.06 60.7109 313.497C60.3828 312.935 60.2188 312.229 60.2188 311.379C60.2188 310.559 60.3359 309.768 60.5703 309.006C60.8047 308.238 61.1533 307.553 61.6162 306.949C62.085 306.346 62.6592 305.868 63.3389 305.517C64.0244 305.165 64.8154 304.989 65.7119 304.989C66.8135 304.989 67.6367 305.241 68.1816 305.745C68.7324 306.243 69.0078 306.885 69.0078 307.67C69.0078 308.186 68.8906 308.654 68.6562 309.076C68.4277 309.498 68.0791 309.861 67.6104 310.166C67.1416 310.465 66.5527 310.696 65.8438 310.86C65.1348 311.019 64.3027 311.098 63.3477 311.098H62.8994C62.8936 311.168 62.8877 311.229 62.8818 311.282C62.8818 311.335 62.8818 311.394 62.8818 311.458C62.8818 311.985 63.0342 312.404 63.3389 312.715C63.6436 313.025 64.0742 313.181 64.6309 313.181C65.1465 313.181 65.6152 313.122 66.0371 313.005C66.459 312.888 66.957 312.694 67.5312 312.425V314.42C67.0156 314.672 66.4912 314.862 65.958 314.991C65.4248 315.114 64.8066 315.176 64.1035 315.176ZM63.1895 309.313H63.585C64.2646 309.313 64.8154 309.24 65.2373 309.094C65.665 308.947 65.9756 308.754 66.1689 308.514C66.3682 308.273 66.4678 308.013 66.4678 307.731C66.4678 307.45 66.3857 307.242 66.2217 307.107C66.0635 306.967 65.8379 306.896 65.5449 306.896C65.2168 306.896 64.8916 306.999 64.5693 307.204C64.2471 307.409 63.9629 307.693 63.7168 308.057C63.4707 308.42 63.2949 308.839 63.1895 309.313ZM76.1533 315L75.7578 302.15H78.2803L78.333 309.164C78.333 309.615 78.3242 310.119 78.3066 310.676C78.2891 311.232 78.2568 311.745 78.21 312.214H78.2803C78.4443 311.745 78.626 311.244 78.8252 310.711C79.0303 310.172 79.2148 309.718 79.3789 309.349L82.6221 302.15H84.9951L85.1709 309.349C85.1826 309.653 85.1826 310.087 85.1709 310.649C85.1592 311.206 85.1357 311.728 85.1006 312.214H85.1709C85.2822 311.88 85.4023 311.528 85.5312 311.159C85.666 310.79 85.8008 310.43 85.9355 310.078C86.0703 309.727 86.1934 309.416 86.3047 309.146L89.2051 302.15H91.9209L86.2344 315H83.1934L83.0527 309.146C83.041 308.625 83.0322 308.194 83.0264 307.854C83.0205 307.509 83.0176 307.198 83.0176 306.923C83.0176 306.647 83.0234 306.357 83.0352 306.053H82.9648C82.8125 306.533 82.6543 306.99 82.4902 307.424C82.3262 307.857 82.1533 308.276 81.9717 308.681L79.124 315H76.1533ZM94.7949 315.176C94.0566 315.176 93.4033 315.023 92.835 314.719C92.2725 314.414 91.8301 313.98 91.5078 313.418C91.1914 312.85 91.0332 312.176 91.0332 311.396C91.0332 310.699 91.1006 310.034 91.2354 309.401C91.376 308.763 91.584 308.177 91.8594 307.644C92.1406 307.104 92.4893 306.639 92.9053 306.246C93.3271 305.848 93.8164 305.54 94.373 305.323C94.9297 305.101 95.5566 304.989 96.2539 304.989C97.0156 304.989 97.6748 305.145 98.2314 305.455C98.7881 305.76 99.2188 306.202 99.5234 306.782C99.8281 307.362 99.9805 308.062 99.9805 308.883C99.9805 309.551 99.9131 310.195 99.7783 310.816C99.6494 311.432 99.4502 312.006 99.1807 312.539C98.9111 313.066 98.5713 313.529 98.1611 313.928C97.751 314.32 97.2646 314.628 96.7021 314.851C96.1455 315.067 95.5098 315.176 94.7949 315.176ZM95.0146 313.022C95.3076 313.022 95.5742 312.949 95.8145 312.803C96.0547 312.65 96.2686 312.442 96.4561 312.179C96.6436 311.909 96.7988 311.602 96.9219 311.256C97.0508 310.904 97.1475 310.526 97.2119 310.122C97.2822 309.718 97.3174 309.305 97.3174 308.883C97.3174 308.549 97.2764 308.253 97.1943 307.995C97.1182 307.731 96.9863 307.526 96.7988 307.38C96.6172 307.228 96.3711 307.151 96.0605 307.151C95.7383 307.151 95.4482 307.242 95.1904 307.424C94.9385 307.6 94.7188 307.837 94.5312 308.136C94.3438 308.435 94.1885 308.769 94.0654 309.138C93.9424 309.507 93.8486 309.888 93.7842 310.28C93.7256 310.667 93.6963 311.039 93.6963 311.396C93.6963 311.93 93.8047 312.334 94.0215 312.609C94.2383 312.885 94.5693 313.022 95.0146 313.022ZM101.097 315L103.18 305.174H105.201L105.017 306.993H105.113C105.377 306.577 105.664 306.22 105.975 305.921C106.285 305.622 106.622 305.394 106.985 305.235C107.349 305.071 107.744 304.989 108.172 304.989C108.312 304.989 108.462 304.998 108.62 305.016C108.784 305.033 108.916 305.057 109.016 305.086L108.436 307.635C108.342 307.6 108.216 307.567 108.058 307.538C107.905 307.509 107.738 307.494 107.557 307.494C107.229 307.494 106.915 307.562 106.616 307.696C106.317 307.825 106.042 308.019 105.79 308.276C105.538 308.534 105.315 308.859 105.122 309.252C104.935 309.639 104.785 310.09 104.674 310.605L103.742 315H101.097ZM108.673 315L111.573 301.324H114.219L112.918 307.424C112.877 307.617 112.821 307.84 112.751 308.092C112.681 308.344 112.61 308.584 112.54 308.812C112.47 309.035 112.417 309.214 112.382 309.349H112.452L116.434 305.174H119.457L115.08 309.604L117.585 315H114.632L113.023 311.309L111.969 311.941L111.318 315H108.673ZM123.131 315.176C122.393 315.176 121.739 315.023 121.171 314.719C120.608 314.414 120.166 313.98 119.844 313.418C119.527 312.85 119.369 312.176 119.369 311.396C119.369 310.699 119.437 310.034 119.571 309.401C119.712 308.763 119.92 308.177 120.195 307.644C120.477 307.104 120.825 306.639 121.241 306.246C121.663 305.848 122.152 305.54 122.709 305.323C123.266 305.101 123.893 304.989 124.59 304.989C125.352 304.989 126.011 305.145 126.567 305.455C127.124 305.76 127.555 306.202 127.859 306.782C128.164 307.362 128.316 308.062 128.316 308.883C128.316 309.551 128.249 310.195 128.114 310.816C127.985 311.432 127.786 312.006 127.517 312.539C127.247 313.066 126.907 313.529 126.497 313.928C126.087 314.32 125.601 314.628 125.038 314.851C124.481 315.067 123.846 315.176 123.131 315.176ZM123.351 313.022C123.644 313.022 123.91 312.949 124.15 312.803C124.391 312.65 124.604 312.442 124.792 312.179C124.979 311.909 125.135 311.602 125.258 311.256C125.387 310.904 125.483 310.526 125.548 310.122C125.618 309.718 125.653 309.305 125.653 308.883C125.653 308.549 125.612 308.253 125.53 307.995C125.454 307.731 125.322 307.526 125.135 307.38C124.953 307.228 124.707 307.151 124.396 307.151C124.074 307.151 123.784 307.242 123.526 307.424C123.274 307.6 123.055 307.837 122.867 308.136C122.68 308.435 122.524 308.769 122.401 309.138C122.278 309.507 122.185 309.888 122.12 310.28C122.062 310.667 122.032 311.039 122.032 311.396C122.032 311.93 122.141 312.334 122.357 312.609C122.574 312.885 122.905 313.022 123.351 313.022ZM132.579 315.176C132.017 315.176 131.551 315.062 131.182 314.833C130.812 314.604 130.537 314.279 130.355 313.857C130.174 313.43 130.083 312.929 130.083 312.354C130.083 312.138 130.101 311.859 130.136 311.52C130.171 311.18 130.224 310.834 130.294 310.482L131.41 305.174H134.056L132.852 310.913C132.811 311.112 132.775 311.3 132.746 311.476C132.723 311.651 132.711 311.812 132.711 311.959C132.711 312.328 132.79 312.601 132.948 312.776C133.106 312.952 133.344 313.04 133.66 313.04C134.064 313.04 134.425 312.87 134.741 312.53C135.063 312.185 135.345 311.725 135.585 311.15C135.825 310.57 136.019 309.935 136.165 309.243L137.026 305.174H139.672L137.589 315H135.567L135.752 313.181H135.655C135.403 313.567 135.125 313.913 134.82 314.218C134.521 314.517 134.188 314.751 133.818 314.921C133.449 315.091 133.036 315.176 132.579 315.176ZM143.592 315.176C142.812 315.176 142.191 315.012 141.729 314.684C141.266 314.355 141.034 313.764 141.034 312.908C141.034 312.768 141.043 312.615 141.061 312.451C141.078 312.281 141.104 312.105 141.14 311.924L142.15 307.187H140.814L141.069 305.895L142.792 305.156L143.952 303.082H145.657L145.227 305.174H147.714L147.274 307.187H144.796L143.785 311.924C143.768 312.012 143.753 312.1 143.741 312.188C143.735 312.27 143.732 312.337 143.732 312.39C143.732 312.624 143.803 312.791 143.943 312.891C144.084 312.99 144.271 313.04 144.506 313.04C144.746 313.04 144.975 313.014 145.191 312.961C145.414 312.902 145.66 312.826 145.93 312.732V314.71C145.648 314.845 145.309 314.956 144.91 315.044C144.518 315.132 144.078 315.176 143.592 315.176ZM150.518 315.176C149.891 315.176 149.343 315.132 148.874 315.044C148.411 314.956 147.978 314.81 147.573 314.604V312.425C148.013 312.677 148.464 312.873 148.927 313.014C149.396 313.148 149.879 313.216 150.377 313.216C150.652 313.216 150.91 313.178 151.15 313.102C151.396 313.025 151.596 312.908 151.748 312.75C151.9 312.592 151.977 312.393 151.977 312.152C151.977 311.988 151.938 311.842 151.862 311.713C151.786 311.584 151.64 311.443 151.423 311.291C151.212 311.133 150.904 310.942 150.5 310.72C150.096 310.491 149.75 310.257 149.463 310.017C149.182 309.776 148.965 309.504 148.812 309.199C148.666 308.895 148.593 308.537 148.593 308.127C148.593 307.447 148.742 306.876 149.041 306.413C149.34 305.944 149.768 305.59 150.324 305.35C150.887 305.109 151.558 304.989 152.337 304.989C152.905 304.989 153.453 305.054 153.98 305.183C154.508 305.312 155.023 305.525 155.527 305.824L154.657 307.714C154.312 307.503 153.942 307.327 153.55 307.187C153.163 307.046 152.776 306.976 152.39 306.976C152.103 306.976 151.845 307.043 151.616 307.178C151.388 307.312 151.273 307.521 151.273 307.802C151.273 307.954 151.314 308.095 151.396 308.224C151.479 308.347 151.616 308.473 151.81 308.602C152.009 308.73 152.275 308.883 152.609 309.059C153.008 309.264 153.359 309.492 153.664 309.744C153.975 309.99 154.218 310.277 154.394 310.605C154.569 310.928 154.657 311.312 154.657 311.757C154.657 312.507 154.487 313.137 154.147 313.646C153.808 314.15 153.327 314.531 152.706 314.789C152.091 315.047 151.361 315.176 150.518 315.176ZM160.177 319.324C159.896 319.324 159.617 319.301 159.342 319.254C159.061 319.213 158.829 319.163 158.647 319.104V316.978C158.835 317.042 159.008 317.089 159.166 317.118C159.324 317.147 159.488 317.162 159.658 317.162C160.016 317.162 160.329 317.042 160.599 316.802C160.868 316.567 161.059 316.189 161.17 315.668L162.963 307.187H161.53L161.794 305.912L163.402 305.174L163.561 304.436C163.689 303.838 163.859 303.334 164.07 302.924C164.287 302.514 164.545 302.186 164.844 301.939C165.143 301.688 165.485 301.506 165.872 301.395C166.265 301.283 166.701 301.228 167.182 301.228C167.586 301.228 167.958 301.266 168.298 301.342C168.644 301.418 168.96 301.523 169.247 301.658L168.544 303.627C168.374 303.551 168.195 303.486 168.008 303.434C167.82 303.381 167.609 303.354 167.375 303.354C167.041 303.354 166.771 303.472 166.566 303.706C166.361 303.94 166.224 304.248 166.153 304.629L166.048 305.174H167.973L167.542 307.187H165.608L163.719 316.063C163.596 316.661 163.396 317.206 163.121 317.698C162.852 318.196 162.477 318.592 161.996 318.885C161.521 319.178 160.915 319.324 160.177 319.324ZM171.84 315.176C171.102 315.176 170.448 315.023 169.88 314.719C169.317 314.414 168.875 313.98 168.553 313.418C168.236 312.85 168.078 312.176 168.078 311.396C168.078 310.699 168.146 310.034 168.28 309.401C168.421 308.763 168.629 308.177 168.904 307.644C169.186 307.104 169.534 306.639 169.95 306.246C170.372 305.848 170.861 305.54 171.418 305.323C171.975 305.101 172.602 304.989 173.299 304.989C174.061 304.989 174.72 305.145 175.276 305.455C175.833 305.76 176.264 306.202 176.568 306.782C176.873 307.362 177.025 308.062 177.025 308.883C177.025 309.551 176.958 310.195 176.823 310.816C176.694 311.432 176.495 312.006 176.226 312.539C175.956 313.066 175.616 313.529 175.206 313.928C174.796 314.32 174.31 314.628 173.747 314.851C173.19 315.067 172.555 315.176 171.84 315.176ZM172.06 313.022C172.353 313.022 172.619 312.949 172.859 312.803C173.1 312.65 173.313 312.442 173.501 312.179C173.688 311.909 173.844 311.602 173.967 311.256C174.096 310.904 174.192 310.526 174.257 310.122C174.327 309.718 174.362 309.305 174.362 308.883C174.362 308.549 174.321 308.253 174.239 307.995C174.163 307.731 174.031 307.526 173.844 307.38C173.662 307.228 173.416 307.151 173.105 307.151C172.783 307.151 172.493 307.242 172.235 307.424C171.983 307.6 171.764 307.837 171.576 308.136C171.389 308.435 171.233 308.769 171.11 309.138C170.987 309.507 170.894 309.888 170.829 310.28C170.771 310.667 170.741 311.039 170.741 311.396C170.741 311.93 170.85 312.334 171.066 312.609C171.283 312.885 171.614 313.022 172.06 313.022ZM178.142 315L180.225 305.174H182.246L182.062 306.993H182.158C182.422 306.577 182.709 306.22 183.02 305.921C183.33 305.622 183.667 305.394 184.03 305.235C184.394 305.071 184.789 304.989 185.217 304.989C185.357 304.989 185.507 304.998 185.665 305.016C185.829 305.033 185.961 305.057 186.061 305.086L185.48 307.635C185.387 307.6 185.261 307.567 185.103 307.538C184.95 307.509 184.783 307.494 184.602 307.494C184.273 307.494 183.96 307.562 183.661 307.696C183.362 307.825 183.087 308.019 182.835 308.276C182.583 308.534 182.36 308.859 182.167 309.252C181.979 309.639 181.83 310.09 181.719 310.605L180.787 315H178.142ZM189.471 319.324L192.477 305.174H194.498L194.349 306.668H194.428C194.633 306.387 194.87 306.117 195.14 305.859C195.409 305.602 195.717 305.394 196.062 305.235C196.408 305.071 196.792 304.989 197.214 304.989C197.688 304.989 198.137 305.106 198.559 305.341C198.98 305.575 199.323 305.956 199.587 306.483C199.851 307.005 199.982 307.702 199.982 308.575C199.982 309.214 199.912 309.85 199.771 310.482C199.637 311.109 199.438 311.707 199.174 312.275C198.916 312.838 198.6 313.339 198.225 313.778C197.855 314.212 197.437 314.555 196.968 314.807C196.499 315.053 195.986 315.176 195.43 315.176C195.031 315.176 194.694 315.114 194.419 314.991C194.144 314.862 193.909 314.689 193.716 314.473C193.528 314.256 193.355 314.013 193.197 313.743H193.127C193.092 314.218 193.045 314.654 192.986 315.053C192.928 315.457 192.849 315.885 192.749 316.336L192.116 319.324H189.471ZM194.981 313.04C195.239 313.04 195.485 312.958 195.72 312.794C195.954 312.624 196.168 312.396 196.361 312.108C196.555 311.815 196.722 311.484 196.862 311.115C197.003 310.74 197.111 310.345 197.188 309.929C197.264 309.513 197.302 309.097 197.302 308.681C197.302 308.165 197.205 307.778 197.012 307.521C196.824 307.263 196.537 307.134 196.15 307.134C195.869 307.134 195.611 307.207 195.377 307.354C195.148 307.5 194.946 307.696 194.771 307.942C194.595 308.188 194.442 308.467 194.313 308.777C194.185 309.082 194.079 309.398 193.997 309.727C193.915 310.055 193.854 310.371 193.812 310.676C193.777 310.98 193.76 311.253 193.76 311.493C193.76 311.956 193.868 312.331 194.085 312.618C194.308 312.899 194.606 313.04 194.981 313.04ZM201.116 315L204.017 301.324H206.662L206.152 303.697C206.1 303.967 206.026 304.274 205.933 304.62C205.845 304.96 205.751 305.297 205.651 305.631C205.552 305.959 205.461 306.243 205.379 306.483H205.449C205.689 306.185 205.947 305.924 206.223 305.701C206.504 305.473 206.809 305.297 207.137 305.174C207.465 305.051 207.822 304.989 208.209 304.989C208.771 304.989 209.24 305.106 209.615 305.341C209.996 305.569 210.28 305.895 210.468 306.316C210.655 306.738 210.749 307.239 210.749 307.819C210.749 308.036 210.731 308.279 210.696 308.549C210.661 308.818 210.611 309.103 210.547 309.401L209.378 315H206.732L207.937 309.261C207.983 309.062 208.019 308.874 208.042 308.698C208.065 308.522 208.077 308.361 208.077 308.215C208.077 307.846 207.998 307.573 207.84 307.397C207.682 307.222 207.444 307.134 207.128 307.134C206.729 307.134 206.369 307.307 206.047 307.652C205.725 307.992 205.443 308.449 205.203 309.023C204.969 309.598 204.775 310.233 204.623 310.931L203.762 315H201.116ZM211.725 319.324C211.408 319.324 211.15 319.307 210.951 319.271C210.746 319.236 210.573 319.198 210.433 319.157V317.048C210.585 317.077 210.743 317.104 210.907 317.127C211.065 317.15 211.247 317.162 211.452 317.162C212.009 317.162 212.469 316.998 212.832 316.67C213.195 316.348 213.512 315.935 213.781 315.431L214.01 315L212.568 305.174H215.161L215.653 309.727C215.683 309.996 215.703 310.286 215.715 310.597C215.732 310.901 215.744 311.203 215.75 311.502C215.756 311.801 215.759 312.067 215.759 312.302H215.829C215.911 312.103 215.993 311.88 216.075 311.634C216.163 311.388 216.263 311.121 216.374 310.834C216.491 310.541 216.629 310.23 216.787 309.902L219.072 305.174H221.946L215.97 316.406C215.618 317.068 215.223 317.616 214.783 318.05C214.35 318.483 213.878 318.803 213.368 319.008C212.858 319.219 212.311 319.324 211.725 319.324ZM224.17 315.176C223.543 315.176 222.995 315.132 222.526 315.044C222.063 314.956 221.63 314.81 221.226 314.604V312.425C221.665 312.677 222.116 312.873 222.579 313.014C223.048 313.148 223.531 313.216 224.029 313.216C224.305 313.216 224.562 313.178 224.803 313.102C225.049 313.025 225.248 312.908 225.4 312.75C225.553 312.592 225.629 312.393 225.629 312.152C225.629 311.988 225.591 311.842 225.515 311.713C225.438 311.584 225.292 311.443 225.075 311.291C224.864 311.133 224.557 310.942 224.152 310.72C223.748 310.491 223.402 310.257 223.115 310.017C222.834 309.776 222.617 309.504 222.465 309.199C222.318 308.895 222.245 308.537 222.245 308.127C222.245 307.447 222.395 306.876 222.693 306.413C222.992 305.944 223.42 305.59 223.977 305.35C224.539 305.109 225.21 304.989 225.989 304.989C226.558 304.989 227.105 305.054 227.633 305.183C228.16 305.312 228.676 305.525 229.18 305.824L228.31 307.714C227.964 307.503 227.595 307.327 227.202 307.187C226.815 307.046 226.429 306.976 226.042 306.976C225.755 306.976 225.497 307.043 225.269 307.178C225.04 307.312 224.926 307.521 224.926 307.802C224.926 307.954 224.967 308.095 225.049 308.224C225.131 308.347 225.269 308.473 225.462 308.602C225.661 308.73 225.928 308.883 226.262 309.059C226.66 309.264 227.012 309.492 227.316 309.744C227.627 309.99 227.87 310.277 228.046 310.605C228.222 310.928 228.31 311.312 228.31 311.757C228.31 312.507 228.14 313.137 227.8 313.646C227.46 314.15 226.979 314.531 226.358 314.789C225.743 315.047 225.014 315.176 224.17 315.176ZM229.874 315L231.957 305.174H234.603L232.52 315H229.874ZM233.706 303.952C233.331 303.952 233.015 303.87 232.757 303.706C232.505 303.542 232.379 303.264 232.379 302.871C232.379 302.531 232.44 302.247 232.563 302.019C232.692 301.79 232.877 301.617 233.117 301.5C233.357 301.383 233.645 301.324 233.979 301.324C234.33 301.324 234.635 301.4 234.893 301.553C235.156 301.705 235.288 301.98 235.288 302.379C235.288 302.848 235.159 303.229 234.901 303.521C234.644 303.809 234.245 303.952 233.706 303.952ZM239.34 315.176C238.66 315.176 238.042 315.056 237.485 314.815C236.935 314.569 236.495 314.183 236.167 313.655C235.845 313.122 235.684 312.425 235.684 311.563C235.684 310.854 235.757 310.175 235.903 309.524C236.05 308.874 236.267 308.273 236.554 307.723C236.841 307.172 237.195 306.694 237.617 306.29C238.039 305.88 238.522 305.561 239.067 305.332C239.612 305.104 240.219 304.989 240.887 304.989C241.473 304.989 241.997 305.045 242.46 305.156C242.929 305.268 243.365 305.423 243.77 305.622L242.961 307.635C242.645 307.5 242.334 307.383 242.029 307.283C241.725 307.184 241.379 307.134 240.992 307.134C240.576 307.134 240.204 307.254 239.876 307.494C239.554 307.734 239.278 308.057 239.05 308.461C238.827 308.865 238.657 309.319 238.54 309.823C238.423 310.321 238.364 310.828 238.364 311.344C238.364 311.713 238.423 312.023 238.54 312.275C238.663 312.527 238.836 312.718 239.059 312.847C239.287 312.976 239.56 313.04 239.876 313.04C240.321 313.04 240.734 312.973 241.115 312.838C241.496 312.697 241.889 312.524 242.293 312.319V314.481C241.883 314.698 241.44 314.868 240.966 314.991C240.491 315.114 239.949 315.176 239.34 315.176ZM247.162 315.176C246.688 315.176 246.239 315.059 245.817 314.824C245.396 314.59 245.05 314.212 244.78 313.69C244.517 313.169 244.385 312.478 244.385 311.616C244.385 310.972 244.452 310.333 244.587 309.7C244.728 309.067 244.927 308.47 245.185 307.907C245.448 307.339 245.765 306.838 246.134 306.404C246.509 305.965 246.931 305.619 247.399 305.367C247.874 305.115 248.387 304.989 248.938 304.989C249.354 304.989 249.717 305.051 250.027 305.174C250.338 305.291 250.604 305.458 250.827 305.675C251.05 305.892 251.231 306.144 251.372 306.431H251.442L251.943 305.174H253.982L251.891 315H249.913L250.036 313.726H249.966C249.731 314.013 249.477 314.265 249.201 314.481C248.926 314.698 248.621 314.868 248.287 314.991C247.953 315.114 247.578 315.176 247.162 315.176ZM248.199 313.04C248.562 313.04 248.899 312.899 249.21 312.618C249.521 312.331 249.787 311.959 250.01 311.502C250.232 311.045 250.391 310.562 250.484 310.052C250.531 309.817 250.563 309.583 250.581 309.349C250.604 309.108 250.616 308.851 250.616 308.575C250.616 308.159 250.505 307.816 250.282 307.547C250.065 307.271 249.767 307.134 249.386 307.134C249.128 307.134 248.882 307.219 248.647 307.389C248.419 307.553 248.208 307.781 248.015 308.074C247.821 308.361 247.651 308.692 247.505 309.067C247.364 309.437 247.256 309.829 247.18 310.245C247.104 310.661 247.065 311.077 247.065 311.493C247.065 312.003 247.165 312.39 247.364 312.653C247.563 312.911 247.842 313.04 248.199 313.04ZM254.624 315L257.524 301.324H260.17L257.27 315H254.624ZM263.923 319.324C263.642 319.324 263.363 319.301 263.088 319.254C262.807 319.213 262.575 319.163 262.394 319.104V316.978C262.581 317.042 262.754 317.089 262.912 317.118C263.07 317.147 263.234 317.162 263.404 317.162C263.762 317.162 264.075 317.042 264.345 316.802C264.614 316.567 264.805 316.189 264.916 315.668L266.709 307.187H265.276L265.54 305.912L267.148 305.174L267.307 304.436C267.436 303.838 267.605 303.334 267.816 302.924C268.033 302.514 268.291 302.186 268.59 301.939C268.889 301.688 269.231 301.506 269.618 301.395C270.011 301.283 270.447 301.228 270.928 301.228C271.332 301.228 271.704 301.266 272.044 301.342C272.39 301.418 272.706 301.523 272.993 301.658L272.29 303.627C272.12 303.551 271.941 303.486 271.754 303.434C271.566 303.381 271.355 303.354 271.121 303.354C270.787 303.354 270.518 303.472 270.312 303.706C270.107 303.94 269.97 304.248 269.899 304.629L269.794 305.174H271.719L271.288 307.187H269.354L267.465 316.063C267.342 316.661 267.143 317.206 266.867 317.698C266.598 318.196 266.223 318.592 265.742 318.885C265.268 319.178 264.661 319.324 263.923 319.324ZM271.358 315L273.441 305.174H276.087L274.004 315H271.358ZM275.19 303.952C274.815 303.952 274.499 303.87 274.241 303.706C273.989 303.542 273.863 303.264 273.863 302.871C273.863 302.531 273.925 302.247 274.048 302.019C274.177 301.79 274.361 301.617 274.602 301.5C274.842 301.383 275.129 301.324 275.463 301.324C275.814 301.324 276.119 301.4 276.377 301.553C276.641 301.705 276.772 301.98 276.772 302.379C276.772 302.848 276.644 303.229 276.386 303.521C276.128 303.809 275.729 303.952 275.19 303.952ZM279.98 315.176C279.201 315.176 278.58 315.012 278.117 314.684C277.654 314.355 277.423 313.764 277.423 312.908C277.423 312.768 277.432 312.615 277.449 312.451C277.467 312.281 277.493 312.105 277.528 311.924L278.539 307.187H277.203L277.458 305.895L279.181 305.156L280.341 303.082H282.046L281.615 305.174H284.103L283.663 307.187H281.185L280.174 311.924C280.156 312.012 280.142 312.1 280.13 312.188C280.124 312.27 280.121 312.337 280.121 312.39C280.121 312.624 280.191 312.791 280.332 312.891C280.473 312.99 280.66 313.04 280.895 313.04C281.135 313.04 281.363 313.014 281.58 312.961C281.803 312.902 282.049 312.826 282.318 312.732V314.71C282.037 314.845 281.697 314.956 281.299 315.044C280.906 315.132 280.467 315.176 279.98 315.176ZM284.085 315L286.168 305.174H288.189L288.005 306.993H288.084C288.336 306.601 288.614 306.255 288.919 305.956C289.224 305.657 289.561 305.423 289.93 305.253C290.305 305.077 290.721 304.989 291.178 304.989C291.74 304.989 292.209 305.106 292.584 305.341C292.965 305.569 293.249 305.895 293.437 306.316C293.624 306.738 293.718 307.239 293.718 307.819C293.718 308.036 293.7 308.279 293.665 308.549C293.63 308.818 293.58 309.103 293.516 309.401L292.347 315H289.701L290.905 309.261C290.952 309.062 290.987 308.874 291.011 308.698C291.034 308.522 291.046 308.361 291.046 308.215C291.046 307.846 290.967 307.573 290.809 307.397C290.65 307.222 290.413 307.134 290.097 307.134C289.698 307.134 289.338 307.307 289.016 307.652C288.693 307.992 288.412 308.449 288.172 309.023C287.938 309.598 287.744 310.233 287.592 310.931L286.73 315H284.085ZM299.316 315.176C298.549 315.176 297.872 315.038 297.286 314.763C296.706 314.481 296.252 314.06 295.924 313.497C295.596 312.935 295.432 312.229 295.432 311.379C295.432 310.559 295.549 309.768 295.783 309.006C296.018 308.238 296.366 307.553 296.829 306.949C297.298 306.346 297.872 305.868 298.552 305.517C299.237 305.165 300.028 304.989 300.925 304.989C302.026 304.989 302.85 305.241 303.395 305.745C303.945 306.243 304.221 306.885 304.221 307.67C304.221 308.186 304.104 308.654 303.869 309.076C303.641 309.498 303.292 309.861 302.823 310.166C302.354 310.465 301.766 310.696 301.057 310.86C300.348 311.019 299.516 311.098 298.561 311.098H298.112C298.106 311.168 298.101 311.229 298.095 311.282C298.095 311.335 298.095 311.394 298.095 311.458C298.095 311.985 298.247 312.404 298.552 312.715C298.856 313.025 299.287 313.181 299.844 313.181C300.359 313.181 300.828 313.122 301.25 313.005C301.672 312.888 302.17 312.694 302.744 312.425V314.42C302.229 314.672 301.704 314.862 301.171 314.991C300.638 315.114 300.02 315.176 299.316 315.176ZM298.402 309.313H298.798C299.478 309.313 300.028 309.24 300.45 309.094C300.878 308.947 301.188 308.754 301.382 308.514C301.581 308.273 301.681 308.013 301.681 307.731C301.681 307.45 301.599 307.242 301.435 307.107C301.276 306.967 301.051 306.896 300.758 306.896C300.43 306.896 300.104 306.999 299.782 307.204C299.46 307.409 299.176 307.693 298.93 308.057C298.684 308.42 298.508 308.839 298.402 309.313ZM307.824 315.176C307.197 315.176 306.649 315.132 306.181 315.044C305.718 314.956 305.284 314.81 304.88 314.604V312.425C305.319 312.677 305.771 312.873 306.233 313.014C306.702 313.148 307.186 313.216 307.684 313.216C307.959 313.216 308.217 313.178 308.457 313.102C308.703 313.025 308.902 312.908 309.055 312.75C309.207 312.592 309.283 312.393 309.283 312.152C309.283 311.988 309.245 311.842 309.169 311.713C309.093 311.584 308.946 311.443 308.729 311.291C308.519 311.133 308.211 310.942 307.807 310.72C307.402 310.491 307.057 310.257 306.77 310.017C306.488 309.776 306.271 309.504 306.119 309.199C305.973 308.895 305.899 308.537 305.899 308.127C305.899 307.447 306.049 306.876 306.348 306.413C306.646 305.944 307.074 305.59 307.631 305.35C308.193 305.109 308.864 304.989 309.644 304.989C310.212 304.989 310.76 305.054 311.287 305.183C311.814 305.312 312.33 305.525 312.834 305.824L311.964 307.714C311.618 307.503 311.249 307.327 310.856 307.187C310.47 307.046 310.083 306.976 309.696 306.976C309.409 306.976 309.151 307.043 308.923 307.178C308.694 307.312 308.58 307.521 308.58 307.802C308.58 307.954 308.621 308.095 308.703 308.224C308.785 308.347 308.923 308.473 309.116 308.602C309.315 308.73 309.582 308.883 309.916 309.059C310.314 309.264 310.666 309.492 310.971 309.744C311.281 309.99 311.524 310.277 311.7 310.605C311.876 310.928 311.964 311.312 311.964 311.757C311.964 312.507 311.794 313.137 311.454 313.646C311.114 314.15 310.634 314.531 310.013 314.789C309.397 315.047 308.668 315.176 307.824 315.176ZM316.35 315.176C315.723 315.176 315.175 315.132 314.706 315.044C314.243 314.956 313.81 314.81 313.405 314.604V312.425C313.845 312.677 314.296 312.873 314.759 313.014C315.228 313.148 315.711 313.216 316.209 313.216C316.484 313.216 316.742 313.178 316.982 313.102C317.229 313.025 317.428 312.908 317.58 312.75C317.732 312.592 317.809 312.393 317.809 312.152C317.809 311.988 317.771 311.842 317.694 311.713C317.618 311.584 317.472 311.443 317.255 311.291C317.044 311.133 316.736 310.942 316.332 310.72C315.928 310.491 315.582 310.257 315.295 310.017C315.014 309.776 314.797 309.504 314.645 309.199C314.498 308.895 314.425 308.537 314.425 308.127C314.425 307.447 314.574 306.876 314.873 306.413C315.172 305.944 315.6 305.59 316.156 305.35C316.719 305.109 317.39 304.989 318.169 304.989C318.737 304.989 319.285 305.054 319.812 305.183C320.34 305.312 320.855 305.525 321.359 305.824L320.489 307.714C320.144 307.503 319.774 307.327 319.382 307.187C318.995 307.046 318.608 306.976 318.222 306.976C317.935 306.976 317.677 307.043 317.448 307.178C317.22 307.312 317.105 307.521 317.105 307.802C317.105 307.954 317.146 308.095 317.229 308.224C317.311 308.347 317.448 308.473 317.642 308.602C317.841 308.73 318.107 308.883 318.441 309.059C318.84 309.264 319.191 309.492 319.496 309.744C319.807 309.99 320.05 310.277 320.226 310.605C320.401 310.928 320.489 311.312 320.489 311.757C320.489 312.507 320.319 313.137 319.979 313.646C319.64 314.15 319.159 314.531 318.538 314.789C317.923 315.047 317.193 315.176 316.35 315.176Z" fill="#202125"/>
<path d="M24.5469 328.578C26.0208 328.578 27.0964 328.867 27.7734 329.445C28.4557 330.018 28.7969 330.841 28.7969 331.914C28.7969 332.398 28.7161 332.859 28.5547 333.297C28.3984 333.729 28.1432 334.112 27.7891 334.445C27.4349 334.773 26.9688 335.034 26.3906 335.227C25.8177 335.414 25.1146 335.508 24.2812 335.508H22.8906V340H21.5625V328.578H24.5469ZM24.4219 329.711H22.8906V334.367H24.1328C24.862 334.367 25.4688 334.289 25.9531 334.133C26.4427 333.977 26.8099 333.724 27.0547 333.375C27.2995 333.021 27.4219 332.552 27.4219 331.969C27.4219 331.208 27.1797 330.643 26.6953 330.273C26.2109 329.898 25.4531 329.711 24.4219 329.711ZM32.2891 327.844V331.477C32.2891 331.685 32.2839 331.896 32.2734 332.109C32.263 332.318 32.2448 332.51 32.2188 332.688H32.3047C32.4818 332.385 32.7057 332.133 32.9766 331.93C33.2526 331.721 33.5651 331.565 33.9141 331.461C34.263 331.352 34.6328 331.297 35.0234 331.297C35.7109 331.297 36.2839 331.406 36.7422 331.625C37.2057 331.844 37.5521 332.182 37.7812 332.641C38.0156 333.099 38.1328 333.693 38.1328 334.422V340H36.8516V334.508C36.8516 333.794 36.6875 333.26 36.3594 332.906C36.0365 332.552 35.5391 332.375 34.8672 332.375C34.2318 332.375 33.724 332.497 33.3438 332.742C32.9688 332.982 32.6979 333.336 32.5312 333.805C32.3698 334.273 32.2891 334.846 32.2891 335.523V340H30.9922V327.844H32.2891ZM39.4531 331.438H40.8438L42.7344 336.406C42.8438 336.698 42.9453 336.979 43.0391 337.25C43.1328 337.516 43.2161 337.771 43.2891 338.016C43.362 338.26 43.4193 338.497 43.4609 338.727H43.5156C43.5885 338.466 43.6927 338.125 43.8281 337.703C43.9635 337.276 44.1094 336.841 44.2656 336.398L46.0547 331.438H47.4531L43.7266 341.258C43.5286 341.784 43.2969 342.242 43.0312 342.633C42.7708 343.023 42.4531 343.323 42.0781 343.531C41.7031 343.745 41.25 343.852 40.7188 343.852C40.474 343.852 40.2578 343.836 40.0703 343.805C39.8828 343.779 39.7214 343.747 39.5859 343.711V342.672C39.7005 342.698 39.8385 342.721 40 342.742C40.1667 342.763 40.3385 342.773 40.5156 342.773C40.8385 342.773 41.1172 342.711 41.3516 342.586C41.5911 342.466 41.7969 342.289 41.9688 342.055C42.1406 341.82 42.2891 341.542 42.4141 341.219L42.8828 340.016L39.4531 331.438ZM54.3594 337.656C54.3594 338.203 54.2214 338.664 53.9453 339.039C53.6745 339.409 53.2839 339.688 52.7734 339.875C52.2682 340.062 51.6641 340.156 50.9609 340.156C50.362 340.156 49.8438 340.109 49.4062 340.016C48.9688 339.922 48.5859 339.789 48.2578 339.617V338.422C48.6068 338.594 49.0234 338.75 49.5078 338.891C49.9922 339.031 50.487 339.102 50.9922 339.102C51.7318 339.102 52.2682 338.982 52.6016 338.742C52.9349 338.503 53.1016 338.177 53.1016 337.766C53.1016 337.531 53.0339 337.326 52.8984 337.148C52.7682 336.966 52.5469 336.792 52.2344 336.625C51.9219 336.453 51.4896 336.266 50.9375 336.062C50.3906 335.854 49.9167 335.648 49.5156 335.445C49.1198 335.237 48.8125 334.984 48.5938 334.688C48.3802 334.391 48.2734 334.005 48.2734 333.531C48.2734 332.807 48.5651 332.253 49.1484 331.867C49.737 331.477 50.5078 331.281 51.4609 331.281C51.9766 331.281 52.4583 331.333 52.9062 331.438C53.3594 331.536 53.7812 331.672 54.1719 331.844L53.7344 332.883C53.3802 332.732 53.0026 332.604 52.6016 332.5C52.2005 332.396 51.7917 332.344 51.375 332.344C50.776 332.344 50.3151 332.443 49.9922 332.641C49.6745 332.839 49.5156 333.109 49.5156 333.453C49.5156 333.719 49.5885 333.938 49.7344 334.109C49.8854 334.281 50.125 334.443 50.4531 334.594C50.7812 334.745 51.2135 334.922 51.75 335.125C52.2865 335.323 52.75 335.529 53.1406 335.742C53.5312 335.951 53.8307 336.206 54.0391 336.508C54.2526 336.805 54.3594 337.188 54.3594 337.656ZM57.7422 331.438V340H56.4453V331.438H57.7422ZM57.1094 328.234C57.3229 328.234 57.5052 328.305 57.6562 328.445C57.8125 328.581 57.8906 328.794 57.8906 329.086C57.8906 329.372 57.8125 329.586 57.6562 329.727C57.5052 329.867 57.3229 329.938 57.1094 329.938C56.8854 329.938 56.6979 329.867 56.5469 329.727C56.401 329.586 56.3281 329.372 56.3281 329.086C56.3281 328.794 56.401 328.581 56.5469 328.445C56.6979 328.305 56.8854 328.234 57.1094 328.234ZM63.9219 340.156C63.151 340.156 62.4714 339.997 61.8828 339.68C61.2943 339.362 60.8359 338.878 60.5078 338.227C60.1797 337.576 60.0156 336.755 60.0156 335.766C60.0156 334.729 60.1875 333.883 60.5312 333.227C60.8802 332.565 61.3594 332.076 61.9688 331.758C62.5781 331.44 63.2708 331.281 64.0469 331.281C64.474 331.281 64.8854 331.326 65.2812 331.414C65.6823 331.497 66.0104 331.604 66.2656 331.734L65.875 332.82C65.6146 332.716 65.3125 332.622 64.9688 332.539C64.6302 332.456 64.3125 332.414 64.0156 332.414C63.4219 332.414 62.9271 332.542 62.5312 332.797C62.1406 333.052 61.8464 333.427 61.6484 333.922C61.4557 334.417 61.3594 335.026 61.3594 335.75C61.3594 336.443 61.4531 337.034 61.6406 337.523C61.8333 338.013 62.1172 338.388 62.4922 338.648C62.8724 338.904 63.3464 339.031 63.9141 339.031C64.3672 339.031 64.776 338.984 65.1406 338.891C65.5052 338.792 65.8359 338.677 66.1328 338.547V339.703C65.8464 339.849 65.526 339.961 65.1719 340.039C64.8229 340.117 64.4062 340.156 63.9219 340.156ZM71.3672 331.297C72.388 331.297 73.1458 331.526 73.6406 331.984C74.1354 332.443 74.3828 333.174 74.3828 334.18V340H73.4375L73.1875 338.734H73.125C72.8854 339.047 72.6354 339.31 72.375 339.523C72.1146 339.732 71.8125 339.891 71.4688 340C71.1302 340.104 70.7135 340.156 70.2188 340.156C69.6979 340.156 69.2344 340.065 68.8281 339.883C68.4271 339.701 68.1094 339.424 67.875 339.055C67.6458 338.685 67.5312 338.216 67.5312 337.648C67.5312 336.794 67.8698 336.138 68.5469 335.68C69.224 335.221 70.2552 334.971 71.6406 334.93L73.1172 334.867V334.344C73.1172 333.604 72.9583 333.086 72.6406 332.789C72.3229 332.492 71.875 332.344 71.2969 332.344C70.849 332.344 70.4219 332.409 70.0156 332.539C69.6094 332.669 69.224 332.823 68.8594 333L68.4609 332.016C68.8464 331.818 69.2891 331.648 69.7891 331.508C70.2891 331.367 70.8151 331.297 71.3672 331.297ZM73.1016 335.781L71.7969 335.836C70.7292 335.878 69.9766 336.052 69.5391 336.359C69.1016 336.667 68.8828 337.102 68.8828 337.664C68.8828 338.154 69.0312 338.516 69.3281 338.75C69.625 338.984 70.0182 339.102 70.5078 339.102C71.2682 339.102 71.8906 338.891 72.375 338.469C72.8594 338.047 73.1016 337.414 73.1016 336.57V335.781ZM78.3594 340H77.0547V327.844H78.3594V340ZM86.7812 340H85.4531V328.578H91.8125V329.75H86.7812V333.938H91.5078V335.102H86.7812V340ZM94.8203 331.438V340H93.5234V331.438H94.8203ZM94.1875 328.234C94.401 328.234 94.5833 328.305 94.7344 328.445C94.8906 328.581 94.9688 328.794 94.9688 329.086C94.9688 329.372 94.8906 329.586 94.7344 329.727C94.5833 329.867 94.401 329.938 94.1875 329.938C93.9635 329.938 93.776 329.867 93.625 329.727C93.4792 329.586 93.4062 329.372 93.4062 329.086C93.4062 328.794 93.4792 328.581 93.625 328.445C93.776 328.305 93.9635 328.234 94.1875 328.234ZM100.336 339.094C100.549 339.094 100.768 339.076 100.992 339.039C101.216 339.003 101.398 338.958 101.539 338.906V339.914C101.388 339.982 101.177 340.039 100.906 340.086C100.641 340.133 100.38 340.156 100.125 340.156C99.6719 340.156 99.2604 340.078 98.8906 339.922C98.5208 339.76 98.224 339.49 98 339.109C97.7812 338.729 97.6719 338.203 97.6719 337.531V332.453H96.4531V331.82L97.6797 331.312L98.1953 329.453H98.9766V331.438H101.484V332.453H98.9766V337.492C98.9766 338.029 99.099 338.43 99.3438 338.695C99.5938 338.961 99.9245 339.094 100.336 339.094ZM107.328 331.281C108.344 331.281 109.112 331.531 109.633 332.031C110.154 332.526 110.414 333.323 110.414 334.422V340H109.133V334.508C109.133 333.794 108.969 333.26 108.641 332.906C108.318 332.552 107.82 332.375 107.148 332.375C106.201 332.375 105.534 332.643 105.148 333.18C104.763 333.716 104.57 334.495 104.57 335.516V340H103.273V331.438H104.32L104.516 332.672H104.586C104.768 332.37 105 332.117 105.281 331.914C105.562 331.706 105.878 331.549 106.227 331.445C106.576 331.336 106.943 331.281 107.328 331.281ZM116.383 331.281C117.112 331.281 117.737 331.443 118.258 331.766C118.779 332.089 119.177 332.542 119.453 333.125C119.729 333.703 119.867 334.38 119.867 335.156V335.961H113.953C113.969 336.966 114.219 337.732 114.703 338.258C115.188 338.784 115.87 339.047 116.75 339.047C117.292 339.047 117.771 338.997 118.188 338.898C118.604 338.799 119.036 338.654 119.484 338.461V339.602C119.052 339.794 118.622 339.935 118.195 340.023C117.773 340.112 117.273 340.156 116.695 340.156C115.872 340.156 115.154 339.99 114.539 339.656C113.93 339.318 113.456 338.823 113.117 338.172C112.779 337.521 112.609 336.724 112.609 335.781C112.609 334.859 112.763 334.062 113.07 333.391C113.383 332.714 113.82 332.193 114.383 331.828C114.951 331.464 115.617 331.281 116.383 331.281ZM116.367 332.344C115.674 332.344 115.122 332.57 114.711 333.023C114.299 333.477 114.055 334.109 113.977 334.922H118.508C118.503 334.411 118.422 333.964 118.266 333.578C118.115 333.188 117.883 332.885 117.57 332.672C117.258 332.453 116.857 332.344 116.367 332.344ZM127.609 337.656C127.609 338.203 127.471 338.664 127.195 339.039C126.924 339.409 126.534 339.688 126.023 339.875C125.518 340.062 124.914 340.156 124.211 340.156C123.612 340.156 123.094 340.109 122.656 340.016C122.219 339.922 121.836 339.789 121.508 339.617V338.422C121.857 338.594 122.273 338.75 122.758 338.891C123.242 339.031 123.737 339.102 124.242 339.102C124.982 339.102 125.518 338.982 125.852 338.742C126.185 338.503 126.352 338.177 126.352 337.766C126.352 337.531 126.284 337.326 126.148 337.148C126.018 336.966 125.797 336.792 125.484 336.625C125.172 336.453 124.74 336.266 124.188 336.062C123.641 335.854 123.167 335.648 122.766 335.445C122.37 335.237 122.062 334.984 121.844 334.688C121.63 334.391 121.523 334.005 121.523 333.531C121.523 332.807 121.815 332.253 122.398 331.867C122.987 331.477 123.758 331.281 124.711 331.281C125.227 331.281 125.708 331.333 126.156 331.438C126.609 331.536 127.031 331.672 127.422 331.844L126.984 332.883C126.63 332.732 126.253 332.604 125.852 332.5C125.451 332.396 125.042 332.344 124.625 332.344C124.026 332.344 123.565 332.443 123.242 332.641C122.924 332.839 122.766 333.109 122.766 333.453C122.766 333.719 122.839 333.938 122.984 334.109C123.135 334.281 123.375 334.443 123.703 334.594C124.031 334.745 124.464 334.922 125 335.125C125.536 335.323 126 335.529 126.391 335.742C126.781 335.951 127.081 336.206 127.289 336.508C127.503 336.805 127.609 337.188 127.609 337.656ZM135.234 337.656C135.234 338.203 135.096 338.664 134.82 339.039C134.549 339.409 134.159 339.688 133.648 339.875C133.143 340.062 132.539 340.156 131.836 340.156C131.237 340.156 130.719 340.109 130.281 340.016C129.844 339.922 129.461 339.789 129.133 339.617V338.422C129.482 338.594 129.898 338.75 130.383 338.891C130.867 339.031 131.362 339.102 131.867 339.102C132.607 339.102 133.143 338.982 133.477 338.742C133.81 338.503 133.977 338.177 133.977 337.766C133.977 337.531 133.909 337.326 133.773 337.148C133.643 336.966 133.422 336.792 133.109 336.625C132.797 336.453 132.365 336.266 131.812 336.062C131.266 335.854 130.792 335.648 130.391 335.445C129.995 335.237 129.688 334.984 129.469 334.688C129.255 334.391 129.148 334.005 129.148 333.531C129.148 332.807 129.44 332.253 130.023 331.867C130.612 331.477 131.383 331.281 132.336 331.281C132.852 331.281 133.333 331.333 133.781 331.438C134.234 331.536 134.656 331.672 135.047 331.844L134.609 332.883C134.255 332.732 133.878 332.604 133.477 332.5C133.076 332.396 132.667 332.344 132.25 332.344C131.651 332.344 131.19 332.443 130.867 332.641C130.549 332.839 130.391 333.109 130.391 333.453C130.391 333.719 130.464 333.938 130.609 334.109C130.76 334.281 131 334.443 131.328 334.594C131.656 334.745 132.089 334.922 132.625 335.125C133.161 335.323 133.625 335.529 134.016 335.742C134.406 335.951 134.706 336.206 134.914 336.508C135.128 336.805 135.234 337.188 135.234 337.656ZM143.953 327.836H145.039V343.875H143.953V327.836ZM160.914 331.242C160.914 331.753 160.815 332.195 160.617 332.57C160.419 332.945 160.143 333.253 159.789 333.492C159.435 333.727 159.018 333.891 158.539 333.984V334.047C159.445 334.161 160.125 334.453 160.578 334.922C161.036 335.391 161.266 336.005 161.266 336.766C161.266 337.427 161.109 338.013 160.797 338.523C160.49 339.034 160.016 339.435 159.375 339.727C158.74 340.013 157.924 340.156 156.93 340.156C156.326 340.156 155.766 340.107 155.25 340.008C154.74 339.914 154.25 339.755 153.781 339.531V338.312C154.255 338.547 154.771 338.732 155.328 338.867C155.885 338.997 156.424 339.062 156.945 339.062C157.987 339.062 158.74 338.857 159.203 338.445C159.667 338.029 159.898 337.461 159.898 336.742C159.898 336.247 159.768 335.849 159.508 335.547C159.253 335.24 158.883 335.016 158.398 334.875C157.919 334.729 157.341 334.656 156.664 334.656H155.523V333.547H156.672C157.292 333.547 157.818 333.456 158.25 333.273C158.682 333.091 159.01 332.836 159.234 332.508C159.464 332.174 159.578 331.781 159.578 331.328C159.578 330.75 159.385 330.305 159 329.992C158.615 329.674 158.091 329.516 157.43 329.516C157.023 329.516 156.654 329.557 156.32 329.641C155.987 329.724 155.674 329.839 155.383 329.984C155.091 330.13 154.799 330.299 154.508 330.492L153.852 329.602C154.268 329.279 154.776 329 155.375 328.766C155.974 328.531 156.654 328.414 157.414 328.414C158.581 328.414 159.456 328.68 160.039 329.211C160.622 329.742 160.914 330.419 160.914 331.242ZM170.555 334.273C170.555 335.201 170.484 336.029 170.344 336.758C170.203 337.487 169.982 338.104 169.68 338.609C169.378 339.115 168.987 339.5 168.508 339.766C168.029 340.026 167.453 340.156 166.781 340.156C165.932 340.156 165.229 339.924 164.672 339.461C164.12 338.997 163.706 338.328 163.43 337.453C163.159 336.573 163.023 335.513 163.023 334.273C163.023 333.055 163.146 332.008 163.391 331.133C163.641 330.253 164.042 329.578 164.594 329.109C165.146 328.635 165.875 328.398 166.781 328.398C167.641 328.398 168.349 328.633 168.906 329.102C169.464 329.565 169.878 330.237 170.148 331.117C170.419 331.992 170.555 333.044 170.555 334.273ZM164.328 334.273C164.328 335.336 164.409 336.221 164.57 336.93C164.732 337.638 164.992 338.169 165.352 338.523C165.716 338.872 166.193 339.047 166.781 339.047C167.37 339.047 167.844 338.872 168.203 338.523C168.568 338.174 168.831 337.646 168.992 336.938C169.159 336.229 169.242 335.341 169.242 334.273C169.242 333.227 169.161 332.352 169 331.648C168.839 330.94 168.578 330.409 168.219 330.055C167.859 329.695 167.38 329.516 166.781 329.516C166.182 329.516 165.703 329.695 165.344 330.055C164.984 330.409 164.724 330.94 164.562 331.648C164.406 332.352 164.328 333.227 164.328 334.273ZM182.039 331.281C182.982 331.281 183.693 331.529 184.172 332.023C184.651 332.513 184.891 333.302 184.891 334.391V340H183.609V334.453C183.609 333.76 183.458 333.242 183.156 332.898C182.859 332.549 182.417 332.375 181.828 332.375C181 332.375 180.398 332.615 180.023 333.094C179.648 333.573 179.461 334.279 179.461 335.211V340H178.172V334.453C178.172 333.99 178.104 333.604 177.969 333.297C177.839 332.99 177.641 332.76 177.375 332.609C177.115 332.453 176.784 332.375 176.383 332.375C175.815 332.375 175.359 332.492 175.016 332.727C174.672 332.961 174.422 333.31 174.266 333.773C174.115 334.232 174.039 334.797 174.039 335.469V340H172.742V331.438H173.789L173.984 332.648H174.055C174.227 332.352 174.443 332.102 174.703 331.898C174.964 331.695 175.255 331.542 175.578 331.438C175.901 331.333 176.245 331.281 176.609 331.281C177.26 331.281 177.805 331.404 178.242 331.648C178.685 331.888 179.005 332.255 179.203 332.75H179.273C179.555 332.255 179.94 331.888 180.43 331.648C180.919 331.404 181.456 331.281 182.039 331.281ZM188.852 331.438V340H187.555V331.438H188.852ZM188.219 328.234C188.432 328.234 188.615 328.305 188.766 328.445C188.922 328.581 189 328.794 189 329.086C189 329.372 188.922 329.586 188.766 329.727C188.615 329.867 188.432 329.938 188.219 329.938C187.995 329.938 187.807 329.867 187.656 329.727C187.51 329.586 187.438 329.372 187.438 329.086C187.438 328.794 187.51 328.581 187.656 328.445C187.807 328.305 187.995 328.234 188.219 328.234ZM195.656 331.281C196.672 331.281 197.44 331.531 197.961 332.031C198.482 332.526 198.742 333.323 198.742 334.422V340H197.461V334.508C197.461 333.794 197.297 333.26 196.969 332.906C196.646 332.552 196.148 332.375 195.477 332.375C194.529 332.375 193.862 332.643 193.477 333.18C193.091 333.716 192.898 334.495 192.898 335.516V340H191.602V331.438H192.648L192.844 332.672H192.914C193.096 332.37 193.328 332.117 193.609 331.914C193.891 331.706 194.206 331.549 194.555 331.445C194.904 331.336 195.271 331.281 195.656 331.281Z" fill="#202125"/>
<path d="M401.889 315C401.889 295.735 386.266 280.111 367 280.111C347.734 280.111 332.111 295.735 332.111 315C332.111 334.266 347.734 349.889 367 349.889C386.266 349.889 401.889 334.266 401.889 315Z" fill="white"/>
<path d="M376.787 313.734L363.28 305.471C363.052 305.331 362.791 305.255 362.524 305.25C362.257 305.245 361.994 305.312 361.761 305.443C361.531 305.572 361.339 305.76 361.205 305.987C361.071 306.215 361 306.474 361 306.738V323.263C361.002 323.659 361.161 324.038 361.442 324.317C361.723 324.596 362.104 324.752 362.5 324.75C362.777 324.75 363.048 324.674 363.284 324.53L376.787 316.267C377.005 316.135 377.184 315.949 377.308 315.727C377.433 315.506 377.498 315.256 377.498 315.001C377.498 314.747 377.433 314.497 377.308 314.276C377.184 314.054 377.005 313.868 376.787 313.736V313.734ZM362.5 323.245V306.75L375.984 315L362.5 323.245Z" fill="#D6D0FD"/>
<path d="M362.5 323.245V306.75L375.984 315L362.5 323.245Z" fill="#D6D0FD"/>
<defs>
<linearGradient id="paint0_linear_4811_2982" x1="164.557" y1="251.722" x2="164.557" y2="62.7444" gradientUnits="userSpaceOnUse">
<stop stop-color="#808080" stop-opacity="0.25"/>
<stop offset="0.54" stop-color="#808080" stop-opacity="0.12"/>
<stop offset="1" stop-color="#808080" stop-opacity="0.1"/>
</linearGradient>
<clipPath id="clip0_4811_2982">
<rect width="283.35" height="220.339" fill="white" transform="translate(63 36)"/>
</clipPath>
</defs>
</svg>
