<svg width="282" height="363" viewBox="0 0 282 363" fill="none" xmlns="http://www.w3.org/2000/svg">
<rect width="410" height="363" rx="16" fill="#D6D0FD"/>
<g clip-path="url(#clip0_4811_3065)">
<path d="M306.1 111.598C306.923 110.553 307.672 109.452 308.339 108.301L292.544 105.71L309.627 105.835C311.267 102.27 312.161 98.407 312.256 94.4837C312.35 90.5604 311.643 86.659 310.178 83.0185L287.259 94.9078L308.396 79.3716C306.415 75.9501 303.751 72.973 300.57 70.6258C297.389 68.2786 293.759 66.6116 289.905 65.7285C286.052 64.8455 282.058 64.7654 278.172 65.4931C274.286 66.2209 270.592 67.741 267.319 69.9587C264.047 72.1764 261.266 75.0443 259.15 78.3836C257.033 81.7229 255.628 85.4622 255.02 89.3685C254.412 93.2748 254.614 97.2644 255.616 101.089C256.617 104.913 258.394 108.491 260.838 111.598C259.559 113.226 258.458 114.986 257.555 116.848L278.058 127.501L256.197 120.164C254.661 124.701 254.281 129.55 255.091 134.272C255.901 138.993 257.875 143.438 260.836 147.205C257.775 151.096 255.77 155.711 255.013 160.603C254.256 165.496 254.773 170.501 256.514 175.135C258.255 179.77 261.161 183.877 264.952 187.061C268.743 190.245 273.291 192.397 278.157 193.311C277.776 194.385 277.583 195.517 277.588 196.656C277.571 198.342 278.003 200.002 278.841 201.465C278.019 202.935 277.588 204.591 277.588 206.275C277.588 207.958 278.019 209.614 278.841 211.084C278.019 212.553 277.588 214.209 277.588 215.893C277.588 217.577 278.019 219.232 278.841 220.702C278.019 222.172 277.588 223.827 277.588 225.511C277.588 227.195 278.019 228.851 278.841 230.32C278.003 231.784 277.571 233.444 277.588 235.129C277.588 239.476 280.278 242.998 283.599 242.998C286.92 242.998 289.61 239.476 289.61 235.129C289.626 233.443 289.193 231.783 288.355 230.32C289.178 228.851 289.61 227.195 289.61 225.511C289.61 223.827 289.178 222.171 288.355 220.702C289.178 219.233 289.61 217.577 289.61 215.893C289.61 214.209 289.178 212.553 288.355 211.084C289.178 209.615 289.61 207.959 289.61 206.275C289.61 204.59 289.178 202.934 288.355 201.465C289.193 200.002 289.626 198.342 289.61 196.656C289.615 195.501 289.416 194.353 289.025 193.266C293.862 192.314 298.374 190.136 302.128 186.941C305.883 183.747 308.754 179.641 310.468 175.019C312.181 170.397 312.679 165.412 311.915 160.542C311.15 155.672 309.148 151.08 306.1 147.205C310.093 142.129 312.264 135.859 312.264 129.402C312.264 122.944 310.093 116.674 306.1 111.598Z" fill="#F2F2F2"/>
<path d="M210.882 142.243C210.333 141.544 209.833 140.807 209.386 140.039L219.947 138.305L208.525 138.388C207.429 136.004 206.831 133.421 206.768 130.798C206.704 128.175 207.177 125.566 208.157 123.132L223.485 131.083L209.351 120.693C210.673 118.4 212.453 116.405 214.581 114.831C216.708 113.258 219.137 112.139 221.717 111.546C224.296 110.953 226.969 110.898 229.57 111.385C232.172 111.871 234.645 112.888 236.835 114.373C239.026 115.858 240.887 117.778 242.302 120.014C243.717 122.25 244.656 124.754 245.061 127.369C245.465 129.985 245.326 132.655 244.652 135.214C243.979 137.773 242.785 140.166 241.145 142.243C242.002 143.331 242.738 144.508 243.341 145.754L229.63 152.877L244.255 147.969C245.283 151.003 245.537 154.246 244.995 157.404C244.453 160.561 243.131 163.533 241.15 166.051C243.197 168.653 244.539 171.739 245.046 175.01C245.553 178.282 245.208 181.629 244.044 184.728C242.88 187.828 240.937 190.575 238.401 192.704C235.866 194.833 232.825 196.272 229.571 196.883C229.825 197.601 229.953 198.358 229.95 199.12C229.96 200.244 229.671 201.35 229.111 202.326C229.661 203.308 229.95 204.415 229.95 205.541C229.95 206.667 229.661 207.774 229.111 208.757C229.661 209.739 229.95 210.847 229.95 211.973C229.95 213.1 229.661 214.207 229.111 215.19C229.661 216.172 229.95 217.28 229.95 218.406C229.95 219.532 229.661 220.639 229.111 221.621C229.67 222.596 229.96 223.703 229.95 224.827C229.95 227.731 228.152 230.088 225.943 230.088C223.733 230.088 221.935 227.731 221.935 224.827C221.925 223.703 222.215 222.596 222.774 221.621C222.224 220.639 221.935 219.532 221.935 218.406C221.935 217.28 222.224 216.172 222.774 215.19C222.224 214.207 221.935 213.1 221.935 211.973C221.935 210.847 222.224 209.739 222.774 208.757C222.224 207.774 221.935 206.667 221.935 205.541C221.935 204.415 222.224 203.308 222.774 202.326C222.215 201.35 221.925 200.244 221.935 199.12C221.932 198.346 222.065 197.579 222.328 196.851C219.093 196.215 216.076 194.759 213.565 192.623C211.054 190.487 209.134 187.742 207.988 184.651C206.842 181.56 206.508 178.227 207.019 174.97C207.53 171.714 208.868 168.643 210.906 166.051C208.237 162.657 206.786 158.465 206.786 154.147C206.786 149.83 208.237 145.637 210.906 142.243H210.882Z" fill="#F2F2F2"/>
<path d="M189.195 256.052C263.099 256.052 323.01 248.516 323.01 239.22C323.01 229.924 263.099 222.388 189.195 222.388C115.291 222.388 55.3805 229.924 55.3805 239.22C55.3805 248.516 115.291 256.052 189.195 256.052Z" fill="#F2F2F2"/>
<path d="M230.289 201.36C230.289 201.895 230.273 202.429 230.244 202.942C230.244 203.02 230.244 203.094 230.244 203.172C230.101 205.429 229.691 207.661 229.023 209.822C229.004 209.889 228.98 209.961 228.959 210.028C228.274 212.178 227.355 214.247 226.218 216.197L226.103 216.389C224.881 218.444 223.449 220.365 221.828 222.123L221.662 222.299C219.841 224.253 217.824 226.015 215.643 227.557C215.568 227.613 215.491 227.669 215.416 227.72C213.131 229.319 210.7 230.701 208.157 231.845C207.807 232.003 207.454 232.158 207.088 232.31L206.767 232.444C202.875 234.046 198.798 235.152 194.63 235.738L194.119 235.807C191.779 236.116 189.421 236.271 187.061 236.27C169.566 236.27 154.497 227.875 147.698 215.796C147.24 214.989 146.822 214.166 146.445 213.327L146.29 212.983C144.846 209.699 144.025 206.176 143.866 202.592C143.866 202.504 143.866 202.418 143.866 202.325C143.866 202.004 143.853 201.681 143.853 201.358C143.852 198.86 144.179 196.372 144.825 193.96C144.844 193.885 144.863 193.813 144.884 193.741C145.564 191.282 146.551 188.919 147.823 186.709C147.858 186.647 147.893 186.583 147.93 186.521C149.183 184.38 150.667 182.382 152.354 180.563C152.399 180.508 152.446 180.456 152.496 180.406L152.517 180.384C152.729 180.16 152.942 179.933 153.161 179.711L153.49 179.38C153.706 179.163 153.928 178.952 154.15 178.739H154.163C154.698 178.236 155.242 177.749 155.796 177.277C156.565 176.625 157.369 175.997 158.2 175.394L158.379 175.26C160.585 173.687 162.93 172.318 165.385 171.17C165.457 171.135 165.532 171.097 165.604 171.068C168.369 169.791 171.249 168.777 174.204 168.038C174.298 168.012 174.388 167.99 174.471 167.969C178.132 167.075 181.878 166.578 185.645 166.486C185.77 166.486 185.896 166.486 186.024 166.486C186.366 166.486 186.711 166.473 187.055 166.473C204.392 166.473 219.346 174.72 226.234 186.618C226.295 186.725 226.354 186.831 226.415 186.936L226.683 187.403C226.83 187.67 226.969 187.938 227.107 188.221C227.172 188.349 227.233 188.475 227.294 188.603C227.332 188.678 227.372 188.752 227.407 188.83C228.415 190.926 229.171 193.134 229.659 195.408C229.68 195.496 229.696 195.581 229.715 195.675C230.096 197.546 230.288 199.451 230.289 201.36Z" fill="#6C63FF"/>
<g opacity="0.2">
<path d="M226.423 186.912C224.448 186.164 222.489 185.386 220.546 184.577C208.419 179.557 196.749 173.499 185.666 166.471H186.045C198.752 174.491 212.221 181.235 226.255 186.605C226.306 186.709 226.365 186.808 226.423 186.912Z" fill="#F2F2F2"/>
</g>
<g opacity="0.2">
<path d="M229.712 195.644C224.903 194.041 220.145 192.26 215.437 190.301C203.186 185.233 191.401 179.105 180.215 171.988C178.107 170.647 176.103 169.325 174.204 168.021L174.471 167.954C176.325 169.221 178.285 170.51 180.349 171.823C195.78 181.628 212.335 189.54 229.656 195.388C229.678 195.473 229.694 195.559 229.712 195.644Z" fill="#F2F2F2"/>
</g>
<g opacity="0.2">
<path d="M230.244 202.943C230.244 203.021 230.244 203.098 230.244 203.173C223.531 201.127 216.9 198.751 210.353 196.045C198.1 190.973 186.313 184.841 175.126 177.719C171.586 175.467 168.337 173.26 165.393 171.155L165.612 171.051C168.532 173.137 171.757 175.326 175.257 177.554C192.37 188.433 210.864 196.973 230.244 202.943Z" fill="#F2F2F2"/>
</g>
<g opacity="0.2">
<path d="M229.01 209.821C228.991 209.893 228.967 209.962 228.946 210.032C220.894 207.733 212.979 204.977 205.242 201.776C192.99 196.706 181.205 190.575 170.02 183.453C165.622 180.656 161.676 177.925 158.2 175.379L158.379 175.248C161.853 177.784 165.775 180.501 170.151 183.287C188.404 194.895 208.225 203.83 229.01 209.821Z" fill="#F2F2F2"/>
</g>
<g opacity="0.2">
<path d="M226.204 216.198L226.09 216.39C217.264 213.974 208.599 211.008 200.144 207.509C187.892 202.437 176.106 196.306 164.92 189.186C160.207 186.186 156.007 183.26 152.362 180.559C152.405 180.508 152.453 180.455 152.504 180.404C156.154 183.103 160.351 186.015 165.061 189.021C179.053 197.931 200.011 209.016 226.204 216.198Z" fill="#F2F2F2"/>
</g>
<g opacity="0.2">
<path d="M221.817 222.124L221.652 222.3C212.598 219.855 203.712 216.829 195.046 213.243C182.794 208.172 171.008 202.041 159.822 194.92C155.355 192.072 151.347 189.296 147.823 186.71C147.858 186.648 147.893 186.587 147.93 186.525C151.454 189.114 155.472 191.898 159.953 194.752C174.081 203.748 195.292 214.95 221.817 222.124Z" fill="#F2F2F2"/>
</g>
<g opacity="0.2">
<path d="M215.632 227.558C215.557 227.614 215.48 227.67 215.405 227.721C206.749 225.329 198.247 222.409 189.949 218.976C177.696 213.905 165.91 207.774 154.724 200.653C151.117 198.356 147.807 196.111 144.817 193.961C144.836 193.888 144.855 193.816 144.876 193.744C147.887 195.9 151.219 198.171 154.858 200.488C168.791 209.358 189.615 220.374 215.632 227.558Z" fill="#F2F2F2"/>
</g>
<g opacity="0.2">
<path d="M207.085 232.311L206.765 232.445C199.33 230.255 192.017 227.673 184.856 224.71C177.91 221.838 171.067 218.597 164.393 215.025C159.37 212.332 154.45 209.453 149.632 206.387C147.617 205.105 145.699 203.84 143.877 202.593C143.877 202.505 143.877 202.42 143.877 202.326C145.744 203.6 147.711 204.896 149.779 206.216C154.169 209.014 159.245 212.022 164.952 215.06C178.378 222.217 192.495 227.997 207.085 232.311Z" fill="#F2F2F2"/>
</g>
<g opacity="0.2">
<path d="M194.63 235.739L194.119 235.808C189.28 234.189 184.489 232.4 179.745 230.441C169.482 226.192 159.544 221.196 150.011 215.492C148.821 214.78 147.637 214.058 146.458 213.328L146.303 212.983C147.601 213.792 148.953 214.616 150.359 215.455C164.348 223.78 179.189 230.581 194.63 235.739Z" fill="#F2F2F2"/>
</g>
<path opacity="0.1" d="M208.146 231.845C207.796 232.003 207.443 232.158 207.077 232.31L206.757 232.444C202.868 234.045 198.794 235.152 194.63 235.738L194.119 235.808C191.779 236.117 189.421 236.271 187.061 236.27C169.566 236.27 154.497 227.875 147.698 215.796C148.462 215.679 149.229 215.58 149.998 215.492L150.345 215.454C152.413 215.235 154.497 215.112 156.576 215.024C159.176 214.888 161.782 214.888 164.383 215.024C164.564 215.024 164.746 215.045 164.917 215.061C166.689 215.187 168.449 215.444 170.183 215.831C175.46 217.028 180.296 219.627 185.089 222.136C192.492 226 200.061 229.767 208.146 231.845Z" fill="black"/>
<path opacity="0.1" d="M226.245 186.594C219.357 174.697 204.403 166.449 187.066 166.449C186.721 166.449 186.377 166.449 186.035 166.449H185.655C181.888 166.54 178.142 167.037 174.482 167.932L174.215 167.999C171.26 168.74 168.381 169.754 165.614 171.029L165.395 171.133C162.94 172.281 160.595 173.651 158.39 175.226L158.211 175.357C156.158 176.837 154.255 178.514 152.528 180.364C152.304 182.643 151.919 184.874 150.925 186.928C150.225 188.371 149.501 189.76 150.492 191.203C151.158 192.173 152.598 193.402 153.824 193.45C157.193 193.586 159.066 189.082 160.653 186.837C163.084 183.401 166.688 181.016 170.21 178.71C171.714 177.724 173.234 176.73 174.931 176.14C176.362 175.677 177.85 175.415 179.353 175.362C183.448 175.132 187.635 175.755 191.375 177.451C195.65 179.389 199.444 182.728 204.109 183.19C206.222 183.399 208.384 182.99 210.454 183.474C214.133 184.337 216.685 187.807 220.265 189.02C222.582 189.806 225.074 189.555 227.431 188.785C227.126 188.144 226.799 187.512 226.45 186.891C226.365 186.808 226.306 186.709 226.245 186.594Z" fill="black"/>
<path d="M121.461 199.983C120.195 201.319 118.773 202.492 117.467 203.788C112.628 208.597 109.526 214.846 105.177 220.085C104.004 221.499 102.729 222.856 101.856 224.47C100.982 226.083 100.544 228.047 101.169 229.773C101.703 231.253 102.935 232.362 104.132 233.385C104.87 234.063 105.681 234.657 106.55 235.157C108.559 236.225 110.937 236.284 113.213 236.319C114.469 236.338 116 236.196 116.537 235.061C114.502 234.091 112.628 232.815 110.98 231.277C110.037 230.396 109.147 229.386 108.765 228.154C108.113 226.054 109.077 223.767 110.443 222.044C111.808 220.32 113.569 218.939 114.902 217.192C116.235 215.445 117.095 213.438 118.701 212.011C119.812 211.025 121.194 210.408 122.442 209.588C124.264 208.388 125.768 206.775 127.251 205.177L135.132 196.7C135.322 196.537 135.453 196.316 135.504 196.072C135.536 195.754 135.301 195.476 135.076 195.246C133.361 193.485 130.128 190.394 127.772 192.713C125.501 194.947 123.66 197.664 121.461 199.983Z" fill="#A0616A"/>
<path opacity="0.1" d="M121.461 199.983C120.195 201.319 118.773 202.492 117.467 203.788C112.628 208.597 109.526 214.846 105.177 220.085C104.004 221.499 102.729 222.856 101.856 224.47C100.982 226.083 100.544 228.047 101.169 229.773C101.703 231.253 102.935 232.362 104.132 233.385C104.87 234.063 105.681 234.657 106.55 235.157C108.559 236.225 110.937 236.284 113.213 236.319C114.469 236.338 116 236.196 116.537 235.061C114.502 234.091 112.628 232.815 110.98 231.277C110.037 230.396 109.147 229.386 108.765 228.154C108.113 226.054 109.077 223.767 110.443 222.044C111.808 220.32 113.569 218.939 114.902 217.192C116.235 215.445 117.095 213.438 118.701 212.011C119.812 211.025 121.194 210.408 122.442 209.588C124.264 208.388 125.768 206.775 127.251 205.177L135.132 196.7C135.322 196.537 135.453 196.316 135.504 196.072C135.536 195.754 135.301 195.476 135.076 195.246C133.361 193.485 130.128 190.394 127.772 192.713C125.501 194.947 123.66 197.664 121.461 199.983Z" fill="black"/>
<path d="M132.725 184.572C134.315 184.235 136.027 185.082 137.564 184.556C138.435 184.257 139.1 183.562 139.728 182.889L142.293 180.156C143.017 179.384 143.754 178.595 144.2 177.634C144.596 176.784 144.735 175.846 144.927 174.927C145.397 172.576 146.201 170.166 147.967 168.547C150.169 166.522 153.562 166.142 156.389 167.109C159.215 168.077 161.516 170.235 163.207 172.704C161.695 174.521 160.001 176.199 158.491 178.016C158.009 178.652 157.442 179.219 156.806 179.701C156.102 180.131 155.344 180.466 154.553 180.698C151.836 181.66 148.943 183.052 147.823 185.71C147.433 186.635 147.289 187.642 147.075 188.622C146.664 190.477 145.913 192.312 144.556 193.64C143.198 194.968 141.149 195.695 139.34 195.12C137.339 194.484 136.113 192.523 135.082 190.696C133.985 188.788 133.19 186.723 132.725 184.572Z" fill="#A0616A"/>
<path opacity="0.1" d="M132.725 184.572C134.315 184.235 136.027 185.082 137.564 184.556C138.435 184.257 139.1 183.562 139.728 182.889L142.293 180.156C143.017 179.384 143.754 178.595 144.2 177.634C144.596 176.784 144.735 175.846 144.927 174.927C145.397 172.576 146.201 170.166 147.967 168.547C150.169 166.522 153.562 166.142 156.389 167.109C159.215 168.077 161.516 170.235 163.207 172.704C161.695 174.521 160.001 176.199 158.491 178.016C158.009 178.652 157.442 179.219 156.806 179.701C156.102 180.131 155.344 180.466 154.553 180.698C151.836 181.66 148.943 183.052 147.823 185.71C147.433 186.635 147.289 187.642 147.075 188.622C146.664 190.477 145.913 192.312 144.556 193.64C143.198 194.968 141.149 195.695 139.34 195.12C137.339 194.484 136.113 192.523 135.082 190.696C133.985 188.788 133.19 186.723 132.725 184.572Z" fill="black"/>
<path d="M202.327 173.96C212.367 177.553 222.349 181.809 230.647 188.521C234.447 191.596 237.832 195.144 241.444 198.438C243.336 200.164 245.289 201.818 247.242 203.475L261.105 215.23C262.821 216.686 264.544 218.145 266.449 219.364C270.929 222.244 276.273 223.708 280.66 226.804C280.652 228.403 280.914 229.992 281.435 231.504C281.634 232.061 282.009 232.537 282.504 232.859C282.999 233.182 283.587 233.334 284.176 233.291C291.085 232.893 298.091 236.246 305.05 235.402C305.251 235.38 305.444 235.312 305.614 235.203C305.784 235.094 305.927 234.947 306.031 234.774C306.499 233.957 305.7 233.193 305 232.704L295.55 226.088C293.992 224.998 292.434 223.908 290.847 222.864C285.108 219.091 278.979 215.888 273.66 211.557C272.525 210.632 271.432 209.66 270.336 208.685C264.544 203.539 258.749 198.388 253.259 192.921C245.278 184.973 237.73 176.105 229.819 168.087C229.067 167.287 228.256 166.545 227.393 165.867C226.549 165.266 225.665 164.724 224.746 164.245L214.702 158.728C213.182 157.892 211.496 157.029 209.8 157.357C209.379 157.254 208.94 157.256 208.52 157.363C208.101 157.47 207.714 157.679 207.395 157.972C206.749 158.568 206.326 159.356 205.899 160.128C205.341 161.063 204.901 162.064 204.59 163.107C204.232 164.526 204.349 166.046 203.935 167.441C203.668 168.362 203.171 169.204 202.835 170.112C202.393 171.344 202.22 172.656 202.327 173.96Z" fill="#A0616A"/>
<path opacity="0.1" d="M202.327 173.96C212.367 177.553 222.349 181.809 230.647 188.521C234.447 191.596 237.832 195.144 241.444 198.438C243.336 200.164 245.289 201.818 247.242 203.475L261.105 215.23C262.821 216.686 264.544 218.145 266.449 219.364C270.929 222.244 276.273 223.708 280.66 226.804C280.652 228.403 280.914 229.992 281.435 231.504C281.634 232.061 282.009 232.537 282.504 232.859C282.999 233.182 283.587 233.334 284.176 233.291C291.085 232.893 298.091 236.246 305.05 235.402C305.251 235.38 305.444 235.312 305.614 235.203C305.784 235.094 305.927 234.947 306.031 234.774C306.499 233.957 305.7 233.193 305 232.704L295.55 226.088C293.992 224.998 292.434 223.908 290.847 222.864C285.108 219.091 278.979 215.888 273.66 211.557C272.525 210.632 271.432 209.66 270.336 208.685C264.544 203.539 258.749 198.388 253.259 192.921C245.278 184.973 237.73 176.105 229.819 168.087C229.067 167.287 228.256 166.545 227.393 165.867C226.549 165.266 225.665 164.724 224.746 164.245L214.702 158.728C213.182 157.892 211.496 157.029 209.8 157.357C209.379 157.254 208.94 157.256 208.52 157.363C208.101 157.47 207.714 157.679 207.395 157.972C206.749 158.568 206.326 159.356 205.899 160.128C205.341 161.063 204.901 162.064 204.59 163.107C204.232 164.526 204.349 166.046 203.935 167.441C203.668 168.362 203.171 169.204 202.835 170.112C202.393 171.344 202.22 172.656 202.327 173.96Z" fill="black"/>
<path d="M134.203 205.35C140.446 205.35 145.507 200.289 145.507 194.045C145.507 187.802 140.446 182.741 134.203 182.741C127.959 182.741 122.898 187.802 122.898 194.045C122.898 200.289 127.959 205.35 134.203 205.35Z" fill="#A0616A"/>
<path d="M202.995 153.227C204.574 153.254 206.367 153.377 207.361 154.603C208.355 155.829 208.13 157.51 207.879 159.022C207.093 163.802 206.276 168.667 204.09 172.99C203.937 173.38 203.665 173.712 203.313 173.938C202.685 174.262 201.94 173.882 201.338 173.511C196.959 170.791 192.58 167.863 187.59 166.564C187.289 166.526 187.012 166.378 186.812 166.15C186.744 166.007 186.704 165.851 186.697 165.693C186.689 165.534 186.713 165.375 186.767 165.226C187.264 163.011 187.892 160.823 188.282 158.584C188.517 157.248 188.081 154.042 189.265 153.214C190.518 152.332 194.127 153.077 195.61 153.101L202.995 153.227Z" fill="#A0616A"/>
<path d="M208.312 175.29C218.352 178.884 228.334 183.14 236.619 189.849C240.418 192.926 243.803 196.475 247.415 199.769C249.307 201.495 251.26 203.149 253.213 204.802L267.077 216.558C268.792 218.012 270.515 219.473 272.42 220.689C276.92 223.58 282.263 225.038 286.634 228.121C286.626 229.721 286.888 231.311 287.409 232.824C287.608 233.38 287.984 233.856 288.479 234.179C288.974 234.501 289.561 234.653 290.15 234.611C297.059 234.21 304.065 237.566 311.024 236.722C311.225 236.699 311.419 236.631 311.589 236.522C311.759 236.412 311.901 236.265 312.005 236.091C312.473 235.29 311.674 234.51 310.974 234.021L301.524 227.408C299.966 226.318 298.408 225.228 296.821 224.183C291.093 220.411 284.964 217.207 279.645 212.879C278.509 211.955 277.416 210.98 276.321 210.007C270.529 204.861 264.734 199.71 259.241 194.244C251.263 186.295 243.715 177.428 235.804 169.396C235.048 168.607 234.234 167.875 233.37 167.206C232.525 166.606 231.641 166.065 230.722 165.586L220.679 160.069C219.159 159.233 217.473 158.37 215.776 158.699C215.356 158.594 214.917 158.595 214.497 158.702C214.078 158.809 213.691 159.018 213.372 159.311C212.725 159.906 212.303 160.697 211.876 161.469C211.318 162.404 210.878 163.403 210.567 164.446C210.209 165.864 210.326 167.385 209.912 168.782C209.645 169.704 209.148 170.545 208.811 171.454C208.374 172.682 208.204 173.99 208.312 175.29Z" fill="#A0616A"/>
<path d="M211.643 176.118L211.961 171.494C212.052 170.2 212.143 168.891 212.541 167.66C212.993 166.262 213.815 165.02 214.652 163.812C215.098 163.108 215.637 162.467 216.255 161.907C217.166 161.141 218.344 160.724 219.194 159.893C219.437 159.655 219.664 159.305 219.52 158.998C219.453 158.883 219.362 158.784 219.252 158.709C217.158 156.991 214.646 155.874 212.167 154.776L207.481 152.703C205.509 155.375 203.502 158.129 202.487 161.298C202.334 161.861 202.142 162.413 201.913 162.949C201.312 164.202 200.171 165.116 199.447 166.302C198.765 167.419 198.482 168.726 198.212 170.005C198.052 170.756 197.897 171.558 198.167 172.276C198.466 173.078 199.236 173.596 199.936 174.064C203.038 176.097 206.313 178.194 210.014 178.483C210.692 178.534 211.595 178.873 211.812 178.216C211.964 177.775 211.609 176.658 211.643 176.118Z" fill="#3F3D56"/>
<path d="M119.043 189.114C117.873 190.683 118.658 192.967 119.871 194.503C121.084 196.039 122.706 197.327 123.385 199.163C125.012 203.552 120.472 207.979 120.627 212.65C120.766 216.812 124.445 219.829 127.574 222.594C134.221 228.472 139.901 236.663 139.153 245.512C142.177 244.627 144.79 242.698 146.527 240.07C147.542 242.297 147.971 244.746 147.772 247.185C154.74 242.416 158.708 233.599 157.658 225.223C157.158 221.258 155.63 217.392 155.868 213.406C155.996 211.244 156.64 209.152 157.105 207.036C157.697 204.308 157.993 201.524 157.986 198.733C157.986 195.548 157.396 192.01 154.885 190.052C152.747 188.388 149.808 188.331 147.099 188.345C144.238 188.363 141.376 188.377 138.52 188.556C135.605 188.738 132.599 189.699 129.73 189.771C126.535 189.852 122.033 185.107 119.043 189.114Z" fill="#3F3D56"/>
<path d="M161.767 168.202C159.878 168.826 158.176 169.916 156.822 171.374C155.969 172.298 155.264 173.353 154.38 174.248C153.327 175.317 152.042 176.119 150.81 176.974C148.456 178.603 146.252 180.433 144.051 182.261L133.203 191.265C131.507 192.673 129.81 194.083 128.21 195.601C126.235 197.471 124.413 199.512 122.305 201.236C121.071 202.246 119.743 203.146 118.61 204.271C117.542 205.34 116.676 206.571 115.8 207.792C112.23 212.748 108.394 217.507 104.311 222.049C102.577 223.98 100.784 225.883 98.6763 227.392C94.3053 230.542 90.987 235.258 87.145 239.038C86.819 239.359 86.461 239.816 86.6614 240.23C86.7808 240.428 86.9723 240.573 87.1957 240.633C90.0064 241.681 92.427 237.12 95.3553 237.767C96.6911 238.06 97.5114 239.324 98.4679 240.289C99.4243 241.253 101.065 241.964 102.064 241.042C101.722 238.359 102.07 235.633 103.077 233.123C104.714 229.059 107.963 225.856 111.431 223.173C114.899 220.491 118.674 218.204 121.931 215.268C127.395 210.344 131.387 203.627 137.868 200.151C140.406 198.788 143.212 197.992 145.742 196.598C150.639 193.888 154.064 189.117 156.741 184.209C157.057 183.536 157.483 182.921 158.003 182.389C158.561 181.949 159.183 181.595 159.846 181.339C163.289 179.75 166.377 177.487 168.93 174.684C168.128 174.109 167.378 173.495 166.579 172.918C165.929 172.487 165.334 171.979 164.807 171.403C164.273 170.772 163.926 170.016 163.472 169.327C163.017 168.638 162.542 168.451 161.767 168.202Z" fill="#A0616A"/>
<path d="M190.956 169.028C190.251 168.462 190.227 167.425 190.261 166.509C190.377 163.698 190.491 160.888 190.603 158.079C190.681 156.1 190.87 153.882 192.364 152.584C188.045 151.716 183.69 151.051 179.299 150.588C177.557 150.404 175.791 150.251 174.054 150.505C171.962 150.81 170.001 151.686 168.072 152.554C165.935 153.516 163.784 154.486 161.869 155.835C161.131 156.405 160.362 156.933 159.566 157.417C158.112 158.218 156.442 158.486 154.877 159.02C151.259 160.251 148.234 162.793 146.399 166.145C144.564 169.497 144.052 173.415 144.964 177.126C145.499 175.745 145.873 174.3 146.498 172.956C147.123 171.612 148.045 170.343 149.357 169.656C150.725 168.945 152.376 168.951 153.864 169.36C155.352 169.768 156.691 170.557 158.027 171.353C161.003 173.156 164.043 175.262 165.457 178.438C168.396 176.253 171.401 174.163 174.346 171.967C175.623 171.019 176.919 170.062 178.399 169.488C180.344 168.732 182.478 168.686 184.565 168.646C186.652 168.606 188.915 168.489 190.956 169.028Z" fill="#FF6584"/>
<path d="M144.954 176.869L144.598 181.798L145.881 180.74L145.24 176.38L144.954 176.869Z" fill="#FF6584"/>
<path d="M96.7981 113.567L92.6515 116.196L95.1683 111.632C94.455 111.063 93.5721 110.748 92.6595 110.737H92.5927C92.3046 110.742 92.0167 110.72 91.7324 110.673L90.3271 111.566L90.9309 110.47C89.9346 110.122 89.0741 109.467 88.4729 108.6L85.9561 110.203L87.5458 107.315C86.0736 105.549 84.0912 104.467 81.9111 104.467C79.2954 104.467 76.9656 106.022 75.4614 108.445C75.0159 109.172 74.3856 109.768 73.6346 110.172C72.8836 110.576 72.0389 110.774 71.1866 110.745H71.045C68.1569 110.745 65.8164 114.018 65.8164 118.058C65.8164 122.098 68.1569 125.371 71.045 125.371C71.6804 125.368 72.3056 125.211 72.8672 124.914C73.8498 124.436 74.9246 124.178 76.017 124.156C77.1094 124.135 78.1934 124.352 79.1939 124.791C80.0403 125.169 80.9571 125.365 81.8843 125.365C82.8116 125.365 83.7284 125.169 84.5748 124.791C85.5681 124.36 86.6424 124.148 87.7248 124.17C88.8072 124.191 89.8724 124.445 90.8481 124.914C91.4039 125.205 92.0215 125.358 92.6488 125.36C95.537 125.36 97.8774 122.084 97.8774 118.047C97.9004 116.487 97.5291 114.946 96.7981 113.567Z" fill="#F2F2F2"/>
<path opacity="0.03" d="M88.9832 124.268C87.4746 123.981 85.9146 124.15 84.5027 124.754C83.6551 125.13 82.7379 125.323 81.8108 125.321C80.8837 125.318 79.9675 125.121 79.1218 124.741C78.1211 124.302 77.037 124.086 75.9446 124.108C74.8522 124.13 73.7776 124.388 72.7951 124.867C72.2332 125.163 71.6081 125.318 70.973 125.321C68.4081 125.321 66.2733 122.737 65.8298 119.328C66.3424 118.955 66.7778 118.486 67.1123 117.947C68.6138 115.523 70.9462 113.966 73.5619 113.966C76.1775 113.966 78.4779 115.502 79.9741 117.901C80.4239 118.627 81.054 119.225 81.8032 119.635C82.5523 120.045 83.3949 120.254 84.2489 120.242H84.3157C86.3542 120.242 88.1229 121.88 88.9832 124.268Z" fill="black"/>
<path d="M170.798 129.035L168.73 130.336L169.985 128.054C169.63 127.77 169.19 127.613 168.735 127.608H168.714C168.57 127.609 168.427 127.599 168.286 127.576L167.583 128.019L167.885 127.485C167.388 127.312 166.959 126.985 166.659 126.553L165.403 127.354L166.205 125.914C165.869 125.479 165.44 125.125 164.95 124.879C164.459 124.632 163.919 124.498 163.37 124.487C162.066 124.487 160.904 125.262 160.164 126.472C159.941 126.836 159.626 127.133 159.25 127.335C158.875 127.536 158.452 127.634 158.027 127.619H157.957C156.517 127.619 155.349 129.251 155.349 131.266C155.349 133.28 156.517 134.912 157.957 134.912C158.274 134.911 158.585 134.833 158.866 134.685C159.355 134.446 159.891 134.316 160.436 134.306C160.981 134.295 161.522 134.404 162.021 134.624C162.441 134.812 162.896 134.91 163.357 134.912C163.817 134.913 164.272 134.816 164.693 134.629C165.188 134.414 165.724 134.309 166.264 134.319C166.803 134.33 167.335 134.457 167.821 134.691C168.099 134.836 168.408 134.912 168.722 134.912C170.162 134.912 171.329 133.28 171.329 131.266C171.342 130.489 171.159 129.722 170.798 129.035Z" fill="#F2F2F2"/>
<path opacity="0.03" d="M166.899 134.372C166.147 134.229 165.37 134.314 164.666 134.616C164.245 134.801 163.79 134.897 163.33 134.899C162.865 134.899 162.405 134.801 161.981 134.61C161.482 134.392 160.941 134.284 160.396 134.295C159.851 134.306 159.315 134.436 158.825 134.674C158.546 134.822 158.234 134.9 157.917 134.901C156.637 134.901 155.574 133.611 155.352 131.912C155.607 131.725 155.824 131.491 155.991 131.222C156.741 130.012 157.904 129.237 159.197 129.237C160.49 129.237 161.649 130.004 162.403 131.198C162.628 131.561 162.943 131.86 163.318 132.065C163.692 132.27 164.113 132.375 164.54 132.369H164.572C165.588 132.363 166.472 133.181 166.899 134.372Z" fill="black"/>
<path d="M180.736 87.9459L184.057 90.0539L182.04 86.3856C182.612 85.9305 183.319 85.6786 184.049 85.6696H184.103C184.334 85.6717 184.564 85.6547 184.792 85.6188L185.92 86.3322L185.428 85.4505C186.225 85.1725 186.915 84.6498 187.397 83.957L189.414 85.2341L188.14 82.9203C189.318 81.5043 190.908 80.6387 192.655 80.6387C194.752 80.6387 196.617 81.8837 197.822 83.8261C198.179 84.4073 198.683 84.8838 199.283 85.2072C199.883 85.5305 200.558 85.6891 201.239 85.6669H201.352C203.665 85.6669 205.541 88.2879 205.541 91.5261C205.541 94.7642 203.671 97.3825 201.352 97.3825C200.843 97.3808 200.343 97.2562 199.893 97.0192C199.105 96.635 198.242 96.4271 197.366 96.41C196.489 96.3929 195.619 96.5671 194.817 96.9203C194.135 97.2241 193.396 97.3815 192.65 97.3825C191.913 97.3821 191.185 97.2274 190.512 96.9283C189.717 96.5838 188.856 96.4142 187.989 96.4313C187.122 96.4484 186.269 96.6516 185.487 97.0272C185.04 97.2588 184.545 97.3806 184.041 97.3825C181.728 97.3825 179.852 94.7616 179.852 91.5261C179.842 90.2774 180.146 89.0464 180.736 87.9459Z" fill="#F2F2F2"/>
<path opacity="0.03" d="M186.988 96.5189C188.198 96.2886 189.448 96.4244 190.579 96.909C191.257 97.2119 191.991 97.3685 192.734 97.3685C193.477 97.3685 194.211 97.2119 194.889 96.909C195.692 96.5572 196.561 96.3838 197.438 96.4008C198.314 96.4179 199.177 96.625 199.965 97.0079C200.414 97.2469 200.915 97.3725 201.424 97.3739C203.478 97.3739 205.188 95.3033 205.546 92.5647C205.135 92.2653 204.786 91.8887 204.518 91.456C203.313 89.5163 201.445 88.2686 199.351 88.2686C197.256 88.2686 195.41 89.5002 194.205 91.4212C193.845 92.0005 193.341 92.477 192.743 92.8046C192.145 93.1323 191.472 93.3 190.79 93.2915H190.737C189.096 93.2941 187.683 94.6059 186.988 96.5189Z" fill="black"/>
<path d="M125.629 147.812C125.49 147.601 124.809 147.812 124.109 148.269C123.986 148.352 123.868 148.437 123.761 148.523C123.274 148.27 122.749 148.098 122.206 148.015L122.236 147.994C122.942 147.531 123.597 146.993 124.189 146.39H122.685L124.867 145.552C125.135 145.127 125.22 144.771 125.073 144.55C124.678 143.957 122.77 144.528 120.798 145.832C119.91 146.399 119.111 147.095 118.429 147.897C116.826 148.084 115.701 148.555 115.701 149.102C115.701 149.482 116.235 149.824 117.103 150.061L117.053 150.094C115.092 151.395 113.82 152.934 114.215 153.527C114.563 154.061 116.085 153.666 117.79 152.674L116.66 152.14L118.442 152.263L118.479 152.239C118.669 152.113 118.851 151.985 119.027 151.857L117.691 151.237L119.65 151.371C120.02 151.064 120.367 150.729 120.686 150.369C122.511 150.273 123.938 149.834 124.186 149.268C124.338 149.199 124.486 149.122 124.63 149.038C124.881 148.875 125.114 148.685 125.324 148.472H124.79L125.567 148.173C125.653 148.018 125.682 147.892 125.629 147.812Z" fill="#F2F2F2"/>
<path d="M73.7275 228.969C73.7337 229.884 73.6442 230.796 73.4603 231.692C73.4229 231.86 73.3855 232.026 73.3481 232.186C72.3515 236.18 69.5408 239.103 66.1878 239.29C66.0756 239.29 65.9634 239.29 65.8458 239.29C62.3004 239.29 59.3027 236.231 58.3115 232.018C58.2847 231.906 58.2607 231.793 58.234 231.681C58.0456 230.786 57.9516 229.873 57.9534 228.959C57.9534 223.252 61.4882 218.627 65.8458 218.627C70.2034 218.627 73.7275 223.262 73.7275 228.969Z" fill="#3F3D56"/>
<path opacity="0.1" d="M73.7275 228.968C73.7337 229.882 73.6442 230.795 73.4603 231.691C73.4229 231.859 73.3855 232.025 73.3481 232.185C73.2279 232.185 73.113 232.185 72.9927 232.172C72.1242 232.123 71.2611 232.004 70.4118 231.816C69.6585 232.052 68.8887 232.23 68.1088 232.351C67.5113 232.441 66.9092 232.497 66.3053 232.519C66.1023 232.519 65.8992 232.519 65.6962 232.519C64.9733 232.52 64.2512 232.471 63.5347 232.375C62.3769 232.221 61.2397 231.938 60.1443 231.533C59.5435 231.732 58.9315 231.897 58.3115 232.025C58.2847 231.912 58.2607 231.8 58.234 231.688C58.0456 230.793 57.9516 229.88 57.9534 228.965C57.9534 223.259 61.4882 218.634 65.8458 218.634C70.2034 218.634 73.7275 223.261 73.7275 228.968Z" fill="black"/>
<path d="M90.5648 209.721C90.5659 207.215 89.9774 204.744 88.8469 202.507L79.5625 205.395L87.7114 200.602C86.3454 198.627 84.5532 196.984 82.4671 195.795C80.3811 194.606 78.0544 193.9 75.6591 193.73C75.2766 193.144 74.8562 192.584 74.4007 192.053L61.058 196.202L71.9961 189.784C69.9059 188.179 67.4521 187.113 64.852 186.682C62.2518 186.252 59.5855 186.468 57.0891 187.314C54.5928 188.159 52.3434 189.607 50.5401 191.529C48.7368 193.452 47.4353 195.789 46.7507 198.334L58.1725 211.479L45.7702 202.523C42.6199 204.744 40.3741 208.024 39.4437 211.764C38.5132 215.504 38.9603 219.454 40.7031 222.892C42.446 226.33 45.368 229.025 48.9349 230.485C52.5018 231.945 56.4752 232.073 60.1282 230.844C63.4284 232.053 67.0334 232.148 70.3931 231.116C72.7369 231.631 75.1665 231.615 77.503 231.067C79.8395 230.52 82.0235 229.455 83.8946 227.953C85.7656 226.45 87.276 224.547 88.3148 222.384C89.3535 220.22 89.8941 217.852 89.8969 215.452C89.8969 215.094 89.8835 214.741 89.8595 214.383C90.3234 212.872 90.5611 211.301 90.5648 209.721Z" fill="#57B894"/>
<path opacity="0.1" d="M90.2869 212.697C85.3851 211.769 80.3586 211.705 75.4347 212.508C69.8614 213.432 64.1652 215.46 58.7148 213.977C55.5087 213.106 52.7461 211.094 49.6309 209.97C46.613 208.919 43.3623 208.728 40.2423 209.419C39.0523 212.263 38.7064 215.389 39.2461 218.424C39.7858 221.46 41.1882 224.275 43.2857 226.534C45.3832 228.794 48.0869 230.401 51.0737 231.164C54.0605 231.928 57.204 231.814 60.1282 230.839C63.4278 232.049 67.0328 232.147 70.3931 231.116C72.7369 231.632 75.1664 231.615 77.5029 231.067C79.8394 230.52 82.0235 229.456 83.8945 227.953C85.7656 226.45 87.276 224.547 88.3147 222.384C89.3535 220.22 89.8941 217.852 89.8969 215.452C89.8969 215.094 89.8835 214.741 89.8595 214.383C90.0338 213.83 90.1765 213.267 90.2869 212.697Z" fill="black"/>
</g>
<path d="M25.8359 315.176C24.3418 315.176 23.1758 314.751 22.3379 313.901C21.5 313.046 21.0811 311.804 21.0811 310.175C21.0811 309.302 21.1836 308.458 21.3887 307.644C21.5938 306.829 21.8984 306.079 22.3027 305.394C22.707 304.702 23.2109 304.099 23.8145 303.583C24.4238 303.067 25.127 302.666 25.9238 302.379C26.7207 302.092 27.6143 301.948 28.6045 301.948C29.2666 301.948 29.8877 302.019 30.4678 302.159C31.0479 302.3 31.6279 302.52 32.208 302.818L31.1973 305.024C30.7695 304.79 30.3359 304.603 29.8965 304.462C29.4629 304.321 28.9912 304.251 28.4814 304.251C27.6904 304.251 27.002 304.421 26.416 304.761C25.8359 305.095 25.3525 305.54 24.9658 306.097C24.5791 306.647 24.2891 307.26 24.0957 307.934C23.9082 308.607 23.8145 309.284 23.8145 309.964C23.8145 310.597 23.9023 311.133 24.0781 311.572C24.2539 312.006 24.5322 312.334 24.9131 312.557C25.2998 312.779 25.7979 312.891 26.4072 312.891C26.7061 312.891 26.9668 312.87 27.1895 312.829C27.4121 312.788 27.6494 312.738 27.9014 312.68L28.4814 310.052H26.1348L26.627 307.784H31.5752L30.1514 314.481C29.5654 314.681 28.9443 314.848 28.2881 314.982C27.6318 315.111 26.8145 315.176 25.8359 315.176ZM35.8994 315.176C35.3369 315.176 34.8711 315.062 34.502 314.833C34.1328 314.604 33.8574 314.279 33.6758 313.857C33.4941 313.43 33.4033 312.929 33.4033 312.354C33.4033 312.138 33.4209 311.859 33.4561 311.52C33.4912 311.18 33.5439 310.834 33.6143 310.482L34.7305 305.174H37.376L36.1719 310.913C36.1309 311.112 36.0957 311.3 36.0664 311.476C36.043 311.651 36.0312 311.812 36.0312 311.959C36.0312 312.328 36.1104 312.601 36.2686 312.776C36.4268 312.952 36.6641 313.04 36.9805 313.04C37.3848 313.04 37.7451 312.87 38.0615 312.53C38.3838 312.185 38.665 311.725 38.9053 311.15C39.1455 310.57 39.3389 309.935 39.4854 309.243L40.3467 305.174H42.9922L40.9092 315H38.8877L39.0723 313.181H38.9756C38.7236 313.567 38.4453 313.913 38.1406 314.218C37.8418 314.517 37.5078 314.751 37.1387 314.921C36.7695 315.091 36.3564 315.176 35.8994 315.176ZM43.6338 315L45.7168 305.174H48.3623L46.2793 315H43.6338ZM47.4658 303.952C47.0908 303.952 46.7744 303.87 46.5166 303.706C46.2646 303.542 46.1387 303.264 46.1387 302.871C46.1387 302.531 46.2002 302.247 46.3232 302.019C46.4521 301.79 46.6367 301.617 46.877 301.5C47.1172 301.383 47.4043 301.324 47.7383 301.324C48.0898 301.324 48.3945 301.4 48.6523 301.553C48.916 301.705 49.0479 301.98 49.0479 302.379C49.0479 302.848 48.9189 303.229 48.6611 303.521C48.4033 303.809 48.0049 303.952 47.4658 303.952ZM52.2207 315.176C51.7461 315.176 51.2979 315.059 50.876 314.824C50.4541 314.59 50.1084 314.212 49.8389 313.69C49.5752 313.163 49.4434 312.466 49.4434 311.599C49.4434 310.96 49.5107 310.324 49.6455 309.691C49.7861 309.059 49.9854 308.461 50.2432 307.898C50.5068 307.33 50.8232 306.829 51.1924 306.396C51.5674 305.956 51.9893 305.613 52.458 305.367C52.9326 305.115 53.4453 304.989 53.9961 304.989C54.3887 304.989 54.7197 305.054 54.9893 305.183C55.2646 305.312 55.502 305.484 55.7012 305.701C55.9004 305.918 56.0762 306.161 56.2285 306.431H56.2988C56.2988 306.396 56.3076 306.267 56.3252 306.044C56.3428 305.821 56.3691 305.566 56.4043 305.279C56.4395 304.986 56.4834 304.717 56.5361 304.471L57.2041 301.324H59.8496L56.9492 315H54.9365L55.0947 313.726H55.0244C54.79 314.013 54.5352 314.265 54.2598 314.481C53.9902 314.698 53.6885 314.868 53.3545 314.991C53.0205 315.114 52.6426 315.176 52.2207 315.176ZM53.3281 313.04C53.6035 313.04 53.8525 312.967 54.0752 312.82C54.3037 312.668 54.5029 312.469 54.6729 312.223C54.8486 311.971 54.998 311.689 55.1211 311.379C55.25 311.068 55.3555 310.752 55.4375 310.43C55.5195 310.102 55.5781 309.785 55.6133 309.48C55.6543 309.176 55.6748 308.909 55.6748 308.681C55.6748 308.212 55.5635 307.837 55.3408 307.556C55.124 307.274 54.8252 307.134 54.4443 307.134C54.1865 307.134 53.9404 307.219 53.7061 307.389C53.4775 307.553 53.2666 307.781 53.0732 308.074C52.8799 308.361 52.71 308.692 52.5635 309.067C52.4229 309.437 52.3145 309.829 52.2383 310.245C52.1621 310.661 52.124 311.077 52.124 311.493C52.124 312.003 52.2266 312.39 52.4316 312.653C52.6426 312.911 52.9414 313.04 53.3281 313.04ZM64.0332 315.176C63.2656 315.176 62.5889 315.038 62.0029 314.763C61.4229 314.481 60.9688 314.06 60.6406 313.497C60.3125 312.935 60.1484 312.229 60.1484 311.379C60.1484 310.559 60.2656 309.768 60.5 309.006C60.7344 308.238 61.083 307.553 61.5459 306.949C62.0146 306.346 62.5889 305.868 63.2686 305.517C63.9541 305.165 64.7451 304.989 65.6416 304.989C66.7432 304.989 67.5664 305.241 68.1113 305.745C68.6621 306.243 68.9375 306.885 68.9375 307.67C68.9375 308.186 68.8203 308.654 68.5859 309.076C68.3574 309.498 68.0088 309.861 67.54 310.166C67.0713 310.465 66.4824 310.696 65.7734 310.86C65.0645 311.019 64.2324 311.098 63.2773 311.098H62.8291C62.8232 311.168 62.8174 311.229 62.8115 311.282C62.8115 311.335 62.8115 311.394 62.8115 311.458C62.8115 311.985 62.9639 312.404 63.2686 312.715C63.5732 313.025 64.0039 313.181 64.5605 313.181C65.0762 313.181 65.5449 313.122 65.9668 313.005C66.3887 312.888 66.8867 312.694 67.4609 312.425V314.42C66.9453 314.672 66.4209 314.862 65.8877 314.991C65.3545 315.114 64.7363 315.176 64.0332 315.176ZM63.1191 309.313H63.5146C64.1943 309.313 64.7451 309.24 65.167 309.094C65.5947 308.947 65.9053 308.754 66.0986 308.514C66.2979 308.273 66.3975 308.013 66.3975 307.731C66.3975 307.45 66.3154 307.242 66.1514 307.107C65.9932 306.967 65.7676 306.896 65.4746 306.896C65.1465 306.896 64.8213 306.999 64.499 307.204C64.1768 307.409 63.8926 307.693 63.6465 308.057C63.4004 308.42 63.2246 308.839 63.1191 309.313ZM72.9629 315.176C72.4883 315.176 72.04 315.059 71.6182 314.824C71.1963 314.59 70.8506 314.212 70.5811 313.69C70.3174 313.163 70.1855 312.466 70.1855 311.599C70.1855 310.96 70.2529 310.324 70.3877 309.691C70.5283 309.059 70.7275 308.461 70.9854 307.898C71.249 307.33 71.5654 306.829 71.9346 306.396C72.3096 305.956 72.7314 305.613 73.2002 305.367C73.6748 305.115 74.1875 304.989 74.7383 304.989C75.1309 304.989 75.4619 305.054 75.7314 305.183C76.0068 305.312 76.2441 305.484 76.4434 305.701C76.6426 305.918 76.8184 306.161 76.9707 306.431H77.041C77.041 306.396 77.0498 306.267 77.0674 306.044C77.085 305.821 77.1113 305.566 77.1465 305.279C77.1816 304.986 77.2256 304.717 77.2783 304.471L77.9463 301.324H80.5918L77.6914 315H75.6787L75.8369 313.726H75.7666C75.5322 314.013 75.2773 314.265 75.002 314.481C74.7324 314.698 74.4307 314.868 74.0967 314.991C73.7627 315.114 73.3848 315.176 72.9629 315.176ZM74.0703 313.04C74.3457 313.04 74.5947 312.967 74.8174 312.82C75.0459 312.668 75.2451 312.469 75.415 312.223C75.5908 311.971 75.7402 311.689 75.8633 311.379C75.9922 311.068 76.0977 310.752 76.1797 310.43C76.2617 310.102 76.3203 309.785 76.3555 309.48C76.3965 309.176 76.417 308.909 76.417 308.681C76.417 308.212 76.3057 307.837 76.083 307.556C75.8662 307.274 75.5674 307.134 75.1865 307.134C74.9287 307.134 74.6826 307.219 74.4482 307.389C74.2197 307.553 74.0088 307.781 73.8154 308.074C73.6221 308.361 73.4521 308.692 73.3057 309.067C73.165 309.437 73.0566 309.829 72.9805 310.245C72.9043 310.661 72.8662 311.077 72.8662 311.493C72.8662 312.003 72.9688 312.39 73.1738 312.653C73.3848 312.911 73.6836 313.04 74.0703 313.04ZM85.2412 315L87.957 302.15H91.5078L92.0791 311.757H92.1582L96.9834 302.15H100.701L97.9854 315H95.5244L96.7988 308.918C96.8867 308.514 96.9863 308.08 97.0977 307.617C97.209 307.154 97.3232 306.697 97.4404 306.246C97.5576 305.795 97.6631 305.394 97.7568 305.042H97.6777L92.6768 315H90.207L89.6709 305.042H89.6006C89.5713 305.3 89.5215 305.648 89.4512 306.088C89.3809 306.527 89.2988 307.005 89.2051 307.521C89.1172 308.03 89.0205 308.531 88.915 309.023L87.6582 315H85.2412ZM105.289 315.176C104.521 315.176 103.845 315.038 103.259 314.763C102.679 314.481 102.225 314.06 101.896 313.497C101.568 312.935 101.404 312.229 101.404 311.379C101.404 310.559 101.521 309.768 101.756 309.006C101.99 308.238 102.339 307.553 102.802 306.949C103.271 306.346 103.845 305.868 104.524 305.517C105.21 305.165 106.001 304.989 106.897 304.989C107.999 304.989 108.822 305.241 109.367 305.745C109.918 306.243 110.193 306.885 110.193 307.67C110.193 308.186 110.076 308.654 109.842 309.076C109.613 309.498 109.265 309.861 108.796 310.166C108.327 310.465 107.738 310.696 107.029 310.86C106.32 311.019 105.488 311.098 104.533 311.098H104.085C104.079 311.168 104.073 311.229 104.067 311.282C104.067 311.335 104.067 311.394 104.067 311.458C104.067 311.985 104.22 312.404 104.524 312.715C104.829 313.025 105.26 313.181 105.816 313.181C106.332 313.181 106.801 313.122 107.223 313.005C107.645 312.888 108.143 312.694 108.717 312.425V314.42C108.201 314.672 107.677 314.862 107.144 314.991C106.61 315.114 105.992 315.176 105.289 315.176ZM104.375 309.313H104.771C105.45 309.313 106.001 309.24 106.423 309.094C106.851 308.947 107.161 308.754 107.354 308.514C107.554 308.273 107.653 308.013 107.653 307.731C107.653 307.45 107.571 307.242 107.407 307.107C107.249 306.967 107.023 306.896 106.73 306.896C106.402 306.896 106.077 306.999 105.755 307.204C105.433 307.409 105.148 307.693 104.902 308.057C104.656 308.42 104.48 308.839 104.375 309.313ZM114.219 315.176C113.744 315.176 113.296 315.059 112.874 314.824C112.452 314.59 112.106 314.212 111.837 313.69C111.573 313.163 111.441 312.466 111.441 311.599C111.441 310.96 111.509 310.324 111.644 309.691C111.784 309.059 111.983 308.461 112.241 307.898C112.505 307.33 112.821 306.829 113.19 306.396C113.565 305.956 113.987 305.613 114.456 305.367C114.931 305.115 115.443 304.989 115.994 304.989C116.387 304.989 116.718 305.054 116.987 305.183C117.263 305.312 117.5 305.484 117.699 305.701C117.898 305.918 118.074 306.161 118.227 306.431H118.297C118.297 306.396 118.306 306.267 118.323 306.044C118.341 305.821 118.367 305.566 118.402 305.279C118.438 304.986 118.481 304.717 118.534 304.471L119.202 301.324H121.848L118.947 315H116.935L117.093 313.726H117.022C116.788 314.013 116.533 314.265 116.258 314.481C115.988 314.698 115.687 314.868 115.353 314.991C115.019 315.114 114.641 315.176 114.219 315.176ZM115.326 313.04C115.602 313.04 115.851 312.967 116.073 312.82C116.302 312.668 116.501 312.469 116.671 312.223C116.847 311.971 116.996 311.689 117.119 311.379C117.248 311.068 117.354 310.752 117.436 310.43C117.518 310.102 117.576 309.785 117.611 309.48C117.652 309.176 117.673 308.909 117.673 308.681C117.673 308.212 117.562 307.837 117.339 307.556C117.122 307.274 116.823 307.134 116.442 307.134C116.185 307.134 115.938 307.219 115.704 307.389C115.476 307.553 115.265 307.781 115.071 308.074C114.878 308.361 114.708 308.692 114.562 309.067C114.421 309.437 114.312 309.829 114.236 310.245C114.16 310.661 114.122 311.077 114.122 311.493C114.122 312.003 114.225 312.39 114.43 312.653C114.641 312.911 114.939 313.04 115.326 313.04ZM121.681 315L123.764 305.174H126.409L124.326 315H121.681ZM125.513 303.952C125.138 303.952 124.821 303.87 124.563 303.706C124.312 303.542 124.186 303.264 124.186 302.871C124.186 302.531 124.247 302.247 124.37 302.019C124.499 301.79 124.684 301.617 124.924 301.5C125.164 301.383 125.451 301.324 125.785 301.324C126.137 301.324 126.441 301.4 126.699 301.553C126.963 301.705 127.095 301.98 127.095 302.379C127.095 302.848 126.966 303.229 126.708 303.521C126.45 303.809 126.052 303.952 125.513 303.952ZM130.303 315.176C129.523 315.176 128.902 315.012 128.439 314.684C127.977 314.355 127.745 313.764 127.745 312.908C127.745 312.768 127.754 312.615 127.771 312.451C127.789 312.281 127.815 312.105 127.851 311.924L128.861 307.187H127.525L127.78 305.895L129.503 305.156L130.663 303.082H132.368L131.938 305.174H134.425L133.985 307.187H131.507L130.496 311.924C130.479 312.012 130.464 312.1 130.452 312.188C130.446 312.27 130.443 312.337 130.443 312.39C130.443 312.624 130.514 312.791 130.654 312.891C130.795 312.99 130.982 313.04 131.217 313.04C131.457 313.04 131.686 313.014 131.902 312.961C132.125 312.902 132.371 312.826 132.641 312.732V314.71C132.359 314.845 132.02 314.956 131.621 315.044C131.229 315.132 130.789 315.176 130.303 315.176ZM137.65 315.176C137.176 315.176 136.728 315.059 136.306 314.824C135.884 314.59 135.538 314.212 135.269 313.69C135.005 313.169 134.873 312.478 134.873 311.616C134.873 310.972 134.94 310.333 135.075 309.7C135.216 309.067 135.415 308.47 135.673 307.907C135.937 307.339 136.253 306.838 136.622 306.404C136.997 305.965 137.419 305.619 137.888 305.367C138.362 305.115 138.875 304.989 139.426 304.989C139.842 304.989 140.205 305.051 140.516 305.174C140.826 305.291 141.093 305.458 141.315 305.675C141.538 305.892 141.72 306.144 141.86 306.431H141.931L142.432 305.174H144.471L142.379 315H140.401L140.524 313.726H140.454C140.22 314.013 139.965 314.265 139.689 314.481C139.414 314.698 139.109 314.868 138.775 314.991C138.441 315.114 138.066 315.176 137.65 315.176ZM138.688 313.04C139.051 313.04 139.388 312.899 139.698 312.618C140.009 312.331 140.275 311.959 140.498 311.502C140.721 311.045 140.879 310.562 140.973 310.052C141.02 309.817 141.052 309.583 141.069 309.349C141.093 309.108 141.104 308.851 141.104 308.575C141.104 308.159 140.993 307.816 140.771 307.547C140.554 307.271 140.255 307.134 139.874 307.134C139.616 307.134 139.37 307.219 139.136 307.389C138.907 307.553 138.696 307.781 138.503 308.074C138.31 308.361 138.14 308.692 137.993 309.067C137.853 309.437 137.744 309.829 137.668 310.245C137.592 310.661 137.554 311.077 137.554 311.493C137.554 312.003 137.653 312.39 137.853 312.653C138.052 312.911 138.33 313.04 138.688 313.04ZM148.391 315.176C147.611 315.176 146.99 315.012 146.527 314.684C146.064 314.355 145.833 313.764 145.833 312.908C145.833 312.768 145.842 312.615 145.859 312.451C145.877 312.281 145.903 312.105 145.938 311.924L146.949 307.187H145.613L145.868 305.895L147.591 305.156L148.751 303.082H150.456L150.025 305.174H152.513L152.073 307.187H149.595L148.584 311.924C148.566 312.012 148.552 312.1 148.54 312.188C148.534 312.27 148.531 312.337 148.531 312.39C148.531 312.624 148.602 312.791 148.742 312.891C148.883 312.99 149.07 313.04 149.305 313.04C149.545 313.04 149.773 313.014 149.99 312.961C150.213 312.902 150.459 312.826 150.729 312.732V314.71C150.447 314.845 150.107 314.956 149.709 315.044C149.316 315.132 148.877 315.176 148.391 315.176ZM152.495 315L154.578 305.174H157.224L155.141 315H152.495ZM156.327 303.952C155.952 303.952 155.636 303.87 155.378 303.706C155.126 303.542 155 303.264 155 302.871C155 302.531 155.062 302.247 155.185 302.019C155.313 301.79 155.498 301.617 155.738 301.5C155.979 301.383 156.266 301.324 156.6 301.324C156.951 301.324 157.256 301.4 157.514 301.553C157.777 301.705 157.909 301.98 157.909 302.379C157.909 302.848 157.78 303.229 157.522 303.521C157.265 303.809 156.866 303.952 156.327 303.952ZM162.066 315.176C161.328 315.176 160.675 315.023 160.106 314.719C159.544 314.414 159.102 313.98 158.779 313.418C158.463 312.85 158.305 312.176 158.305 311.396C158.305 310.699 158.372 310.034 158.507 309.401C158.647 308.763 158.855 308.177 159.131 307.644C159.412 307.104 159.761 306.639 160.177 306.246C160.599 305.848 161.088 305.54 161.645 305.323C162.201 305.101 162.828 304.989 163.525 304.989C164.287 304.989 164.946 305.145 165.503 305.455C166.06 305.76 166.49 306.202 166.795 306.782C167.1 307.362 167.252 308.062 167.252 308.883C167.252 309.551 167.185 310.195 167.05 310.816C166.921 311.432 166.722 312.006 166.452 312.539C166.183 313.066 165.843 313.529 165.433 313.928C165.022 314.32 164.536 314.628 163.974 314.851C163.417 315.067 162.781 315.176 162.066 315.176ZM162.286 313.022C162.579 313.022 162.846 312.949 163.086 312.803C163.326 312.65 163.54 312.442 163.728 312.179C163.915 311.909 164.07 311.602 164.193 311.256C164.322 310.904 164.419 310.526 164.483 310.122C164.554 309.718 164.589 309.305 164.589 308.883C164.589 308.549 164.548 308.253 164.466 307.995C164.39 307.731 164.258 307.526 164.07 307.38C163.889 307.228 163.643 307.151 163.332 307.151C163.01 307.151 162.72 307.242 162.462 307.424C162.21 307.6 161.99 307.837 161.803 308.136C161.615 308.435 161.46 308.769 161.337 309.138C161.214 309.507 161.12 309.888 161.056 310.28C160.997 310.667 160.968 311.039 160.968 311.396C160.968 311.93 161.076 312.334 161.293 312.609C161.51 312.885 161.841 313.022 162.286 313.022ZM168.368 315L170.451 305.174H172.473L172.288 306.993H172.367C172.619 306.601 172.897 306.255 173.202 305.956C173.507 305.657 173.844 305.423 174.213 305.253C174.588 305.077 175.004 304.989 175.461 304.989C176.023 304.989 176.492 305.106 176.867 305.341C177.248 305.569 177.532 305.895 177.72 306.316C177.907 306.738 178.001 307.239 178.001 307.819C178.001 308.036 177.983 308.279 177.948 308.549C177.913 308.818 177.863 309.103 177.799 309.401L176.63 315H173.984L175.188 309.261C175.235 309.062 175.271 308.874 175.294 308.698C175.317 308.522 175.329 308.361 175.329 308.215C175.329 307.846 175.25 307.573 175.092 307.397C174.934 307.222 174.696 307.134 174.38 307.134C173.981 307.134 173.621 307.307 173.299 307.652C172.977 307.992 172.695 308.449 172.455 309.023C172.221 309.598 172.027 310.233 171.875 310.931L171.014 315H168.368ZM182.07 315.176C181.443 315.176 180.896 315.132 180.427 315.044C179.964 314.956 179.53 314.81 179.126 314.604V312.425C179.565 312.677 180.017 312.873 180.479 313.014C180.948 313.148 181.432 313.216 181.93 313.216C182.205 313.216 182.463 313.178 182.703 313.102C182.949 313.025 183.148 312.908 183.301 312.75C183.453 312.592 183.529 312.393 183.529 312.152C183.529 311.988 183.491 311.842 183.415 311.713C183.339 311.584 183.192 311.443 182.976 311.291C182.765 311.133 182.457 310.942 182.053 310.72C181.648 310.491 181.303 310.257 181.016 310.017C180.734 309.776 180.518 309.504 180.365 309.199C180.219 308.895 180.146 308.537 180.146 308.127C180.146 307.447 180.295 306.876 180.594 306.413C180.893 305.944 181.32 305.59 181.877 305.35C182.439 305.109 183.11 304.989 183.89 304.989C184.458 304.989 185.006 305.054 185.533 305.183C186.061 305.312 186.576 305.525 187.08 305.824L186.21 307.714C185.864 307.503 185.495 307.327 185.103 307.187C184.716 307.046 184.329 306.976 183.942 306.976C183.655 306.976 183.397 307.043 183.169 307.178C182.94 307.312 182.826 307.521 182.826 307.802C182.826 307.954 182.867 308.095 182.949 308.224C183.031 308.347 183.169 308.473 183.362 308.602C183.562 308.73 183.828 308.883 184.162 309.059C184.561 309.264 184.912 309.492 185.217 309.744C185.527 309.99 185.771 310.277 185.946 310.605C186.122 310.928 186.21 311.312 186.21 311.757C186.21 312.507 186.04 313.137 185.7 313.646C185.36 314.15 184.88 314.531 184.259 314.789C183.644 315.047 182.914 315.176 182.07 315.176ZM191.729 319.324C191.448 319.324 191.17 319.301 190.895 319.254C190.613 319.213 190.382 319.163 190.2 319.104V316.978C190.388 317.042 190.561 317.089 190.719 317.118C190.877 317.147 191.041 317.162 191.211 317.162C191.568 317.162 191.882 317.042 192.151 316.802C192.421 316.567 192.611 316.189 192.723 315.668L194.516 307.187H193.083L193.347 305.912L194.955 305.174L195.113 304.436C195.242 303.838 195.412 303.334 195.623 302.924C195.84 302.514 196.098 302.186 196.396 301.939C196.695 301.688 197.038 301.506 197.425 301.395C197.817 301.283 198.254 301.228 198.734 301.228C199.139 301.228 199.511 301.266 199.851 301.342C200.196 301.418 200.513 301.523 200.8 301.658L200.097 303.627C199.927 303.551 199.748 303.486 199.561 303.434C199.373 303.381 199.162 303.354 198.928 303.354C198.594 303.354 198.324 303.472 198.119 303.706C197.914 303.94 197.776 304.248 197.706 304.629L197.601 305.174H199.525L199.095 307.187H197.161L195.271 316.063C195.148 316.661 194.949 317.206 194.674 317.698C194.404 318.196 194.029 318.592 193.549 318.885C193.074 319.178 192.468 319.324 191.729 319.324ZM203.393 315.176C202.654 315.176 202.001 315.023 201.433 314.719C200.87 314.414 200.428 313.98 200.105 313.418C199.789 312.85 199.631 312.176 199.631 311.396C199.631 310.699 199.698 310.034 199.833 309.401C199.974 308.763 200.182 308.177 200.457 307.644C200.738 307.104 201.087 306.639 201.503 306.246C201.925 305.848 202.414 305.54 202.971 305.323C203.527 305.101 204.154 304.989 204.852 304.989C205.613 304.989 206.272 305.145 206.829 305.455C207.386 305.76 207.816 306.202 208.121 306.782C208.426 307.362 208.578 308.062 208.578 308.883C208.578 309.551 208.511 310.195 208.376 310.816C208.247 311.432 208.048 312.006 207.778 312.539C207.509 313.066 207.169 313.529 206.759 313.928C206.349 314.32 205.862 314.628 205.3 314.851C204.743 315.067 204.107 315.176 203.393 315.176ZM203.612 313.022C203.905 313.022 204.172 312.949 204.412 312.803C204.652 312.65 204.866 312.442 205.054 312.179C205.241 311.909 205.396 311.602 205.52 311.256C205.648 310.904 205.745 310.526 205.81 310.122C205.88 309.718 205.915 309.305 205.915 308.883C205.915 308.549 205.874 308.253 205.792 307.995C205.716 307.731 205.584 307.526 205.396 307.38C205.215 307.228 204.969 307.151 204.658 307.151C204.336 307.151 204.046 307.242 203.788 307.424C203.536 307.6 203.316 307.837 203.129 308.136C202.941 308.435 202.786 308.769 202.663 309.138C202.54 309.507 202.446 309.888 202.382 310.28C202.323 310.667 202.294 311.039 202.294 311.396C202.294 311.93 202.402 312.334 202.619 312.609C202.836 312.885 203.167 313.022 203.612 313.022ZM209.694 315L211.777 305.174H213.799L213.614 306.993H213.711C213.975 306.577 214.262 306.22 214.572 305.921C214.883 305.622 215.22 305.394 215.583 305.235C215.946 305.071 216.342 304.989 216.77 304.989C216.91 304.989 217.06 304.998 217.218 305.016C217.382 305.033 217.514 305.057 217.613 305.086L217.033 307.635C216.939 307.6 216.813 307.567 216.655 307.538C216.503 307.509 216.336 307.494 216.154 307.494C215.826 307.494 215.513 307.562 215.214 307.696C214.915 307.825 214.64 308.019 214.388 308.276C214.136 308.534 213.913 308.859 213.72 309.252C213.532 309.639 213.383 310.09 213.271 310.605L212.34 315H209.694ZM221.946 315L224.029 305.174H226.051L225.866 306.993H225.945C226.197 306.601 226.476 306.255 226.78 305.956C227.085 305.657 227.422 305.423 227.791 305.253C228.166 305.077 228.582 304.989 229.039 304.989C229.713 304.989 230.234 305.168 230.604 305.525C230.979 305.877 231.225 306.366 231.342 306.993H231.412C231.658 306.601 231.937 306.255 232.247 305.956C232.558 305.657 232.903 305.423 233.284 305.253C233.671 305.077 234.09 304.989 234.541 304.989C235.361 304.989 235.974 305.244 236.378 305.754C236.788 306.264 236.993 306.952 236.993 307.819C236.993 308.036 236.976 308.279 236.94 308.549C236.905 308.818 236.855 309.103 236.791 309.401L235.622 315H232.977L234.189 309.261C234.236 309.062 234.271 308.874 234.295 308.698C234.318 308.522 234.33 308.361 234.33 308.215C234.33 307.846 234.257 307.573 234.11 307.397C233.97 307.222 233.756 307.134 233.469 307.134C233.164 307.134 232.883 307.23 232.625 307.424C232.367 307.617 232.133 307.887 231.922 308.232C231.711 308.578 231.523 308.979 231.359 309.437C231.201 309.894 231.069 310.386 230.964 310.913L230.12 315H227.475L228.679 309.261C228.726 309.062 228.761 308.874 228.784 308.698C228.808 308.522 228.819 308.361 228.819 308.215C228.819 307.846 228.746 307.573 228.6 307.397C228.459 307.222 228.245 307.134 227.958 307.134C227.659 307.134 227.381 307.233 227.123 307.433C226.865 307.632 226.631 307.907 226.42 308.259C226.209 308.604 226.021 309.006 225.857 309.463C225.699 309.92 225.564 310.409 225.453 310.931L224.592 315H221.946ZM242.592 315.176C241.824 315.176 241.147 315.038 240.562 314.763C239.981 314.481 239.527 314.06 239.199 313.497C238.871 312.935 238.707 312.229 238.707 311.379C238.707 310.559 238.824 309.768 239.059 309.006C239.293 308.238 239.642 307.553 240.104 306.949C240.573 306.346 241.147 305.868 241.827 305.517C242.513 305.165 243.304 304.989 244.2 304.989C245.302 304.989 246.125 305.241 246.67 305.745C247.221 306.243 247.496 306.885 247.496 307.67C247.496 308.186 247.379 308.654 247.145 309.076C246.916 309.498 246.567 309.861 246.099 310.166C245.63 310.465 245.041 310.696 244.332 310.86C243.623 311.019 242.791 311.098 241.836 311.098H241.388C241.382 311.168 241.376 311.229 241.37 311.282C241.37 311.335 241.37 311.394 241.37 311.458C241.37 311.985 241.522 312.404 241.827 312.715C242.132 313.025 242.562 313.181 243.119 313.181C243.635 313.181 244.104 313.122 244.525 313.005C244.947 312.888 245.445 312.694 246.02 312.425V314.42C245.504 314.672 244.979 314.862 244.446 314.991C243.913 315.114 243.295 315.176 242.592 315.176ZM241.678 309.313H242.073C242.753 309.313 243.304 309.24 243.726 309.094C244.153 308.947 244.464 308.754 244.657 308.514C244.856 308.273 244.956 308.013 244.956 307.731C244.956 307.45 244.874 307.242 244.71 307.107C244.552 306.967 244.326 306.896 244.033 306.896C243.705 306.896 243.38 306.999 243.058 307.204C242.735 307.409 242.451 307.693 242.205 308.057C241.959 308.42 241.783 308.839 241.678 309.313ZM248.278 315L250.361 305.174H252.383L252.198 306.993H252.277C252.529 306.601 252.808 306.255 253.112 305.956C253.417 305.657 253.754 305.423 254.123 305.253C254.498 305.077 254.914 304.989 255.371 304.989C255.934 304.989 256.402 305.106 256.777 305.341C257.158 305.569 257.442 305.895 257.63 306.316C257.817 306.738 257.911 307.239 257.911 307.819C257.911 308.036 257.894 308.279 257.858 308.549C257.823 308.818 257.773 309.103 257.709 309.401L256.54 315H253.895L255.099 309.261C255.146 309.062 255.181 308.874 255.204 308.698C255.228 308.522 255.239 308.361 255.239 308.215C255.239 307.846 255.16 307.573 255.002 307.397C254.844 307.222 254.606 307.134 254.29 307.134C253.892 307.134 253.531 307.307 253.209 307.652C252.887 307.992 252.605 308.449 252.365 309.023C252.131 309.598 251.938 310.233 251.785 310.931L250.924 315H248.278ZM262.438 315.176C261.658 315.176 261.037 315.012 260.574 314.684C260.111 314.355 259.88 313.764 259.88 312.908C259.88 312.768 259.889 312.615 259.906 312.451C259.924 312.281 259.95 312.105 259.985 311.924L260.996 307.187H259.66L259.915 305.895L261.638 305.156L262.798 303.082H264.503L264.072 305.174H266.56L266.12 307.187H263.642L262.631 311.924C262.613 312.012 262.599 312.1 262.587 312.188C262.581 312.27 262.578 312.337 262.578 312.39C262.578 312.624 262.648 312.791 262.789 312.891C262.93 312.99 263.117 313.04 263.352 313.04C263.592 313.04 263.82 313.014 264.037 312.961C264.26 312.902 264.506 312.826 264.775 312.732V314.71C264.494 314.845 264.154 314.956 263.756 315.044C263.363 315.132 262.924 315.176 262.438 315.176ZM269.785 315.176C269.311 315.176 268.862 315.059 268.44 314.824C268.019 314.59 267.673 314.212 267.403 313.69C267.14 313.169 267.008 312.478 267.008 311.616C267.008 310.972 267.075 310.333 267.21 309.7C267.351 309.067 267.55 308.47 267.808 307.907C268.071 307.339 268.388 306.838 268.757 306.404C269.132 305.965 269.554 305.619 270.022 305.367C270.497 305.115 271.01 304.989 271.561 304.989C271.977 304.989 272.34 305.051 272.65 305.174C272.961 305.291 273.228 305.458 273.45 305.675C273.673 305.892 273.854 306.144 273.995 306.431H274.065L274.566 305.174H276.605L274.514 315H272.536L272.659 313.726H272.589C272.354 314.013 272.1 314.265 271.824 314.481C271.549 314.698 271.244 314.868 270.91 314.991C270.576 315.114 270.201 315.176 269.785 315.176ZM270.822 313.04C271.186 313.04 271.522 312.899 271.833 312.618C272.144 312.331 272.41 311.959 272.633 311.502C272.855 311.045 273.014 310.562 273.107 310.052C273.154 309.817 273.187 309.583 273.204 309.349C273.228 309.108 273.239 308.851 273.239 308.575C273.239 308.159 273.128 307.816 272.905 307.547C272.688 307.271 272.39 307.134 272.009 307.134C271.751 307.134 271.505 307.219 271.271 307.389C271.042 307.553 270.831 307.781 270.638 308.074C270.444 308.361 270.274 308.692 270.128 309.067C269.987 309.437 269.879 309.829 269.803 310.245C269.727 310.661 269.688 311.077 269.688 311.493C269.688 312.003 269.788 312.39 269.987 312.653C270.187 312.911 270.465 313.04 270.822 313.04ZM277.247 315L280.147 301.324H282.793L279.893 315H277.247ZM291.389 315.176C290.709 315.176 290.091 315.056 289.534 314.815C288.983 314.569 288.544 314.183 288.216 313.655C287.894 313.122 287.732 312.425 287.732 311.563C287.732 310.854 287.806 310.175 287.952 309.524C288.099 308.874 288.315 308.273 288.603 307.723C288.89 307.172 289.244 306.694 289.666 306.29C290.088 305.88 290.571 305.561 291.116 305.332C291.661 305.104 292.268 304.989 292.936 304.989C293.521 304.989 294.046 305.045 294.509 305.156C294.978 305.268 295.414 305.423 295.818 305.622L295.01 307.635C294.693 307.5 294.383 307.383 294.078 307.283C293.773 307.184 293.428 307.134 293.041 307.134C292.625 307.134 292.253 307.254 291.925 307.494C291.603 307.734 291.327 308.057 291.099 308.461C290.876 308.865 290.706 309.319 290.589 309.823C290.472 310.321 290.413 310.828 290.413 311.344C290.413 311.713 290.472 312.023 290.589 312.275C290.712 312.527 290.885 312.718 291.107 312.847C291.336 312.976 291.608 313.04 291.925 313.04C292.37 313.04 292.783 312.973 293.164 312.838C293.545 312.697 293.938 312.524 294.342 312.319V314.481C293.932 314.698 293.489 314.868 293.015 314.991C292.54 315.114 291.998 315.176 291.389 315.176ZM295.968 315L298.868 301.324H301.514L298.613 315H295.968ZM304.555 315.176C304.08 315.176 303.632 315.059 303.21 314.824C302.788 314.59 302.442 314.212 302.173 313.69C301.909 313.169 301.777 312.478 301.777 311.616C301.777 310.972 301.845 310.333 301.979 309.7C302.12 309.067 302.319 308.47 302.577 307.907C302.841 307.339 303.157 306.838 303.526 306.404C303.901 305.965 304.323 305.619 304.792 305.367C305.267 305.115 305.779 304.989 306.33 304.989C306.746 304.989 307.109 305.051 307.42 305.174C307.73 305.291 307.997 305.458 308.22 305.675C308.442 305.892 308.624 306.144 308.765 306.431H308.835L309.336 305.174H311.375L309.283 315H307.306L307.429 313.726H307.358C307.124 314.013 306.869 314.265 306.594 314.481C306.318 314.698 306.014 314.868 305.68 314.991C305.346 315.114 304.971 315.176 304.555 315.176ZM305.592 313.04C305.955 313.04 306.292 312.899 306.603 312.618C306.913 312.331 307.18 311.959 307.402 311.502C307.625 311.045 307.783 310.562 307.877 310.052C307.924 309.817 307.956 309.583 307.974 309.349C307.997 309.108 308.009 308.851 308.009 308.575C308.009 308.159 307.897 307.816 307.675 307.547C307.458 307.271 307.159 307.134 306.778 307.134C306.521 307.134 306.274 307.219 306.04 307.389C305.812 307.553 305.601 307.781 305.407 308.074C305.214 308.361 305.044 308.692 304.897 309.067C304.757 309.437 304.648 309.829 304.572 310.245C304.496 310.661 304.458 311.077 304.458 311.493C304.458 312.003 304.558 312.39 304.757 312.653C304.956 312.911 305.234 313.04 305.592 313.04ZM312.017 315L314.1 305.174H316.121L315.937 306.993H316.033C316.297 306.577 316.584 306.22 316.895 305.921C317.205 305.622 317.542 305.394 317.905 305.235C318.269 305.071 318.664 304.989 319.092 304.989C319.232 304.989 319.382 304.998 319.54 305.016C319.704 305.033 319.836 305.057 319.936 305.086L319.355 307.635C319.262 307.6 319.136 307.567 318.978 307.538C318.825 307.509 318.658 307.494 318.477 307.494C318.148 307.494 317.835 307.562 317.536 307.696C317.237 307.825 316.962 308.019 316.71 308.276C316.458 308.534 316.235 308.859 316.042 309.252C315.854 309.639 315.705 310.09 315.594 310.605L314.662 315H312.017ZM319.593 315L321.676 305.174H324.321L322.238 315H319.593ZM323.425 303.952C323.05 303.952 322.733 303.87 322.476 303.706C322.224 303.542 322.098 303.264 322.098 302.871C322.098 302.531 322.159 302.247 322.282 302.019C322.411 301.79 322.596 301.617 322.836 301.5C323.076 301.383 323.363 301.324 323.697 301.324C324.049 301.324 324.354 301.4 324.611 301.553C324.875 301.705 325.007 301.98 325.007 302.379C325.007 302.848 324.878 303.229 324.62 303.521C324.362 303.809 323.964 303.952 323.425 303.952ZM328.215 315.176C327.436 315.176 326.814 315.012 326.352 314.684C325.889 314.355 325.657 313.764 325.657 312.908C325.657 312.768 325.666 312.615 325.684 312.451C325.701 312.281 325.728 312.105 325.763 311.924L326.773 307.187H325.438L325.692 305.895L327.415 305.156L328.575 303.082H330.28L329.85 305.174H332.337L331.897 307.187H329.419L328.408 311.924C328.391 312.012 328.376 312.1 328.364 312.188C328.358 312.27 328.355 312.337 328.355 312.39C328.355 312.624 328.426 312.791 328.566 312.891C328.707 312.99 328.895 313.04 329.129 313.04C329.369 313.04 329.598 313.014 329.814 312.961C330.037 312.902 330.283 312.826 330.553 312.732V314.71C330.271 314.845 329.932 314.956 329.533 315.044C329.141 315.132 328.701 315.176 328.215 315.176ZM332.047 319.324C331.73 319.324 331.473 319.307 331.273 319.271C331.068 319.236 330.896 319.198 330.755 319.157V317.048C330.907 317.077 331.065 317.104 331.229 317.127C331.388 317.15 331.569 317.162 331.774 317.162C332.331 317.162 332.791 316.998 333.154 316.67C333.518 316.348 333.834 315.935 334.104 315.431L334.332 315L332.891 305.174H335.483L335.976 309.727C336.005 309.996 336.025 310.286 336.037 310.597C336.055 310.901 336.066 311.203 336.072 311.502C336.078 311.801 336.081 312.067 336.081 312.302H336.151C336.233 312.103 336.315 311.88 336.397 311.634C336.485 311.388 336.585 311.121 336.696 310.834C336.813 310.541 336.951 310.23 337.109 309.902L339.395 305.174H342.269L336.292 316.406C335.94 317.068 335.545 317.616 335.105 318.05C334.672 318.483 334.2 318.803 333.69 319.008C333.181 319.219 332.633 319.324 332.047 319.324Z" fill="#202125"/>
<path d="M24.5469 328.578C26.0208 328.578 27.0964 328.867 27.7734 329.445C28.4557 330.018 28.7969 330.841 28.7969 331.914C28.7969 332.398 28.7161 332.859 28.5547 333.297C28.3984 333.729 28.1432 334.112 27.7891 334.445C27.4349 334.773 26.9688 335.034 26.3906 335.227C25.8177 335.414 25.1146 335.508 24.2812 335.508H22.8906V340H21.5625V328.578H24.5469ZM24.4219 329.711H22.8906V334.367H24.1328C24.862 334.367 25.4688 334.289 25.9531 334.133C26.4427 333.977 26.8099 333.724 27.0547 333.375C27.2995 333.021 27.4219 332.552 27.4219 331.969C27.4219 331.208 27.1797 330.643 26.6953 330.273C26.2109 329.898 25.4531 329.711 24.4219 329.711ZM38.375 335.703C38.375 336.406 38.2839 337.034 38.1016 337.586C37.9193 338.138 37.6562 338.604 37.3125 338.984C36.9688 339.365 36.5521 339.656 36.0625 339.859C35.5781 340.057 35.0286 340.156 34.4141 340.156C33.8411 340.156 33.3151 340.057 32.8359 339.859C32.362 339.656 31.9505 339.365 31.6016 338.984C31.2578 338.604 30.9896 338.138 30.7969 337.586C30.6094 337.034 30.5156 336.406 30.5156 335.703C30.5156 334.766 30.6745 333.969 30.9922 333.312C31.3099 332.651 31.763 332.148 32.3516 331.805C32.9453 331.456 33.651 331.281 34.4688 331.281C35.25 331.281 35.9323 331.456 36.5156 331.805C37.1042 332.154 37.5599 332.659 37.8828 333.32C38.2109 333.977 38.375 334.771 38.375 335.703ZM31.8594 335.703C31.8594 336.391 31.9505 336.987 32.1328 337.492C32.3151 337.997 32.5964 338.388 32.9766 338.664C33.3568 338.94 33.8464 339.078 34.4453 339.078C35.0391 339.078 35.526 338.94 35.9062 338.664C36.2917 338.388 36.5755 337.997 36.7578 337.492C36.9401 336.987 37.0312 336.391 37.0312 335.703C37.0312 335.021 36.9401 334.432 36.7578 333.938C36.5755 333.438 36.2943 333.052 35.9141 332.781C35.5339 332.51 35.0417 332.375 34.4375 332.375C33.5469 332.375 32.8932 332.669 32.4766 333.258C32.0651 333.846 31.8594 334.661 31.8594 335.703ZM46.1562 337.656C46.1562 338.203 46.0182 338.664 45.7422 339.039C45.4714 339.409 45.0807 339.688 44.5703 339.875C44.0651 340.062 43.4609 340.156 42.7578 340.156C42.1589 340.156 41.6406 340.109 41.2031 340.016C40.7656 339.922 40.3828 339.789 40.0547 339.617V338.422C40.4036 338.594 40.8203 338.75 41.3047 338.891C41.7891 339.031 42.2839 339.102 42.7891 339.102C43.5286 339.102 44.0651 338.982 44.3984 338.742C44.7318 338.503 44.8984 338.177 44.8984 337.766C44.8984 337.531 44.8307 337.326 44.6953 337.148C44.5651 336.966 44.3438 336.792 44.0312 336.625C43.7188 336.453 43.2865 336.266 42.7344 336.062C42.1875 335.854 41.7135 335.648 41.3125 335.445C40.9167 335.237 40.6094 334.984 40.3906 334.688C40.1771 334.391 40.0703 334.005 40.0703 333.531C40.0703 332.807 40.362 332.253 40.9453 331.867C41.5339 331.477 42.3047 331.281 43.2578 331.281C43.7734 331.281 44.2552 331.333 44.7031 331.438C45.1562 331.536 45.5781 331.672 45.9688 331.844L45.5312 332.883C45.1771 332.732 44.7995 332.604 44.3984 332.5C43.9974 332.396 43.5885 332.344 43.1719 332.344C42.5729 332.344 42.112 332.443 41.7891 332.641C41.4714 332.839 41.3125 333.109 41.3125 333.453C41.3125 333.719 41.3854 333.938 41.5312 334.109C41.6823 334.281 41.9219 334.443 42.25 334.594C42.5781 334.745 43.0104 334.922 43.5469 335.125C44.0833 335.323 44.5469 335.529 44.9375 335.742C45.3281 335.951 45.6276 336.206 45.8359 336.508C46.0495 336.805 46.1562 337.188 46.1562 337.656ZM49.5391 331.438V340H48.2422V331.438H49.5391ZM48.9062 328.234C49.1198 328.234 49.3021 328.305 49.4531 328.445C49.6094 328.581 49.6875 328.794 49.6875 329.086C49.6875 329.372 49.6094 329.586 49.4531 329.727C49.3021 329.867 49.1198 329.938 48.9062 329.938C48.6823 329.938 48.4948 329.867 48.3438 329.727C48.1979 329.586 48.125 329.372 48.125 329.086C48.125 328.794 48.1979 328.581 48.3438 328.445C48.4948 328.305 48.6823 328.234 48.9062 328.234ZM55.0547 339.094C55.2682 339.094 55.487 339.076 55.7109 339.039C55.9349 339.003 56.1172 338.958 56.2578 338.906V339.914C56.1068 339.982 55.8958 340.039 55.625 340.086C55.3594 340.133 55.099 340.156 54.8438 340.156C54.3906 340.156 53.9792 340.078 53.6094 339.922C53.2396 339.76 52.9427 339.49 52.7188 339.109C52.5 338.729 52.3906 338.203 52.3906 337.531V332.453H51.1719V331.82L52.3984 331.312L52.9141 329.453H53.6953V331.438H56.2031V332.453H53.6953V337.492C53.6953 338.029 53.8177 338.43 54.0625 338.695C54.3125 338.961 54.6432 339.094 55.0547 339.094ZM59.2891 331.438V340H57.9922V331.438H59.2891ZM58.6562 328.234C58.8698 328.234 59.0521 328.305 59.2031 328.445C59.3594 328.581 59.4375 328.794 59.4375 329.086C59.4375 329.372 59.3594 329.586 59.2031 329.727C59.0521 329.867 58.8698 329.938 58.6562 329.938C58.4323 329.938 58.2448 329.867 58.0938 329.727C57.9479 329.586 57.875 329.372 57.875 329.086C57.875 328.794 57.9479 328.581 58.0938 328.445C58.2448 328.305 58.4323 328.234 58.6562 328.234ZM63.9219 340L60.6719 331.438H62.0625L63.9453 336.617C64.0755 336.971 64.2083 337.362 64.3438 337.789C64.4792 338.216 64.5729 338.56 64.625 338.82H64.6797C64.7422 338.56 64.8464 338.216 64.9922 337.789C65.138 337.357 65.2708 336.966 65.3906 336.617L67.2734 331.438H68.6641L65.4062 340H63.9219ZM73.3359 331.281C74.0651 331.281 74.6901 331.443 75.2109 331.766C75.7318 332.089 76.1302 332.542 76.4062 333.125C76.6823 333.703 76.8203 334.38 76.8203 335.156V335.961H70.9062C70.9219 336.966 71.1719 337.732 71.6562 338.258C72.1406 338.784 72.8229 339.047 73.7031 339.047C74.2448 339.047 74.724 338.997 75.1406 338.898C75.5573 338.799 75.9896 338.654 76.4375 338.461V339.602C76.0052 339.794 75.5755 339.935 75.1484 340.023C74.7266 340.112 74.2266 340.156 73.6484 340.156C72.8255 340.156 72.1068 339.99 71.4922 339.656C70.8828 339.318 70.4089 338.823 70.0703 338.172C69.7318 337.521 69.5625 336.724 69.5625 335.781C69.5625 334.859 69.7161 334.062 70.0234 333.391C70.3359 332.714 70.7734 332.193 71.3359 331.828C71.9036 331.464 72.5703 331.281 73.3359 331.281ZM73.3203 332.344C72.6276 332.344 72.0755 332.57 71.6641 333.023C71.2526 333.477 71.0078 334.109 70.9297 334.922H75.4609C75.4557 334.411 75.375 333.964 75.2188 333.578C75.0677 333.188 74.8359 332.885 74.5234 332.672C74.2109 332.453 73.8099 332.344 73.3203 332.344ZM85.9453 339.094C86.1589 339.094 86.3776 339.076 86.6016 339.039C86.8255 339.003 87.0078 338.958 87.1484 338.906V339.914C86.9974 339.982 86.7865 340.039 86.5156 340.086C86.25 340.133 85.9896 340.156 85.7344 340.156C85.2812 340.156 84.8698 340.078 84.5 339.922C84.1302 339.76 83.8333 339.49 83.6094 339.109C83.3906 338.729 83.2812 338.203 83.2812 337.531V332.453H82.0625V331.82L83.2891 331.312L83.8047 329.453H84.5859V331.438H87.0938V332.453H84.5859V337.492C84.5859 338.029 84.7083 338.43 84.9531 338.695C85.2031 338.961 85.5339 339.094 85.9453 339.094ZM90.1797 327.844V331.477C90.1797 331.685 90.1745 331.896 90.1641 332.109C90.1536 332.318 90.1354 332.51 90.1094 332.688H90.1953C90.3724 332.385 90.5964 332.133 90.8672 331.93C91.1432 331.721 91.4557 331.565 91.8047 331.461C92.1536 331.352 92.5234 331.297 92.9141 331.297C93.6016 331.297 94.1745 331.406 94.6328 331.625C95.0964 331.844 95.4427 332.182 95.6719 332.641C95.9062 333.099 96.0234 333.693 96.0234 334.422V340H94.7422V334.508C94.7422 333.794 94.5781 333.26 94.25 332.906C93.9271 332.552 93.4297 332.375 92.7578 332.375C92.1224 332.375 91.6146 332.497 91.2344 332.742C90.8594 332.982 90.5885 333.336 90.4219 333.805C90.2604 334.273 90.1797 334.846 90.1797 335.523V340H88.8828V327.844H90.1797ZM99.9922 331.438V340H98.6953V331.438H99.9922ZM99.3594 328.234C99.5729 328.234 99.7552 328.305 99.9062 328.445C100.062 328.581 100.141 328.794 100.141 329.086C100.141 329.372 100.062 329.586 99.9062 329.727C99.7552 329.867 99.5729 329.938 99.3594 329.938C99.1354 329.938 98.9479 329.867 98.7969 329.727C98.651 329.586 98.5781 329.372 98.5781 329.086C98.5781 328.794 98.651 328.581 98.7969 328.445C98.9479 328.305 99.1354 328.234 99.3594 328.234ZM106.797 331.281C107.812 331.281 108.581 331.531 109.102 332.031C109.622 332.526 109.883 333.323 109.883 334.422V340H108.602V334.508C108.602 333.794 108.438 333.26 108.109 332.906C107.786 332.552 107.289 332.375 106.617 332.375C105.669 332.375 105.003 332.643 104.617 333.18C104.232 333.716 104.039 334.495 104.039 335.516V340H102.742V331.438H103.789L103.984 332.672H104.055C104.237 332.37 104.469 332.117 104.75 331.914C105.031 331.706 105.346 331.549 105.695 331.445C106.044 331.336 106.411 331.281 106.797 331.281ZM113.844 327.844V334.156C113.844 334.365 113.836 334.62 113.82 334.922C113.805 335.219 113.792 335.482 113.781 335.711H113.836C113.945 335.576 114.104 335.375 114.312 335.109C114.526 334.844 114.706 334.63 114.852 334.469L117.695 331.438H119.219L115.773 335.094L119.469 340H117.906L114.883 335.945L113.844 336.898V340H112.555V327.844H113.844ZM122.258 331.438V340H120.961V331.438H122.258ZM121.625 328.234C121.839 328.234 122.021 328.305 122.172 328.445C122.328 328.581 122.406 328.794 122.406 329.086C122.406 329.372 122.328 329.586 122.172 329.727C122.021 329.867 121.839 329.938 121.625 329.938C121.401 329.938 121.214 329.867 121.062 329.727C120.917 329.586 120.844 329.372 120.844 329.086C120.844 328.794 120.917 328.581 121.062 328.445C121.214 328.305 121.401 328.234 121.625 328.234ZM129.062 331.281C130.078 331.281 130.846 331.531 131.367 332.031C131.888 332.526 132.148 333.323 132.148 334.422V340H130.867V334.508C130.867 333.794 130.703 333.26 130.375 332.906C130.052 332.552 129.555 332.375 128.883 332.375C127.935 332.375 127.268 332.643 126.883 333.18C126.497 333.716 126.305 334.495 126.305 335.516V340H125.008V331.438H126.055L126.25 332.672H126.32C126.503 332.37 126.734 332.117 127.016 331.914C127.297 331.706 127.612 331.549 127.961 331.445C128.31 331.336 128.677 331.281 129.062 331.281ZM137.211 343.844C136.086 343.844 135.219 343.633 134.609 343.211C134 342.794 133.695 342.208 133.695 341.453C133.695 340.917 133.865 340.458 134.203 340.078C134.547 339.698 135.021 339.445 135.625 339.32C135.401 339.216 135.208 339.06 135.047 338.852C134.891 338.643 134.812 338.404 134.812 338.133C134.812 337.82 134.898 337.547 135.07 337.312C135.247 337.073 135.516 336.844 135.875 336.625C135.427 336.443 135.062 336.135 134.781 335.703C134.505 335.266 134.367 334.758 134.367 334.18C134.367 333.565 134.495 333.042 134.75 332.609C135.005 332.172 135.375 331.839 135.859 331.609C136.344 331.38 136.93 331.266 137.617 331.266C137.768 331.266 137.919 331.273 138.07 331.289C138.227 331.299 138.375 331.318 138.516 331.344C138.656 331.365 138.779 331.391 138.883 331.422H141.82V332.258L140.242 332.453C140.398 332.656 140.529 332.901 140.633 333.188C140.737 333.474 140.789 333.792 140.789 334.141C140.789 334.995 140.5 335.674 139.922 336.18C139.344 336.68 138.549 336.93 137.539 336.93C137.299 336.93 137.055 336.909 136.805 336.867C136.549 337.008 136.354 337.164 136.219 337.336C136.089 337.508 136.023 337.706 136.023 337.93C136.023 338.096 136.073 338.229 136.172 338.328C136.276 338.427 136.424 338.5 136.617 338.547C136.81 338.589 137.042 338.609 137.312 338.609H138.82C139.753 338.609 140.466 338.805 140.961 339.195C141.461 339.586 141.711 340.156 141.711 340.906C141.711 341.854 141.326 342.581 140.555 343.086C139.784 343.591 138.669 343.844 137.211 343.844ZM137.25 342.828C137.958 342.828 138.544 342.755 139.008 342.609C139.477 342.469 139.826 342.263 140.055 341.992C140.289 341.727 140.406 341.409 140.406 341.039C140.406 340.695 140.328 340.435 140.172 340.258C140.016 340.086 139.786 339.971 139.484 339.914C139.182 339.852 138.812 339.82 138.375 339.82H136.891C136.505 339.82 136.169 339.88 135.883 340C135.596 340.12 135.375 340.297 135.219 340.531C135.068 340.766 134.992 341.057 134.992 341.406C134.992 341.87 135.188 342.221 135.578 342.461C135.969 342.706 136.526 342.828 137.25 342.828ZM137.586 335.984C138.206 335.984 138.672 335.828 138.984 335.516C139.297 335.203 139.453 334.747 139.453 334.148C139.453 333.508 139.294 333.029 138.977 332.711C138.659 332.388 138.19 332.227 137.57 332.227C136.977 332.227 136.518 332.393 136.195 332.727C135.878 333.055 135.719 333.536 135.719 334.172C135.719 334.755 135.88 335.203 136.203 335.516C136.526 335.828 136.987 335.984 137.586 335.984ZM150.141 327.836H151.227V343.875H150.141V327.836ZM167.523 340H160.039V338.914L163.094 335.812C163.661 335.24 164.138 334.729 164.523 334.281C164.914 333.833 165.211 333.393 165.414 332.961C165.617 332.523 165.719 332.044 165.719 331.523C165.719 330.878 165.526 330.385 165.141 330.047C164.76 329.703 164.258 329.531 163.633 329.531C163.086 329.531 162.602 329.625 162.18 329.812C161.758 330 161.326 330.266 160.883 330.609L160.188 329.734C160.49 329.479 160.818 329.253 161.172 329.055C161.531 328.857 161.914 328.701 162.32 328.586C162.732 328.471 163.169 328.414 163.633 328.414C164.336 328.414 164.943 328.536 165.453 328.781C165.964 329.026 166.357 329.375 166.633 329.828C166.914 330.281 167.055 330.82 167.055 331.445C167.055 332.049 166.935 332.612 166.695 333.133C166.456 333.648 166.12 334.161 165.688 334.672C165.255 335.177 164.75 335.714 164.172 336.281L161.688 338.758V338.812H167.523V340ZM170.672 340L175.359 329.766H169.133V328.578H176.75V329.578L172.094 340H170.672ZM188.227 331.281C189.169 331.281 189.88 331.529 190.359 332.023C190.839 332.513 191.078 333.302 191.078 334.391V340H189.797V334.453C189.797 333.76 189.646 333.242 189.344 332.898C189.047 332.549 188.604 332.375 188.016 332.375C187.188 332.375 186.586 332.615 186.211 333.094C185.836 333.573 185.648 334.279 185.648 335.211V340H184.359V334.453C184.359 333.99 184.292 333.604 184.156 333.297C184.026 332.99 183.828 332.76 183.562 332.609C183.302 332.453 182.971 332.375 182.57 332.375C182.003 332.375 181.547 332.492 181.203 332.727C180.859 332.961 180.609 333.31 180.453 333.773C180.302 334.232 180.227 334.797 180.227 335.469V340H178.93V331.438H179.977L180.172 332.648H180.242C180.414 332.352 180.63 332.102 180.891 331.898C181.151 331.695 181.443 331.542 181.766 331.438C182.089 331.333 182.432 331.281 182.797 331.281C183.448 331.281 183.992 331.404 184.43 331.648C184.872 331.888 185.193 332.255 185.391 332.75H185.461C185.742 332.255 186.128 331.888 186.617 331.648C187.107 331.404 187.643 331.281 188.227 331.281ZM195.039 331.438V340H193.742V331.438H195.039ZM194.406 328.234C194.62 328.234 194.802 328.305 194.953 328.445C195.109 328.581 195.188 328.794 195.188 329.086C195.188 329.372 195.109 329.586 194.953 329.727C194.802 329.867 194.62 329.938 194.406 329.938C194.182 329.938 193.995 329.867 193.844 329.727C193.698 329.586 193.625 329.372 193.625 329.086C193.625 328.794 193.698 328.581 193.844 328.445C193.995 328.305 194.182 328.234 194.406 328.234ZM201.844 331.281C202.859 331.281 203.628 331.531 204.148 332.031C204.669 332.526 204.93 333.323 204.93 334.422V340H203.648V334.508C203.648 333.794 203.484 333.26 203.156 332.906C202.833 332.552 202.336 332.375 201.664 332.375C200.716 332.375 200.049 332.643 199.664 333.18C199.279 333.716 199.086 334.495 199.086 335.516V340H197.789V331.438H198.836L199.031 332.672H199.102C199.284 332.37 199.516 332.117 199.797 331.914C200.078 331.706 200.393 331.549 200.742 331.445C201.091 331.336 201.458 331.281 201.844 331.281Z" fill="#202125"/>
<path d="M20.6211 44L24.2422 26.8672H28.9766L29.7383 39.6758H29.8438L36.2773 26.8672H41.2344L37.6133 44H34.332L36.0312 35.8906C36.1484 35.3516 36.2812 34.7734 36.4297 34.1562C36.5781 33.5391 36.7305 32.9297 36.8867 32.3281C37.043 31.7266 37.1836 31.1914 37.3086 30.7227H37.2031L30.5352 44H27.2422L26.5273 30.7227H26.4336C26.3945 31.0664 26.3281 31.5312 26.2344 32.1172C26.1406 32.7031 26.0312 33.3398 25.9062 34.0273C25.7891 34.707 25.6602 35.375 25.5195 36.0312L23.8438 44H20.6211ZM47.3516 44.2344C46.3281 44.2344 45.4258 44.0508 44.6445 43.6836C43.8711 43.3086 43.2656 42.7461 42.8281 41.9961C42.3906 41.2461 42.1719 40.3047 42.1719 39.1719C42.1719 38.0781 42.3281 37.0234 42.6406 36.0078C42.9531 34.9844 43.418 34.0703 44.0352 33.2656C44.6602 32.4609 45.4258 31.8242 46.332 31.3555C47.2461 30.8867 48.3008 30.6523 49.4961 30.6523C50.9648 30.6523 52.0625 30.9883 52.7891 31.6602C53.5234 32.3242 53.8906 33.1797 53.8906 34.2266C53.8906 34.9141 53.7344 35.5391 53.4219 36.1016C53.1172 36.6641 52.6523 37.1484 52.0273 37.5547C51.4023 37.9531 50.6172 38.2617 49.6719 38.4805C48.7266 38.6914 47.6172 38.7969 46.3438 38.7969H45.7461C45.7383 38.8906 45.7305 38.9727 45.7227 39.043C45.7227 39.1133 45.7227 39.1914 45.7227 39.2773C45.7227 39.9805 45.9258 40.5391 46.332 40.9531C46.7383 41.3672 47.3125 41.5742 48.0547 41.5742C48.7422 41.5742 49.3672 41.4961 49.9297 41.3398C50.4922 41.1836 51.1562 40.9258 51.9219 40.5664V43.2266C51.2344 43.5625 50.5352 43.8164 49.8242 43.9883C49.1133 44.1523 48.2891 44.2344 47.3516 44.2344ZM46.1328 36.418H46.6602C47.5664 36.418 48.3008 36.3203 48.8633 36.125C49.4336 35.9297 49.8477 35.6719 50.1055 35.3516C50.3711 35.0312 50.5039 34.6836 50.5039 34.3086C50.5039 33.9336 50.3945 33.6562 50.1758 33.4766C49.9648 33.2891 49.6641 33.1953 49.2734 33.1953C48.8359 33.1953 48.4023 33.332 47.9727 33.6055C47.543 33.8789 47.1641 34.2578 46.8359 34.7422C46.5078 35.2266 46.2734 35.7852 46.1328 36.418ZM59.2578 44.2344C58.625 44.2344 58.0273 44.0781 57.4648 43.7656C56.9023 43.4531 56.4414 42.9492 56.082 42.2539C55.7305 41.5508 55.5547 40.6211 55.5547 39.4648C55.5547 38.6133 55.6445 37.7656 55.8242 36.9219C56.0117 36.0781 56.2773 35.2812 56.6211 34.5312C56.9727 33.7734 57.3945 33.1055 57.8867 32.5273C58.3867 31.9414 58.9492 31.4844 59.5742 31.1562C60.207 30.8203 60.8906 30.6523 61.625 30.6523C62.1484 30.6523 62.5898 30.7383 62.9492 30.9102C63.3164 31.082 63.6328 31.3125 63.8984 31.6016C64.1641 31.8906 64.3984 32.2148 64.6016 32.5742H64.6953C64.6953 32.5273 64.707 32.3555 64.7305 32.0586C64.7539 31.7617 64.7891 31.4219 64.8359 31.0391C64.8828 30.6484 64.9414 30.2891 65.0117 29.9609L65.9023 25.7656H69.4297L65.5625 44H62.8789L63.0898 42.3008H62.9961C62.6836 42.6836 62.3438 43.0195 61.9766 43.3086C61.6172 43.5977 61.2148 43.8242 60.7695 43.9883C60.3242 44.1523 59.8203 44.2344 59.2578 44.2344ZM60.7344 41.3867C61.1016 41.3867 61.4336 41.2891 61.7305 41.0938C62.0352 40.8906 62.3008 40.625 62.5273 40.2969C62.7617 39.9609 62.9609 39.5859 63.125 39.1719C63.2969 38.7578 63.4375 38.3359 63.5469 37.9062C63.6562 37.4688 63.7344 37.0469 63.7812 36.6406C63.8359 36.2344 63.8633 35.8789 63.8633 35.5742C63.8633 34.9492 63.7148 34.4492 63.418 34.0742C63.1289 33.6992 62.7305 33.5117 62.2227 33.5117C61.8789 33.5117 61.5508 33.625 61.2383 33.8516C60.9336 34.0703 60.6523 34.375 60.3945 34.7656C60.1367 35.1484 59.9102 35.5898 59.7148 36.0898C59.5273 36.582 59.3828 37.1055 59.2812 37.6602C59.1797 38.2148 59.1289 38.7695 59.1289 39.3242C59.1289 40.0039 59.2656 40.5195 59.5391 40.8711C59.8203 41.2148 60.2188 41.3867 60.7344 41.3867ZM69.207 44L71.9844 30.8984H75.5117L72.7344 44H69.207ZM74.3164 29.2695C73.8164 29.2695 73.3945 29.1602 73.0508 28.9414C72.7148 28.7227 72.5469 28.3516 72.5469 27.8281C72.5469 27.375 72.6289 26.9961 72.793 26.6914C72.9648 26.3867 73.2109 26.1562 73.5312 26C73.8516 25.8438 74.2344 25.7656 74.6797 25.7656C75.1484 25.7656 75.5547 25.8672 75.8984 26.0703C76.25 26.2734 76.4258 26.6406 76.4258 27.1719C76.4258 27.7969 76.2539 28.3047 75.9102 28.6953C75.5664 29.0781 75.0352 29.2695 74.3164 29.2695ZM80.7031 44.2344C79.6641 44.2344 78.8359 44.0156 78.2188 43.5781C77.6016 43.1406 77.293 42.3516 77.293 41.2109C77.293 41.0234 77.3047 40.8203 77.3281 40.6016C77.3516 40.375 77.3867 40.1406 77.4336 39.8984L78.7812 33.582H77L77.3398 31.8594L79.6367 30.875L81.1836 28.1094H83.457L82.8828 30.8984H86.1992L85.6133 33.582H82.3086L80.9609 39.8984C80.9375 40.0156 80.918 40.1328 80.9023 40.25C80.8945 40.3594 80.8906 40.4492 80.8906 40.5195C80.8906 40.832 80.9844 41.0547 81.1719 41.1875C81.3594 41.3203 81.6094 41.3867 81.9219 41.3867C82.2422 41.3867 82.5469 41.3516 82.8359 41.2812C83.1328 41.2031 83.4609 41.1016 83.8203 40.9766V43.6133C83.4453 43.793 82.9922 43.9414 82.4609 44.0586C81.9375 44.1758 81.3516 44.2344 80.7031 44.2344ZM90.5 44.2344C89.8672 44.2344 89.2695 44.0781 88.707 43.7656C88.1445 43.4531 87.6836 42.9492 87.3242 42.2539C86.9727 41.5586 86.7969 40.6367 86.7969 39.4883C86.7969 38.6289 86.8867 37.7773 87.0664 36.9336C87.2539 36.0898 87.5195 35.293 87.8633 34.543C88.2148 33.7852 88.6367 33.1172 89.1289 32.5391C89.6289 31.9531 90.1914 31.4922 90.8164 31.1562C91.4492 30.8203 92.1328 30.6523 92.8672 30.6523C93.4219 30.6523 93.9062 30.7344 94.3203 30.8984C94.7344 31.0547 95.0898 31.2773 95.3867 31.5664C95.6836 31.8555 95.9258 32.1914 96.1133 32.5742H96.207L96.875 30.8984H99.5938L96.8047 44H94.168L94.332 42.3008H94.2383C93.9258 42.6836 93.5859 43.0195 93.2188 43.3086C92.8516 43.5977 92.4453 43.8242 92 43.9883C91.5547 44.1523 91.0547 44.2344 90.5 44.2344ZM91.8828 41.3867C92.3672 41.3867 92.8164 41.1992 93.2305 40.8242C93.6445 40.4414 94 39.9453 94.2969 39.3359C94.5938 38.7266 94.8047 38.082 94.9297 37.4023C94.9922 37.0898 95.0352 36.7773 95.0586 36.4648C95.0898 36.1445 95.1055 35.8008 95.1055 35.4336C95.1055 34.8789 94.957 34.4219 94.6602 34.0625C94.3711 33.6953 93.9727 33.5117 93.4648 33.5117C93.1211 33.5117 92.793 33.625 92.4805 33.8516C92.1758 34.0703 91.8945 34.375 91.6367 34.7656C91.3789 35.1484 91.1523 35.5898 90.957 36.0898C90.7695 36.582 90.625 37.1055 90.5234 37.6602C90.4219 38.2148 90.3711 38.7695 90.3711 39.3242C90.3711 40.0039 90.5039 40.5195 90.7695 40.8711C91.0352 41.2148 91.4062 41.3867 91.8828 41.3867ZM104.82 44.2344C103.781 44.2344 102.953 44.0156 102.336 43.5781C101.719 43.1406 101.41 42.3516 101.41 41.2109C101.41 41.0234 101.422 40.8203 101.445 40.6016C101.469 40.375 101.504 40.1406 101.551 39.8984L102.898 33.582H101.117L101.457 31.8594L103.754 30.875L105.301 28.1094H107.574L107 30.8984H110.316L109.73 33.582H106.426L105.078 39.8984C105.055 40.0156 105.035 40.1328 105.02 40.25C105.012 40.3594 105.008 40.4492 105.008 40.5195C105.008 40.832 105.102 41.0547 105.289 41.1875C105.477 41.3203 105.727 41.3867 106.039 41.3867C106.359 41.3867 106.664 41.3516 106.953 41.2812C107.25 41.2031 107.578 41.1016 107.938 40.9766V43.6133C107.562 43.793 107.109 43.9414 106.578 44.0586C106.055 44.1758 105.469 44.2344 104.82 44.2344ZM110.293 44L113.07 30.8984H116.598L113.82 44H110.293ZM115.402 29.2695C114.902 29.2695 114.48 29.1602 114.137 28.9414C113.801 28.7227 113.633 28.3516 113.633 27.8281C113.633 27.375 113.715 26.9961 113.879 26.6914C114.051 26.3867 114.297 26.1562 114.617 26C114.938 25.8438 115.32 25.7656 115.766 25.7656C116.234 25.7656 116.641 25.8672 116.984 26.0703C117.336 26.2734 117.512 26.6406 117.512 27.1719C117.512 27.7969 117.34 28.3047 116.996 28.6953C116.652 29.0781 116.121 29.2695 115.402 29.2695ZM123.055 44.2344C122.07 44.2344 121.199 44.0312 120.441 43.625C119.691 43.2188 119.102 42.6406 118.672 41.8906C118.25 41.1328 118.039 40.2344 118.039 39.1953C118.039 38.2656 118.129 37.3789 118.309 36.5352C118.496 35.6836 118.773 34.9023 119.141 34.1914C119.516 33.4727 119.98 32.8516 120.535 32.3281C121.098 31.7969 121.75 31.3867 122.492 31.0977C123.234 30.8008 124.07 30.6523 125 30.6523C126.016 30.6523 126.895 30.8594 127.637 31.2734C128.379 31.6797 128.953 32.2695 129.359 33.043C129.766 33.8164 129.969 34.75 129.969 35.8438C129.969 36.7344 129.879 37.5938 129.699 38.4219C129.527 39.2422 129.262 40.0078 128.902 40.7188C128.543 41.4219 128.09 42.0391 127.543 42.5703C126.996 43.0938 126.348 43.5039 125.598 43.8008C124.855 44.0898 124.008 44.2344 123.055 44.2344ZM123.348 41.3633C123.738 41.3633 124.094 41.2656 124.414 41.0703C124.734 40.8672 125.02 40.5898 125.27 40.2383C125.52 39.8789 125.727 39.4688 125.891 39.0078C126.062 38.5391 126.191 38.0352 126.277 37.4961C126.371 36.957 126.418 36.4062 126.418 35.8438C126.418 35.3984 126.363 35.0039 126.254 34.6602C126.152 34.3086 125.977 34.0352 125.727 33.8398C125.484 33.6367 125.156 33.5352 124.742 33.5352C124.312 33.5352 123.926 33.6562 123.582 33.8984C123.246 34.1328 122.953 34.4492 122.703 34.8477C122.453 35.2461 122.246 35.6914 122.082 36.1836C121.918 36.6758 121.793 37.1836 121.707 37.707C121.629 38.2227 121.59 38.7188 121.59 39.1953C121.59 39.9062 121.734 40.4453 122.023 40.8125C122.312 41.1797 122.754 41.3633 123.348 41.3633ZM131.457 44L134.234 30.8984H136.93L136.684 33.3242H136.789C137.125 32.8008 137.496 32.3398 137.902 31.9414C138.309 31.543 138.758 31.2305 139.25 31.0039C139.75 30.7695 140.305 30.6523 140.914 30.6523C141.664 30.6523 142.289 30.8086 142.789 31.1211C143.297 31.4258 143.676 31.8594 143.926 32.4219C144.176 32.9844 144.301 33.6523 144.301 34.4258C144.301 34.7148 144.277 35.0391 144.23 35.3984C144.184 35.7578 144.117 36.1367 144.031 36.5352L142.473 44H138.945L140.551 36.3477C140.613 36.082 140.66 35.832 140.691 35.5977C140.723 35.3633 140.738 35.1484 140.738 34.9531C140.738 34.4609 140.633 34.0977 140.422 33.8633C140.211 33.6289 139.895 33.5117 139.473 33.5117C138.941 33.5117 138.461 33.7422 138.031 34.2031C137.602 34.6562 137.227 35.2656 136.906 36.0312C136.594 36.7969 136.336 37.6445 136.133 38.5742L134.984 44H131.457Z" fill="#202125"/>
<defs>
<clipPath id="clip0_4811_3065">
<rect width="284.01" height="191.052" fill="white" transform="translate(39 65)"/>
</clipPath>
</defs>
</svg>
