<svg width="38" height="38" viewBox="0 0 38 38" fill="none" xmlns="http://www.w3.org/2000/svg">
<path d="M20.5851 31.5686C23.7792 31.1622 26.6986 29.5548 28.7501 27.0732C30.8015 24.5915 31.8311 21.4218 31.6295 18.2084C31.4279 14.9949 30.0102 11.9788 27.6646 9.77302C25.319 7.56726 22.2216 6.33741 19.0018 6.33341C15.7781 6.33101 12.6747 7.55787 10.3241 9.76399C7.97344 11.9701 6.55242 14.9895 6.35055 18.2069C6.14868 21.4243 7.18116 24.5976 9.2376 27.0802C11.294 29.5629 14.2197 31.168 17.4185 31.5686V22.1667H14.2518V19.0001H17.4185V16.3812C17.4185 14.2643 17.6401 13.4964 18.0518 12.7222C18.4576 11.9564 19.0843 11.3302 19.8505 10.9251C20.4553 10.6005 21.2074 10.4057 22.5215 10.3218C23.043 10.2881 23.7175 10.3303 24.545 10.4485V13.4568H23.7534C22.3015 13.4568 21.7014 13.5249 21.3435 13.7165C21.1302 13.8266 20.9564 14.0003 20.8464 14.2137C20.6564 14.5715 20.5867 14.9262 20.5867 16.3797V19.0001H24.545L23.7534 22.1667H20.5867L20.5851 31.5686ZM19.0018 34.8334C10.257 34.8334 3.16846 27.7448 3.16846 19.0001C3.16846 10.2553 10.257 3.16675 19.0018 3.16675C27.7465 3.16675 34.8351 10.2553 34.8351 19.0001C34.8351 27.7448 27.7465 34.8334 19.0018 34.8334Z" fill="white"/>
</svg>
