<svg width="38" height="38" viewBox="0 0 38 38" fill="none" xmlns="http://www.w3.org/2000/svg">
<path d="M19.0002 2.54907C9.91498 2.54907 2.54932 9.91474 2.54932 18.9999C2.54932 28.0851 9.91498 35.4507 19.0002 35.4507C28.0853 35.4507 35.451 28.0851 35.451 18.9999C35.451 9.91474 28.0853 2.54907 19.0002 2.54907ZM25.1324 25.8146C23.6409 27.1889 21.6079 27.9964 19.1791 27.9964C17.998 27.996 16.8287 27.763 15.7377 27.3106C14.6467 26.8583 13.6556 26.1955 12.8207 25.3601C11.9859 24.5247 11.3238 23.533 10.8723 22.4417C10.4207 21.3505 10.1885 20.1809 10.1889 18.9999C10.1881 17.8184 10.4201 16.6482 10.8717 15.5564C11.3232 14.4645 11.9856 13.4723 12.8207 12.6366C13.6559 11.8008 14.6476 11.1378 15.7392 10.6854C16.8307 10.2331 18.0007 10.0002 19.1822 10.0002C21.6047 10.0002 23.6393 10.8917 25.1989 12.3436L22.6228 14.9244C21.6887 14.0314 20.5043 13.5786 19.1854 13.5786C16.8421 13.5786 14.8597 15.1619 14.1504 17.2883C13.9715 17.8282 13.8686 18.4046 13.8686 18.9999C13.8686 19.5952 13.9715 20.1716 14.1504 20.7099C14.8597 22.8379 16.8421 24.4197 19.1822 24.4197C20.3935 24.4197 21.4211 24.0998 22.2254 23.5599C22.6937 23.253 23.0945 22.8537 23.4032 22.3865C23.712 21.9193 23.9221 21.3941 24.0209 20.8429H19.1822V17.3627H27.6531C27.7597 17.9539 27.8135 18.5671 27.8146 19.2026C27.8146 21.9449 26.8313 24.2471 25.1324 25.8146Z" fill="white"/>
</svg>
