<svg xmlns="http://www.w3.org/2000/svg" width="37" height="10" viewBox="0 0 37 10" fill="none">
  <path d="M6.64048 2.96207C3.92121 3.21213 4.41121 4.12944 4.10411 2.69931C3.21622 2.79961 2.2329 2.8812 1.5274 3.59682C0.859637 4.27416 -0.112657 4.02638 1.02782 5.24342C3.77092 8.17066 7.79114 8.23082 10.6171 6.13323C12.766 4.53816 16.893 3.57596 19.2736 5.66742C20.8514 7.05355 23.2494 6.68332 24.7374 8.40017C26.3012 10.2045 27.7016 10.1279 29.6496 9.5175C30.5632 9.23123 31.9071 8.62045 32.7365 8.08948C33.8778 7.3589 34.9559 6.83627 35.7599 5.55134C36.4483 4.45135 36.6618 3.16074 36.3877 1.72061C36.0735 0.0694469 31.8496 2.13049 31.382 3.24409C30.8339 4.54956 30.4305 3.96656 29.6288 5.04459C29.3232 5.45545 28.1733 5.31681 27.7157 5.36851C26.5911 5.49556 26.175 5.69552 25.0923 5.05521C23.3723 4.038 21.8405 2.62878 20.205 1.42974C19.4889 0.90472 18.6132 0.959321 17.6102 0.68844C16.8373 0.775756 16.234 1.16669 15.4696 1.31445C14.1506 1.56943 14.0706 1.55535 12.8101 2.08655C11.2436 2.74666 9.35976 2.71202 6.64048 2.96207Z" fill="#FF6F61" stroke="#FF6F61" stroke-width="0.085" stroke-linecap="round"/>
</svg>