<svg xmlns="http://www.w3.org/2000/svg" width="51" height="51" viewBox="0 0 51 51" fill="none">
  <path d="M38.25 38.25C35.6332 40.8668 32.2746 42.615 28.6301 43.2575C24.9856 43.8999 21.2317 43.4054 17.8779 41.841C14.5241 40.2767 11.7328 37.7182 9.88302 34.513C8.0332 31.3078 7.21439 27.6111 7.53774 23.9245C7.86108 20.238 9.31092 16.7402 11.6905 13.906C14.07 11.0717 17.264 9.03828 20.8389 8.08164C24.4138 7.12501 28.1965 7.29151 31.6735 8.55856C35.1506 9.82561 38.1535 12.1318 40.2748 15.1642L25.5 25.5L38.25 38.25Z" fill="#7B6AD6"/>
  <path d="M38.25 38.25C40.7717 35.7283 42.489 32.5154 43.1848 29.0177C43.8805 25.52 43.5234 21.8945 42.1587 18.5997C40.7939 15.305 38.4828 12.4889 35.5176 10.5076C32.5524 8.52629 29.0662 7.46878 25.5 7.46878C21.9338 7.46878 18.4476 8.52629 15.4824 10.5076C12.5172 12.4889 10.2061 15.305 8.84132 18.5998C7.47658 21.8945 7.1195 25.52 7.81524 29.0177C8.51098 32.5154 10.2283 35.7283 12.75 38.25L25.5 25.5L38.25 38.25Z" fill="#7B6AD6"/>
  <path d="M38.25 38.25C35.7283 40.7717 32.5154 42.489 29.0177 43.1848C25.52 43.8805 21.8945 43.5234 18.5997 42.1587C15.305 40.7939 12.4889 38.4828 10.5076 35.5176C8.52629 32.5524 7.46878 29.0662 7.46878 25.5C7.46878 21.9338 8.52629 18.4476 10.5076 15.4824C12.4889 12.5172 15.305 10.2061 18.5997 8.84132C21.8945 7.47658 25.52 7.1195 29.0177 7.81524C32.5154 8.51098 35.7283 10.2283 38.25 12.75L25.5 25.5L38.25 38.25Z" fill="#7B6AD6"/>
</svg>