<svg width="13" height="9" viewBox="0 0 13 9" fill="none" xmlns="http://www.w3.org/2000/svg">
<path d="M6.6584 6.74551C6.19307 6.74551 5.7382 6.60753 5.35129 6.349C4.96439 6.09048 4.66283 5.72303 4.48476 5.29313C4.30668 4.86322 4.26009 4.39017 4.35087 3.93378C4.44165 3.47739 4.66573 3.05818 4.99477 2.72914C5.3238 2.4001 5.74302 2.17603 6.1994 2.08525C6.65579 1.99447 7.12885 2.04106 7.55875 2.21913C7.98866 2.3972 8.35611 2.69876 8.61463 3.08567C8.87315 3.47257 9.01114 3.92745 9.01114 4.39278C9.01037 5.01652 8.76224 5.6145 8.32119 6.05556C7.88013 6.49662 7.28215 6.74474 6.6584 6.74551ZM6.6584 2.61994C6.30805 2.61994 5.96556 2.72382 5.67423 2.91844C5.38291 3.11307 5.15583 3.38969 5.0217 3.71336C4.88758 4.03702 4.85242 4.39318 4.92069 4.73682C4.98895 5.08046 5.15757 5.39614 5.40523 5.64396C5.65289 5.89178 5.96846 6.06061 6.31205 6.1291C6.65565 6.19759 7.01183 6.16267 7.33558 6.02876C7.65933 5.89484 7.93611 5.66794 8.13093 5.37675C8.32574 5.08555 8.42984 4.74313 8.43007 4.39278C8.42992 3.92295 8.24321 3.47241 7.91099 3.14019C7.57877 2.80797 7.12823 2.62126 6.6584 2.62111V2.61994Z" fill="white"/>
<path d="M6.65838 5.57067C7.30919 5.57067 7.83678 5.04308 7.83678 4.39227C7.83678 3.74146 7.30919 3.21387 6.65838 3.21387C6.00757 3.21387 5.47998 3.74146 5.47998 4.39227C5.47998 5.04308 6.00757 5.57067 6.65838 5.57067Z" fill="white"/>
<path d="M6.59828 8.29635C5.44594 8.31125 4.31176 8.00854 3.3201 7.42144C2.32843 6.83433 1.51758 5.98549 0.976466 4.96801C0.873032 4.7594 0.819214 4.52971 0.819214 4.29688C0.819214 4.06404 0.873032 3.83435 0.976466 3.62574C1.51758 2.60826 2.32843 1.75942 3.3201 1.17231C4.31176 0.585206 5.44594 0.282504 6.59828 0.297399C7.75061 0.282504 8.88479 0.585206 9.87646 1.17231C10.8681 1.75942 11.679 2.60826 12.2201 3.62574C12.3235 3.83435 12.3773 4.06404 12.3773 4.29688C12.3773 4.52971 12.3235 4.7594 12.2201 4.96801C11.679 5.98549 10.8681 6.83433 9.87646 7.42144C8.88479 8.00854 7.75061 8.31125 6.59828 8.29635ZM6.59828 0.878465C5.55372 0.863003 4.52508 1.13548 3.62515 1.666C2.72522 2.19653 1.98876 2.96463 1.49652 3.88606C1.43305 4.01381 1.40002 4.15452 1.40002 4.29717C1.40002 4.43981 1.43305 4.58052 1.49652 4.70827C1.98883 5.62959 2.72533 6.39757 3.62526 6.92799C4.52518 7.45842 5.55378 7.7308 6.59828 7.71528C7.64283 7.73075 8.67148 7.45827 9.57141 6.92775C10.4713 6.39722 11.2078 5.62912 11.7 4.70769C11.7639 4.58015 11.7971 4.43949 11.7971 4.29688C11.7971 4.15426 11.7639 4.0136 11.7 3.88606C11.2078 2.96463 10.4713 2.19653 9.57141 1.666C8.67148 1.13548 7.64283 0.863003 6.59828 0.878465Z" fill="white"/>
</svg>
