<svg width="11" height="11" viewBox="0 0 11 11" fill="none" xmlns="http://www.w3.org/2000/svg">
<path d="M10.116 7.36823V5.79688C10.116 3.31166 8.10124 1.29688 5.61603 1.29688C3.13081 1.29688 1.11603 3.3119 1.11603 5.79712V7.36847" stroke="white" stroke-linecap="round" stroke-linejoin="round"/>
<path d="M2.41738 6.06641H2.71657C2.8905 6.0666 3.05725 6.13578 3.18024 6.25877C3.30322 6.38175 3.3724 6.5485 3.3726 6.72243V9.13516C3.37234 9.30901 3.30316 9.47566 3.18024 9.59859C3.05731 9.72151 2.89066 9.79069 2.71681 9.79095H2.41762C2.0725 9.79082 1.74155 9.65368 1.49748 9.40966C1.25342 9.16565 1.11622 8.83472 1.11603 8.4896V7.36824C1.11622 7.02316 1.25339 6.69227 1.4974 6.44826C1.74141 6.20425 2.0723 6.0666 2.41738 6.06641ZM8.79668 9.79095H8.49749C8.32356 9.79075 8.15681 9.72157 8.03382 9.59859C7.91083 9.4756 7.84165 9.30885 7.84146 9.13492V6.72219C7.84172 6.54834 7.91089 6.38169 8.03382 6.25876C8.15675 6.13584 8.3234 6.06666 8.49724 6.06641H8.79668C9.14176 6.0666 9.47265 6.20377 9.71666 6.44778C9.96067 6.69179 10.0978 7.02268 10.098 7.36776V8.4896C10.0978 8.83468 9.96067 9.16557 9.71666 9.40958C9.47265 9.65358 9.14176 9.79075 8.79668 9.79095Z" stroke="white" stroke-linecap="round" stroke-linejoin="round"/>
</svg>
